  0
SECTION
  2
HEADER
  9
$ACADVER
  1
AC1009
  9
$INSBASE
 10
0.0
 20
0.0
 30
0.0
  9
$EXTMIN
 10
0.0
 20
0.0
 30
0.0
  9
$EXTMAX
 10
0.0
 20
0.0
 30
0.0
  0
ENDSEC
  0
SECTION
  2
TABLES
  0
TABLE
  2
VPORT
 70
0
  0
ENDTAB
  0
TABLE
  2
LTYPE
 70
1
  0
LTYPE
  2
CONTINUOUS
 70
0
  3
Solid line
 72
65
 73
0
 40
0.0
  0
ENDTAB
  0
TABLE
  2
LAYER
 70
1
  0
LAYER
  2
0
 70
64
 62
7
  6
continuous
  0
ENDTAB
  0
TABLE
  2
STYLE
 70
1
  0
STYLE
  2
STANDARD
 70
0
 40
0
 41
1.0
 50
0.0
 71
0
 42
1
 3
ARIAL.TTF
 4

  0
ENDTAB
  0
TABLE
  2
VIEW
 70
0
  0
ENDTAB
  0
ENDSEC
  0
SECTION
  2
BLOCKS
  0
ENDSEC
  0
SECTION
  2
ENTITIES
  0
POLYLINE
  8
Group077
 62
0
 70
0
 66
1
 10
0.0
 20
0.0
 30
0.0
  0
VERTEX
  8
Group077
 10
-2.274999999999999
 20
-2.824999999999999
 30
0.0
  0
VERTEX
  8
Group077
 10
3.725000000000001
 20
3.175000000000001
 30
0.0
  0
SEQEND
  8
Group077
  0
POLYLINE
  8
Group078
 62
0
 70
0
 66
1
 10
0.0
 20
0.0
 30
0.0
  0
VERTEX
  8
Group078
 10
310.1795842245773
 20
3.175000000000002
 30
0.0
  0
VERTEX
  8
Group078
 10
316.1795842245773
 20
-2.824999999999996
 30
0.0
  0
SEQEND
  8
Group078
  0
POLYLINE
  8
Group079
 62
0
 70
0
 66
1
 10
0.0
 20
0.0
 30
0.0
  0
VERTEX
  8
Group079
 10
316.1795842245773
 20
-92.26498
 30
0.0
  0
VERTEX
  8
Group079
 10
310.1795842245773
 20
-98.26498
 30
0.0
  0
SEQEND
  8
Group079
  0
POLYLINE
  8
Group080
 62
0
 70
0
 66
1
 10
0.0
 20
0.0
 30
0.0
  0
VERTEX
  8
Group080
 10
3.725000000000023
 20
-98.26498000000001
 30
0.0
  0
VERTEX
  8
Group080
 10
-2.274999999999975
 20
-92.26498000000001
 30
0.0
  0
SEQEND
  8
Group080
  0
POLYLINE
  8
Border
 62
0
 70
0
 66
1
 10
0.0
 20
0.0
 30
0.0
  0
VERTEX
  8
Border
 10
3.725000000000001
 20
3.175000000000001
 30
0.0
  0
VERTEX
  8
Border
 10
310.1795842245773
 20
3.175000000000002
 30
0.0
  0
SEQEND
  8
Border
  0
POLYLINE
  8
Border
 62
0
 70
0
 66
1
 10
0.0
 20
0.0
 30
0.0
  0
VERTEX
  8
Border
 10
316.1795842245773
 20
-2.825
 30
0.0
  0
VERTEX
  8
Border
 10
316.1795842245773
 20
-92.26498
 30
0.0
  0
SEQEND
  8
Border
  0
POLYLINE
  8
Border
 62
0
 70
0
 66
1
 10
0.0
 20
0.0
 30
0.0
  0
VERTEX
  8
Border
 10
310.1795842245773
 20
-98.26498
 30
0.0
  0
VERTEX
  8
Border
 10
3.7250000000000227
 20
-98.26498000000001
 30
0.0
  0
SEQEND
  8
Border
  0
CIRCLE
  8
Border
 62
0
 10
290.6795842245773
 20
-45.41497999999999
 30
0.0
 40
2.65
  0
ARC
  8
Border
 62
0
 10
-1.3999999999999875
 20
-47.546260000000004
 30
0.0
 40
0.875
 50
-90.00000000000001
 51
89.99999999999999
  0
ARC
  8
Border
 62
0
 10
-2.0249999999999875
 20
-46.42126
 30
0.0
 40
0.25
 50
-180.0
 51
-90.0
  0
ARC
  8
Border
 62
0
 10
-2.0249999999999866
 20
-48.671260000000004
 30
0.0
 40
0.25
 50
90.0
 51
-180.0
  0
POLYLINE
  8
Border
 62
0
 70
0
 66
1
 10
0.0
 20
0.0
 30
0.0
  0
VERTEX
  8
Border
 10
-1.3999999999999873
 20
-46.671260000000004
 30
0.0
  0
VERTEX
  8
Border
 10
-2.0249999999999875
 20
-46.67126
 30
0.0
  0
SEQEND
  8
Border
  0
POLYLINE
  8
Border
 62
0
 70
0
 66
1
 10
0.0
 20
0.0
 30
0.0
  0
VERTEX
  8
Border
 10
-2.0249999999999866
 20
-48.421260000000004
 30
0.0
  0
VERTEX
  8
Border
 10
-1.3999999999999877
 20
-48.421260000000004
 30
0.0
  0
SEQEND
  8
Border
  0
POLYLINE
  8
Border
 62
0
 70
0
 66
1
 10
0.0
 20
0.0
 30
0.0
  0
VERTEX
  8
Border
 10
-2.2749999999999875
 20
-46.42126
 30
0.0
  0
VERTEX
  8
Border
 10
-2.274999999999999
 20
-2.8249999999999957
 30
0.0
  0
SEQEND
  8
Border
  0
POLYLINE
  8
Border
 62
0
 70
0
 66
1
 10
0.0
 20
0.0
 30
0.0
  0
VERTEX
  8
Border
 10
-2.274999999999975
 20
-92.26498000000001
 30
0.0
  0
VERTEX
  8
Border
 10
-2.2749999999999866
 20
-48.671260000000004
 30
0.0
  0
SEQEND
  8
Border
  0
ARC
  8
Group051
 62
0
 10
27.039209724132355
 20
-60.30562
 30
0.0
 40
0.75
 50
90.0
 51
-180.0
  0
ARC
  8
Group051
 62
0
 10
39.53920972413235
 20
-60.305620000000005
 30
0.0
 40
0.75
 50
-0.0
 51
90.0
  0
ARC
  8
Group051
 62
0
 10
27.039209724132355
 20
-72.80562
 30
0.0
 40
0.75
 50
-180.0
 51
-90.0
  0
ARC
  8
Group051
 62
0
 10
39.539209724132355
 20
-72.80562
 30
0.0
 40
0.75
 50
-90.0
 51
-0.0
  0
POLYLINE
  8
Group051
 62
0
 70
0
 66
1
 10
0.0
 20
0.0
 30
0.0
  0
VERTEX
  8
Group051
 10
40.289209724132355
 20
-72.80562
 30
0.0
  0
VERTEX
  8
Group051
 10
40.289209724132355
 20
-60.305620000000005
 30
0.0
  0
SEQEND
  8
Group051
  0
POLYLINE
  8
Group051
 62
0
 70
0
 66
1
 10
0.0
 20
0.0
 30
0.0
  0
VERTEX
  8
Group051
 10
39.53920972413235
 20
-59.555620000000005
 30
0.0
  0
VERTEX
  8
Group051
 10
27.039209724132352
 20
-59.555620000000005
 30
0.0
  0
SEQEND
  8
Group051
  0
POLYLINE
  8
Group051
 62
0
 70
0
 66
1
 10
0.0
 20
0.0
 30
0.0
  0
VERTEX
  8
Group051
 10
26.289209724132355
 20
-60.30562
 30
0.0
  0
VERTEX
  8
Group051
 10
26.289209724132355
 20
-72.80562
 30
0.0
  0
SEQEND
  8
Group051
  0
POLYLINE
  8
Group051
 62
0
 70
0
 66
1
 10
0.0
 20
0.0
 30
0.0
  0
VERTEX
  8
Group051
 10
27.039209724132355
 20
-73.55562
 30
0.0
  0
VERTEX
  8
Group051
 10
39.53920972413235
 20
-73.55562
 30
0.0
  0
SEQEND
  8
Group051
  0
ARC
  8
Group050
 62
0
 10
5.65243697111884
 20
-60.30562
 30
0.0
 40
0.75
 50
90.0
 51
-180.0
  0
ARC
  8
Group050
 62
0
 10
18.152436971118835
 20
-60.305620000000005
 30
0.0
 40
0.75
 50
-0.0
 51
90.0
  0
ARC
  8
Group050
 62
0
 10
5.65243697111884
 20
-72.80562
 30
0.0
 40
0.75
 50
-180.0
 51
-90.0
  0
ARC
  8
Group050
 62
0
 10
18.152436971118842
 20
-72.80562
 30
0.0
 40
0.75
 50
-90.0
 51
-0.0
  0
POLYLINE
  8
Group050
 62
0
 70
0
 66
1
 10
0.0
 20
0.0
 30
0.0
  0
VERTEX
  8
Group050
 10
18.902436971118842
 20
-72.80562
 30
0.0
  0
VERTEX
  8
Group050
 10
18.902436971118842
 20
-60.305620000000005
 30
0.0
  0
SEQEND
  8
Group050
  0
POLYLINE
  8
Group050
 62
0
 70
0
 66
1
 10
0.0
 20
0.0
 30
0.0
  0
VERTEX
  8
Group050
 10
18.152436971118835
 20
-59.555620000000005
 30
0.0
  0
VERTEX
  8
Group050
 10
5.6524369711188385
 20
-59.555620000000005
 30
0.0
  0
SEQEND
  8
Group050
  0
POLYLINE
  8
Group050
 62
0
 70
0
 66
1
 10
0.0
 20
0.0
 30
0.0
  0
VERTEX
  8
Group050
 10
4.90243697111884
 20
-60.30562
 30
0.0
  0
VERTEX
  8
Group050
 10
4.90243697111884
 20
-72.80562
 30
0.0
  0
SEQEND
  8
Group050
  0
POLYLINE
  8
Group050
 62
0
 70
0
 66
1
 10
0.0
 20
0.0
 30
0.0
  0
VERTEX
  8
Group050
 10
5.65243697111884
 20
-73.55562
 30
0.0
  0
VERTEX
  8
Group050
 10
18.152436971118835
 20
-73.55562
 30
0.0
  0
SEQEND
  8
Group050
  0
ARC
  8
Group047
 62
0
 10
267.03842396246256
 20
-31.79158
 30
0.0
 40
0.75
 50
90.0
 51
-180.0
  0
ARC
  8
Group047
 62
0
 10
279.5384239624625
 20
-31.791580000000007
 30
0.0
 40
0.75
 50
-0.0
 51
90.0
  0
ARC
  8
Group047
 62
0
 10
267.03842396246256
 20
-44.291579999999996
 30
0.0
 40
0.75
 50
-180.0
 51
-90.0
  0
ARC
  8
Group047
 62
0
 10
279.5384239624626
 20
-44.291579999999996
 30
0.0
 40
0.75
 50
-90.0
 51
-0.0
  0
POLYLINE
  8
Group047
 62
0
 70
0
 66
1
 10
0.0
 20
0.0
 30
0.0
  0
VERTEX
  8
Group047
 10
280.2884239624626
 20
-44.291579999999996
 30
0.0
  0
VERTEX
  8
Group047
 10
280.2884239624626
 20
-31.791579999999996
 30
0.0
  0
SEQEND
  8
Group047
  0
POLYLINE
  8
Group047
 62
0
 70
0
 66
1
 10
0.0
 20
0.0
 30
0.0
  0
VERTEX
  8
Group047
 10
279.5384239624625
 20
-31.041580000000007
 30
0.0
  0
VERTEX
  8
Group047
 10
267.0384239624625
 20
-31.041580000000007
 30
0.0
  0
SEQEND
  8
Group047
  0
POLYLINE
  8
Group047
 62
0
 70
0
 66
1
 10
0.0
 20
0.0
 30
0.0
  0
VERTEX
  8
Group047
 10
266.28842396246256
 20
-31.79158
 30
0.0
  0
VERTEX
  8
Group047
 10
266.28842396246256
 20
-44.291579999999996
 30
0.0
  0
SEQEND
  8
Group047
  0
POLYLINE
  8
Group047
 62
0
 70
0
 66
1
 10
0.0
 20
0.0
 30
0.0
  0
VERTEX
  8
Group047
 10
267.03842396246256
 20
-45.041579999999996
 30
0.0
  0
VERTEX
  8
Group047
 10
279.5384239624625
 20
-45.041579999999996
 30
0.0
  0
SEQEND
  8
Group047
  0
ARC
  8
Group086
 62
0
 10
265.53842396246256
 20
-23.353580000000022
 30
0.0
 40
0.75
 50
90.0
 51
-180.0
  0
ARC
  8
Group086
 62
0
 10
265.53842396246256
 20
-28.853580000000022
 30
0.0
 40
0.75
 50
-180.0
 51
-90.0
  0
ARC
  8
Group086
 62
0
 10
279.53842396246256
 20
-23.353580000000022
 30
0.0
 40
0.75
 50
-0.0
 51
90.0
  0
ARC
  8
Group086
 62
0
 10
279.53842396246256
 20
-28.853580000000022
 30
0.0
 40
0.75
 50
-90.0
 51
-0.0
  0
POLYLINE
  8
Group086
 62
0
 70
0
 66
1
 10
0.0
 20
0.0
 30
0.0
  0
VERTEX
  8
Group086
 10
280.28842396246256
 20
-23.353580000000022
 30
0.0
  0
VERTEX
  8
Group086
 10
280.28842396246256
 20
-28.853580000000022
 30
0.0
  0
SEQEND
  8
Group086
  0
POLYLINE
  8
Group086
 62
0
 70
0
 66
1
 10
0.0
 20
0.0
 30
0.0
  0
VERTEX
  8
Group086
 10
279.53842396246256
 20
-29.603580000000022
 30
0.0
  0
VERTEX
  8
Group086
 10
265.53842396246256
 20
-29.603580000000022
 30
0.0
  0
SEQEND
  8
Group086
  0
POLYLINE
  8
Group086
 62
0
 70
0
 66
1
 10
0.0
 20
0.0
 30
0.0
  0
VERTEX
  8
Group086
 10
264.78842396246256
 20
-28.853580000000022
 30
0.0
  0
VERTEX
  8
Group086
 10
264.78842396246256
 20
-23.353580000000022
 30
0.0
  0
SEQEND
  8
Group086
  0
POLYLINE
  8
Group086
 62
0
 70
0
 66
1
 10
0.0
 20
0.0
 30
0.0
  0
VERTEX
  8
Group086
 10
265.53842396246256
 20
-22.603580000000022
 30
0.0
  0
VERTEX
  8
Group086
 10
279.53842396246256
 20
-22.603580000000022
 30
0.0
  0
SEQEND
  8
Group086
  0
ARC
  8
Group087
 62
0
 10
265.53842396246256
 20
-47.22958
 30
0.0
 40
0.75
 50
90.0
 51
-180.0
  0
ARC
  8
Group087
 62
0
 10
265.53842396246256
 20
-52.72958
 30
0.0
 40
0.75
 50
-180.0
 51
-90.0
  0
ARC
  8
Group087
 62
0
 10
279.53842396246256
 20
-47.22958
 30
0.0
 40
0.75
 50
-0.0
 51
90.0
  0
ARC
  8
Group087
 62
0
 10
279.53842396246256
 20
-52.72958
 30
0.0
 40
0.75
 50
-90.0
 51
-0.0
  0
POLYLINE
  8
Group087
 62
0
 70
0
 66
1
 10
0.0
 20
0.0
 30
0.0
  0
VERTEX
  8
Group087
 10
280.28842396246256
 20
-47.22958
 30
0.0
  0
VERTEX
  8
Group087
 10
280.28842396246256
 20
-52.72958
 30
0.0
  0
SEQEND
  8
Group087
  0
POLYLINE
  8
Group087
 62
0
 70
0
 66
1
 10
0.0
 20
0.0
 30
0.0
  0
VERTEX
  8
Group087
 10
279.53842396246256
 20
-53.47958
 30
0.0
  0
VERTEX
  8
Group087
 10
265.53842396246256
 20
-53.479580000000006
 30
0.0
  0
SEQEND
  8
Group087
  0
POLYLINE
  8
Group087
 62
0
 70
0
 66
1
 10
0.0
 20
0.0
 30
0.0
  0
VERTEX
  8
Group087
 10
264.78842396246256
 20
-52.72958
 30
0.0
  0
VERTEX
  8
Group087
 10
264.78842396246256
 20
-47.22958
 30
0.0
  0
SEQEND
  8
Group087
  0
POLYLINE
  8
Group087
 62
0
 70
0
 66
1
 10
0.0
 20
0.0
 30
0.0
  0
VERTEX
  8
Group087
 10
265.53842396246256
 20
-46.47958
 30
0.0
  0
VERTEX
  8
Group087
 10
279.53842396246256
 20
-46.47957999999999
 30
0.0
  0
SEQEND
  8
Group087
  0
ARC
  8
Group046
 62
0
 10
245.65419120621303
 20
-41.29626
 30
0.0
 40
0.75
 50
90.0
 51
-180.0
  0
ARC
  8
Group046
 62
0
 10
258.154191206213
 20
-41.296260000000004
 30
0.0
 40
0.75
 50
-0.0
 51
90.0
  0
ARC
  8
Group046
 62
0
 10
245.65419120621303
 20
-53.79626
 30
0.0
 40
0.75
 50
-180.0
 51
-90.0
  0
ARC
  8
Group046
 62
0
 10
258.1541912062131
 20
-53.79626
 30
0.0
 40
0.75
 50
-90.0
 51
-0.0
  0
POLYLINE
  8
Group046
 62
0
 70
0
 66
1
 10
0.0
 20
0.0
 30
0.0
  0
VERTEX
  8
Group046
 10
258.9041912062131
 20
-53.79626
 30
0.0
  0
VERTEX
  8
Group046
 10
258.9041912062131
 20
-41.29626
 30
0.0
  0
SEQEND
  8
Group046
  0
POLYLINE
  8
Group046
 62
0
 70
0
 66
1
 10
0.0
 20
0.0
 30
0.0
  0
VERTEX
  8
Group046
 10
258.154191206213
 20
-40.546260000000004
 30
0.0
  0
VERTEX
  8
Group046
 10
245.654191206213
 20
-40.546260000000004
 30
0.0
  0
SEQEND
  8
Group046
  0
POLYLINE
  8
Group046
 62
0
 70
0
 66
1
 10
0.0
 20
0.0
 30
0.0
  0
VERTEX
  8
Group046
 10
244.90419120621303
 20
-41.29626
 30
0.0
  0
VERTEX
  8
Group046
 10
244.90419120621303
 20
-53.79626
 30
0.0
  0
SEQEND
  8
Group046
  0
POLYLINE
  8
Group046
 62
0
 70
0
 66
1
 10
0.0
 20
0.0
 30
0.0
  0
VERTEX
  8
Group046
 10
245.65419120621303
 20
-54.54626
 30
0.0
  0
VERTEX
  8
Group046
 10
258.154191206213
 20
-54.54626
 30
0.0
  0
SEQEND
  8
Group046
  0
ARC
  8
Group065
 62
0
 10
5.65243697111884
 20
-79.31497999999999
 30
0.0
 40
0.75
 50
90.0
 51
-180.0
  0
ARC
  8
Group065
 62
0
 10
18.152436971118835
 20
-79.31498
 30
0.0
 40
0.75
 50
-0.0
 51
90.0
  0
ARC
  8
Group065
 62
0
 10
5.65243697111884
 20
-91.81498
 30
0.0
 40
0.75
 50
-180.0
 51
-90.0
  0
ARC
  8
Group065
 62
0
 10
18.152436971118842
 20
-91.81498
 30
0.0
 40
0.75
 50
-90.0
 51
-0.0
  0
POLYLINE
  8
Group065
 62
0
 70
0
 66
1
 10
0.0
 20
0.0
 30
0.0
  0
VERTEX
  8
Group065
 10
18.902436971118842
 20
-91.81498
 30
0.0
  0
VERTEX
  8
Group065
 10
18.902436971118842
 20
-79.31498
 30
0.0
  0
SEQEND
  8
Group065
  0
POLYLINE
  8
Group065
 62
0
 70
0
 66
1
 10
0.0
 20
0.0
 30
0.0
  0
VERTEX
  8
Group065
 10
18.152436971118835
 20
-78.56498
 30
0.0
  0
VERTEX
  8
Group065
 10
5.6524369711188385
 20
-78.56498
 30
0.0
  0
SEQEND
  8
Group065
  0
POLYLINE
  8
Group065
 62
0
 70
0
 66
1
 10
0.0
 20
0.0
 30
0.0
  0
VERTEX
  8
Group065
 10
4.90243697111884
 20
-79.31497999999999
 30
0.0
  0
VERTEX
  8
Group065
 10
4.90243697111884
 20
-91.81497999999999
 30
0.0
  0
SEQEND
  8
Group065
  0
POLYLINE
  8
Group065
 62
0
 70
0
 66
1
 10
0.0
 20
0.0
 30
0.0
  0
VERTEX
  8
Group065
 10
5.65243697111884
 20
-92.56498
 30
0.0
  0
VERTEX
  8
Group065
 10
18.152436971118835
 20
-92.56498
 30
0.0
  0
SEQEND
  8
Group065
  0
ARC
  8
Group066
 62
0
 10
27.039209724132355
 20
-79.31497999999999
 30
0.0
 40
0.75
 50
90.0
 51
-180.0
  0
ARC
  8
Group066
 62
0
 10
39.53920972413235
 20
-79.31498
 30
0.0
 40
0.75
 50
-0.0
 51
90.0
  0
ARC
  8
Group066
 62
0
 10
27.039209724132355
 20
-91.81498
 30
0.0
 40
0.75
 50
-180.0
 51
-90.0
  0
ARC
  8
Group066
 62
0
 10
39.539209724132355
 20
-91.81498
 30
0.0
 40
0.75
 50
-90.0
 51
-0.0
  0
POLYLINE
  8
Group066
 62
0
 70
0
 66
1
 10
0.0
 20
0.0
 30
0.0
  0
VERTEX
  8
Group066
 10
40.289209724132355
 20
-91.81498
 30
0.0
  0
VERTEX
  8
Group066
 10
40.289209724132355
 20
-79.31498
 30
0.0
  0
SEQEND
  8
Group066
  0
POLYLINE
  8
Group066
 62
0
 70
0
 66
1
 10
0.0
 20
0.0
 30
0.0
  0
VERTEX
  8
Group066
 10
39.53920972413235
 20
-78.56498
 30
0.0
  0
VERTEX
  8
Group066
 10
27.039209724132352
 20
-78.56498
 30
0.0
  0
SEQEND
  8
Group066
  0
POLYLINE
  8
Group066
 62
0
 70
0
 66
1
 10
0.0
 20
0.0
 30
0.0
  0
VERTEX
  8
Group066
 10
26.289209724132355
 20
-79.31497999999999
 30
0.0
  0
VERTEX
  8
Group066
 10
26.289209724132355
 20
-91.81497999999999
 30
0.0
  0
SEQEND
  8
Group066
  0
POLYLINE
  8
Group066
 62
0
 70
0
 66
1
 10
0.0
 20
0.0
 30
0.0
  0
VERTEX
  8
Group066
 10
27.039209724132355
 20
-92.56498
 30
0.0
  0
VERTEX
  8
Group066
 10
39.53920972413235
 20
-92.56498
 30
0.0
  0
SEQEND
  8
Group066
  0
ARC
  8
Group067
 62
0
 10
48.42598247714586
 20
-79.31497999999999
 30
0.0
 40
0.75
 50
90.0
 51
-180.0
  0
ARC
  8
Group067
 62
0
 10
60.92598247714585
 20
-79.31498
 30
0.0
 40
0.75
 50
-0.0
 51
90.0
  0
ARC
  8
Group067
 62
0
 10
48.42598247714586
 20
-91.81498
 30
0.0
 40
0.75
 50
-180.0
 51
-90.0
  0
ARC
  8
Group067
 62
0
 10
60.92598247714586
 20
-91.81498
 30
0.0
 40
0.75
 50
-90.0
 51
-0.0
  0
POLYLINE
  8
Group067
 62
0
 70
0
 66
1
 10
0.0
 20
0.0
 30
0.0
  0
VERTEX
  8
Group067
 10
61.67598247714586
 20
-91.81498
 30
0.0
  0
VERTEX
  8
Group067
 10
61.67598247714586
 20
-79.31498
 30
0.0
  0
SEQEND
  8
Group067
  0
POLYLINE
  8
Group067
 62
0
 70
0
 66
1
 10
0.0
 20
0.0
 30
0.0
  0
VERTEX
  8
Group067
 10
60.92598247714585
 20
-78.56498
 30
0.0
  0
VERTEX
  8
Group067
 10
48.42598247714585
 20
-78.56498
 30
0.0
  0
SEQEND
  8
Group067
  0
POLYLINE
  8
Group067
 62
0
 70
0
 66
1
 10
0.0
 20
0.0
 30
0.0
  0
VERTEX
  8
Group067
 10
47.67598247714586
 20
-79.31497999999999
 30
0.0
  0
VERTEX
  8
Group067
 10
47.67598247714586
 20
-91.81497999999999
 30
0.0
  0
SEQEND
  8
Group067
  0
POLYLINE
  8
Group067
 62
0
 70
0
 66
1
 10
0.0
 20
0.0
 30
0.0
  0
VERTEX
  8
Group067
 10
48.42598247714586
 20
-92.56498
 30
0.0
  0
VERTEX
  8
Group067
 10
60.92598247714585
 20
-92.56498
 30
0.0
  0
SEQEND
  8
Group067
  0
ARC
  8
Group068
 62
0
 10
119.71099165925085
 20
-79.31497999999999
 30
0.0
 40
0.75
 50
90.0
 51
-180.0
  0
ARC
  8
Group068
 62
0
 10
132.21099165925085
 20
-79.31498
 30
0.0
 40
0.75
 50
-0.0
 51
90.0
  0
ARC
  8
Group068
 62
0
 10
119.71099165925085
 20
-91.81498
 30
0.0
 40
0.75
 50
-180.0
 51
-90.0
  0
ARC
  8
Group068
 62
0
 10
132.21099165925085
 20
-91.81498
 30
0.0
 40
0.75
 50
-90.0
 51
-0.0
  0
POLYLINE
  8
Group068
 62
0
 70
0
 66
1
 10
0.0
 20
0.0
 30
0.0
  0
VERTEX
  8
Group068
 10
132.96099165925085
 20
-91.81498
 30
0.0
  0
VERTEX
  8
Group068
 10
132.96099165925085
 20
-79.31498
 30
0.0
  0
SEQEND
  8
Group068
  0
POLYLINE
  8
Group068
 62
0
 70
0
 66
1
 10
0.0
 20
0.0
 30
0.0
  0
VERTEX
  8
Group068
 10
132.21099165925085
 20
-78.56498
 30
0.0
  0
VERTEX
  8
Group068
 10
119.71099165925085
 20
-78.56498
 30
0.0
  0
SEQEND
  8
Group068
  0
POLYLINE
  8
Group068
 62
0
 70
0
 66
1
 10
0.0
 20
0.0
 30
0.0
  0
VERTEX
  8
Group068
 10
118.96099165925085
 20
-79.31497999999999
 30
0.0
  0
VERTEX
  8
Group068
 10
118.96099165925085
 20
-91.81497999999999
 30
0.0
  0
SEQEND
  8
Group068
  0
POLYLINE
  8
Group068
 62
0
 70
0
 66
1
 10
0.0
 20
0.0
 30
0.0
  0
VERTEX
  8
Group068
 10
119.71099165925085
 20
-92.56498
 30
0.0
  0
VERTEX
  8
Group068
 10
132.21099165925085
 20
-92.56498
 30
0.0
  0
SEQEND
  8
Group068
  0
ARC
  8
Group089
 62
0
 10
73.17299165925084
 20
-91.81497999999999
 30
0.0
 40
0.75
 50
-180.0
 51
-90.0
  0
ARC
  8
Group089
 62
0
 10
78.67299165925084
 20
-91.81498000000002
 30
0.0
 40
0.75
 50
-90.0
 51
-0.0
  0
ARC
  8
Group089
 62
0
 10
73.17299165925084
 20
-77.81497999999998
 30
0.0
 40
0.75
 50
90.0
 51
-180.0
  0
ARC
  8
Group089
 62
0
 10
78.67299165925084
 20
-77.81498
 30
0.0
 40
0.75
 50
-0.0
 51
90.0
  0
POLYLINE
  8
Group089
 62
0
 70
0
 66
1
 10
0.0
 20
0.0
 30
0.0
  0
VERTEX
  8
Group089
 10
73.17299165925084
 20
-77.06497999999998
 30
0.0
  0
VERTEX
  8
Group089
 10
78.67299165925084
 20
-77.06497999999999
 30
0.0
  0
SEQEND
  8
Group089
  0
POLYLINE
  8
Group089
 62
0
 70
0
 66
1
 10
0.0
 20
0.0
 30
0.0
  0
VERTEX
  8
Group089
 10
79.42299165925084
 20
-77.81498
 30
0.0
  0
VERTEX
  8
Group089
 10
79.42299165925084
 20
-91.81498000000003
 30
0.0
  0
SEQEND
  8
Group089
  0
POLYLINE
  8
Group089
 62
0
 70
0
 66
1
 10
0.0
 20
0.0
 30
0.0
  0
VERTEX
  8
Group089
 10
78.67299165925084
 20
-92.56498000000002
 30
0.0
  0
VERTEX
  8
Group089
 10
73.17299165925084
 20
-92.56498
 30
0.0
  0
SEQEND
  8
Group089
  0
POLYLINE
  8
Group089
 62
0
 70
0
 66
1
 10
0.0
 20
0.0
 30
0.0
  0
VERTEX
  8
Group089
 10
72.42299165925084
 20
-91.81497999999999
 30
0.0
  0
VERTEX
  8
Group089
 10
72.42299165925084
 20
-77.81497999999998
 30
0.0
  0
SEQEND
  8
Group089
  0
ARC
  8
Group088
 62
0
 10
173.24899165925083
 20
-91.81497999999999
 30
0.0
 40
0.75
 50
-180.0
 51
-90.0
  0
ARC
  8
Group088
 62
0
 10
178.74899165925083
 20
-91.81498000000002
 30
0.0
 40
0.75
 50
-90.0
 51
-0.0
  0
ARC
  8
Group088
 62
0
 10
173.24899165925083
 20
-77.81497999999998
 30
0.0
 40
0.75
 50
90.0
 51
-180.0
  0
ARC
  8
Group088
 62
0
 10
178.74899165925083
 20
-77.81498
 30
0.0
 40
0.75
 50
-0.0
 51
90.0
  0
POLYLINE
  8
Group088
 62
0
 70
0
 66
1
 10
0.0
 20
0.0
 30
0.0
  0
VERTEX
  8
Group088
 10
173.24899165925083
 20
-77.06497999999998
 30
0.0
  0
VERTEX
  8
Group088
 10
178.74899165925083
 20
-77.06497999999999
 30
0.0
  0
SEQEND
  8
Group088
  0
POLYLINE
  8
Group088
 62
0
 70
0
 66
1
 10
0.0
 20
0.0
 30
0.0
  0
VERTEX
  8
Group088
 10
179.49899165925083
 20
-77.81498
 30
0.0
  0
VERTEX
  8
Group088
 10
179.49899165925083
 20
-91.81498000000003
 30
0.0
  0
SEQEND
  8
Group088
  0
POLYLINE
  8
Group088
 62
0
 70
0
 66
1
 10
0.0
 20
0.0
 30
0.0
  0
VERTEX
  8
Group088
 10
178.74899165925083
 20
-92.56498000000002
 30
0.0
  0
VERTEX
  8
Group088
 10
173.24899165925083
 20
-92.56498
 30
0.0
  0
SEQEND
  8
Group088
  0
POLYLINE
  8
Group088
 62
0
 70
0
 66
1
 10
0.0
 20
0.0
 30
0.0
  0
VERTEX
  8
Group088
 10
172.49899165925083
 20
-91.81497999999999
 30
0.0
  0
VERTEX
  8
Group088
 10
172.49899165925083
 20
-77.81497999999998
 30
0.0
  0
SEQEND
  8
Group088
  0
ARC
  8
Group069
 62
0
 10
191.04934077340022
 20
-79.31497999999999
 30
0.0
 40
0.75
 50
90.0
 51
-180.0
  0
ARC
  8
Group069
 62
0
 10
203.54934077340022
 20
-79.31498
 30
0.0
 40
0.75
 50
-0.0
 51
90.0
  0
ARC
  8
Group069
 62
0
 10
191.04934077340022
 20
-91.81498
 30
0.0
 40
0.75
 50
-180.0
 51
-90.0
  0
ARC
  8
Group069
 62
0
 10
203.54934077340022
 20
-91.81498
 30
0.0
 40
0.75
 50
-90.0
 51
-0.0
  0
POLYLINE
  8
Group069
 62
0
 70
0
 66
1
 10
0.0
 20
0.0
 30
0.0
  0
VERTEX
  8
Group069
 10
204.29934077340022
 20
-91.81498
 30
0.0
  0
VERTEX
  8
Group069
 10
204.29934077340022
 20
-79.31498
 30
0.0
  0
SEQEND
  8
Group069
  0
POLYLINE
  8
Group069
 62
0
 70
0
 66
1
 10
0.0
 20
0.0
 30
0.0
  0
VERTEX
  8
Group069
 10
203.54934077340022
 20
-78.56498
 30
0.0
  0
VERTEX
  8
Group069
 10
191.04934077340022
 20
-78.56498
 30
0.0
  0
SEQEND
  8
Group069
  0
POLYLINE
  8
Group069
 62
0
 70
0
 66
1
 10
0.0
 20
0.0
 30
0.0
  0
VERTEX
  8
Group069
 10
190.29934077340022
 20
-79.31497999999999
 30
0.0
  0
VERTEX
  8
Group069
 10
190.29934077340022
 20
-91.81497999999999
 30
0.0
  0
SEQEND
  8
Group069
  0
POLYLINE
  8
Group069
 62
0
 70
0
 66
1
 10
0.0
 20
0.0
 30
0.0
  0
VERTEX
  8
Group069
 10
191.04934077340022
 20
-92.56498
 30
0.0
  0
VERTEX
  8
Group069
 10
203.54934077340022
 20
-92.56498
 30
0.0
  0
SEQEND
  8
Group069
  0
ARC
  8
Group070
 62
0
 10
214.86181043604887
 20
-79.31497999999999
 30
0.0
 40
0.75
 50
90.0
 51
-180.0
  0
ARC
  8
Group070
 62
0
 10
227.36181043604887
 20
-79.31498
 30
0.0
 40
0.75
 50
-0.0
 51
90.0
  0
ARC
  8
Group070
 62
0
 10
214.86181043604887
 20
-91.81498
 30
0.0
 40
0.75
 50
-180.0
 51
-90.0
  0
ARC
  8
Group070
 62
0
 10
227.36181043604887
 20
-91.81498
 30
0.0
 40
0.75
 50
-90.0
 51
-0.0
  0
POLYLINE
  8
Group070
 62
0
 70
0
 66
1
 10
0.0
 20
0.0
 30
0.0
  0
VERTEX
  8
Group070
 10
228.11181043604887
 20
-91.81498
 30
0.0
  0
VERTEX
  8
Group070
 10
228.11181043604887
 20
-79.31498
 30
0.0
  0
SEQEND
  8
Group070
  0
POLYLINE
  8
Group070
 62
0
 70
0
 66
1
 10
0.0
 20
0.0
 30
0.0
  0
VERTEX
  8
Group070
 10
227.36181043604887
 20
-78.56498
 30
0.0
  0
VERTEX
  8
Group070
 10
214.86181043604887
 20
-78.56498
 30
0.0
  0
SEQEND
  8
Group070
  0
POLYLINE
  8
Group070
 62
0
 70
0
 66
1
 10
0.0
 20
0.0
 30
0.0
  0
VERTEX
  8
Group070
 10
214.11181043604887
 20
-79.31497999999999
 30
0.0
  0
VERTEX
  8
Group070
 10
214.11181043604887
 20
-91.81497999999999
 30
0.0
  0
SEQEND
  8
Group070
  0
POLYLINE
  8
Group070
 62
0
 70
0
 66
1
 10
0.0
 20
0.0
 30
0.0
  0
VERTEX
  8
Group070
 10
214.86181043604887
 20
-92.56498
 30
0.0
  0
VERTEX
  8
Group070
 10
227.36181043604887
 20
-92.56498
 30
0.0
  0
SEQEND
  8
Group070
  0
ARC
  8
Group071
 62
0
 10
238.67428009869752
 20
-79.31497999999999
 30
0.0
 40
0.75
 50
90.0
 51
-180.0
  0
ARC
  8
Group071
 62
0
 10
251.17428009869752
 20
-79.31498
 30
0.0
 40
0.75
 50
-0.0
 51
90.0
  0
ARC
  8
Group071
 62
0
 10
238.67428009869752
 20
-91.81498
 30
0.0
 40
0.75
 50
-180.0
 51
-90.0
  0
ARC
  8
Group071
 62
0
 10
251.17428009869752
 20
-91.81498
 30
0.0
 40
0.75
 50
-90.0
 51
-0.0
  0
POLYLINE
  8
Group071
 62
0
 70
0
 66
1
 10
0.0
 20
0.0
 30
0.0
  0
VERTEX
  8
Group071
 10
251.92428009869752
 20
-91.81498
 30
0.0
  0
VERTEX
  8
Group071
 10
251.92428009869752
 20
-79.31498
 30
0.0
  0
SEQEND
  8
Group071
  0
POLYLINE
  8
Group071
 62
0
 70
0
 66
1
 10
0.0
 20
0.0
 30
0.0
  0
VERTEX
  8
Group071
 10
251.17428009869752
 20
-78.56498
 30
0.0
  0
VERTEX
  8
Group071
 10
238.67428009869752
 20
-78.56498
 30
0.0
  0
SEQEND
  8
Group071
  0
POLYLINE
  8
Group071
 62
0
 70
0
 66
1
 10
0.0
 20
0.0
 30
0.0
  0
VERTEX
  8
Group071
 10
237.92428009869752
 20
-79.31497999999999
 30
0.0
  0
VERTEX
  8
Group071
 10
237.92428009869752
 20
-91.81497999999999
 30
0.0
  0
SEQEND
  8
Group071
  0
POLYLINE
  8
Group071
 62
0
 70
0
 66
1
 10
0.0
 20
0.0
 30
0.0
  0
VERTEX
  8
Group071
 10
238.67428009869752
 20
-92.56498
 30
0.0
  0
VERTEX
  8
Group071
 10
251.17428009869752
 20
-92.56498
 30
0.0
  0
SEQEND
  8
Group071
  0
ARC
  8
Group072
 62
0
 10
260.1118527869914
 20
-79.31497999999999
 30
0.0
 40
0.75
 50
90.0
 51
-180.0
  0
ARC
  8
Group072
 62
0
 10
272.6118527869914
 20
-79.31498
 30
0.0
 40
0.75
 50
-0.0
 51
90.0
  0
ARC
  8
Group072
 62
0
 10
260.1118527869914
 20
-91.81498
 30
0.0
 40
0.75
 50
-180.0
 51
-90.0
  0
ARC
  8
Group072
 62
0
 10
272.6118527869914
 20
-91.81498
 30
0.0
 40
0.75
 50
-90.0
 51
-0.0
  0
POLYLINE
  8
Group072
 62
0
 70
0
 66
1
 10
0.0
 20
0.0
 30
0.0
  0
VERTEX
  8
Group072
 10
273.3618527869914
 20
-91.81498
 30
0.0
  0
VERTEX
  8
Group072
 10
273.3618527869914
 20
-79.31498
 30
0.0
  0
SEQEND
  8
Group072
  0
POLYLINE
  8
Group072
 62
0
 70
0
 66
1
 10
0.0
 20
0.0
 30
0.0
  0
VERTEX
  8
Group072
 10
272.6118527869914
 20
-78.56498
 30
0.0
  0
VERTEX
  8
Group072
 10
260.1118527869914
 20
-78.56498
 30
0.0
  0
SEQEND
  8
Group072
  0
POLYLINE
  8
Group072
 62
0
 70
0
 66
1
 10
0.0
 20
0.0
 30
0.0
  0
VERTEX
  8
Group072
 10
259.3618527869914
 20
-79.31497999999999
 30
0.0
  0
VERTEX
  8
Group072
 10
259.3618527869914
 20
-91.81497999999999
 30
0.0
  0
SEQEND
  8
Group072
  0
POLYLINE
  8
Group072
 62
0
 70
0
 66
1
 10
0.0
 20
0.0
 30
0.0
  0
VERTEX
  8
Group072
 10
260.1118527869914
 20
-92.56498
 30
0.0
  0
VERTEX
  8
Group072
 10
272.6118527869914
 20
-92.56498
 30
0.0
  0
SEQEND
  8
Group072
  0
ARC
  8
Group073
 62
0
 10
279.17198850416634
 20
-79.31497999999999
 30
0.0
 40
0.75
 50
90.0
 51
-180.0
  0
ARC
  8
Group073
 62
0
 10
291.67198850416634
 20
-79.31498
 30
0.0
 40
0.75
 50
-0.0
 51
90.0
  0
ARC
  8
Group073
 62
0
 10
279.17198850416634
 20
-91.81498
 30
0.0
 40
0.75
 50
-180.0
 51
-90.0
  0
ARC
  8
Group073
 62
0
 10
291.67198850416634
 20
-91.81498
 30
0.0
 40
0.75
 50
-90.0
 51
-0.0
  0
POLYLINE
  8
Group073
 62
0
 70
0
 66
1
 10
0.0
 20
0.0
 30
0.0
  0
VERTEX
  8
Group073
 10
292.42198850416634
 20
-91.81498
 30
0.0
  0
VERTEX
  8
Group073
 10
292.42198850416634
 20
-79.31498
 30
0.0
  0
SEQEND
  8
Group073
  0
POLYLINE
  8
Group073
 62
0
 70
0
 66
1
 10
0.0
 20
0.0
 30
0.0
  0
VERTEX
  8
Group073
 10
291.67198850416634
 20
-78.56498
 30
0.0
  0
VERTEX
  8
Group073
 10
279.17198850416634
 20
-78.56498
 30
0.0
  0
SEQEND
  8
Group073
  0
POLYLINE
  8
Group073
 62
0
 70
0
 66
1
 10
0.0
 20
0.0
 30
0.0
  0
VERTEX
  8
Group073
 10
278.42198850416634
 20
-79.31497999999999
 30
0.0
  0
VERTEX
  8
Group073
 10
278.42198850416634
 20
-91.81497999999999
 30
0.0
  0
SEQEND
  8
Group073
  0
POLYLINE
  8
Group073
 62
0
 70
0
 66
1
 10
0.0
 20
0.0
 30
0.0
  0
VERTEX
  8
Group073
 10
279.17198850416634
 20
-92.56498
 30
0.0
  0
VERTEX
  8
Group073
 10
291.67198850416634
 20
-92.56498
 30
0.0
  0
SEQEND
  8
Group073
  0
ARC
  8
Group074
 62
0
 10
298.2295842245773
 20
-79.31497999999999
 30
0.0
 40
0.75
 50
90.0
 51
-180.0
  0
ARC
  8
Group074
 62
0
 10
310.7295842245773
 20
-79.31498
 30
0.0
 40
0.75
 50
-0.0
 51
90.0
  0
ARC
  8
Group074
 62
0
 10
298.2295842245773
 20
-91.81498
 30
0.0
 40
0.75
 50
-180.0
 51
-90.0
  0
ARC
  8
Group074
 62
0
 10
310.7295842245773
 20
-91.81498
 30
0.0
 40
0.75
 50
-90.0
 51
-0.0
  0
POLYLINE
  8
Group074
 62
0
 70
0
 66
1
 10
0.0
 20
0.0
 30
0.0
  0
VERTEX
  8
Group074
 10
311.4795842245773
 20
-91.81498
 30
0.0
  0
VERTEX
  8
Group074
 10
311.4795842245773
 20
-79.31498
 30
0.0
  0
SEQEND
  8
Group074
  0
POLYLINE
  8
Group074
 62
0
 70
0
 66
1
 10
0.0
 20
0.0
 30
0.0
  0
VERTEX
  8
Group074
 10
310.7295842245773
 20
-78.56498
 30
0.0
  0
VERTEX
  8
Group074
 10
298.2295842245773
 20
-78.56498
 30
0.0
  0
SEQEND
  8
Group074
  0
POLYLINE
  8
Group074
 62
0
 70
0
 66
1
 10
0.0
 20
0.0
 30
0.0
  0
VERTEX
  8
Group074
 10
297.4795842245773
 20
-79.31497999999999
 30
0.0
  0
VERTEX
  8
Group074
 10
297.4795842245773
 20
-91.81497999999999
 30
0.0
  0
SEQEND
  8
Group074
  0
POLYLINE
  8
Group074
 62
0
 70
0
 66
1
 10
0.0
 20
0.0
 30
0.0
  0
VERTEX
  8
Group074
 10
298.2295842245773
 20
-92.56498
 30
0.0
  0
VERTEX
  8
Group074
 10
310.7295842245773
 20
-92.56498
 30
0.0
  0
SEQEND
  8
Group074
  0
ARC
  8
Group052
 62
0
 10
46.04854550602702
 20
-60.30562
 30
0.0
 40
0.75
 50
90.0
 51
-180.0
  0
ARC
  8
Group052
 62
0
 10
58.54854550602701
 20
-60.305620000000005
 30
0.0
 40
0.75
 50
-0.0
 51
90.0
  0
ARC
  8
Group052
 62
0
 10
46.04854550602702
 20
-72.80562
 30
0.0
 40
0.75
 50
-180.0
 51
-90.0
  0
ARC
  8
Group052
 62
0
 10
58.54854550602702
 20
-72.80562
 30
0.0
 40
0.75
 50
-90.0
 51
-0.0
  0
POLYLINE
  8
Group052
 62
0
 70
0
 66
1
 10
0.0
 20
0.0
 30
0.0
  0
VERTEX
  8
Group052
 10
59.29854550602702
 20
-72.80562
 30
0.0
  0
VERTEX
  8
Group052
 10
59.29854550602702
 20
-60.305620000000005
 30
0.0
  0
SEQEND
  8
Group052
  0
POLYLINE
  8
Group052
 62
0
 70
0
 66
1
 10
0.0
 20
0.0
 30
0.0
  0
VERTEX
  8
Group052
 10
58.54854550602701
 20
-59.555620000000005
 30
0.0
  0
VERTEX
  8
Group052
 10
46.04854550602701
 20
-59.555620000000005
 30
0.0
  0
SEQEND
  8
Group052
  0
POLYLINE
  8
Group052
 62
0
 70
0
 66
1
 10
0.0
 20
0.0
 30
0.0
  0
VERTEX
  8
Group052
 10
45.29854550602702
 20
-60.30562
 30
0.0
  0
VERTEX
  8
Group052
 10
45.29854550602702
 20
-72.80562
 30
0.0
  0
SEQEND
  8
Group052
  0
POLYLINE
  8
Group052
 62
0
 70
0
 66
1
 10
0.0
 20
0.0
 30
0.0
  0
VERTEX
  8
Group052
 10
46.04854550602702
 20
-73.55562
 30
0.0
  0
VERTEX
  8
Group052
 10
58.54854550602701
 20
-73.55562
 30
0.0
  0
SEQEND
  8
Group052
  0
ARC
  8
Group053
 62
0
 10
65.05788128792169
 20
-60.30562
 30
0.0
 40
0.75
 50
90.0
 51
-180.0
  0
ARC
  8
Group053
 62
0
 10
77.55788128792167
 20
-60.305620000000005
 30
0.0
 40
0.75
 50
-0.0
 51
90.0
  0
ARC
  8
Group053
 62
0
 10
65.05788128792169
 20
-72.80562
 30
0.0
 40
0.75
 50
-180.0
 51
-90.0
  0
ARC
  8
Group053
 62
0
 10
77.55788128792169
 20
-72.80562
 30
0.0
 40
0.75
 50
-90.0
 51
-0.0
  0
POLYLINE
  8
Group053
 62
0
 70
0
 66
1
 10
0.0
 20
0.0
 30
0.0
  0
VERTEX
  8
Group053
 10
78.30788128792169
 20
-72.80562
 30
0.0
  0
VERTEX
  8
Group053
 10
78.30788128792169
 20
-60.305620000000005
 30
0.0
  0
SEQEND
  8
Group053
  0
POLYLINE
  8
Group053
 62
0
 70
0
 66
1
 10
0.0
 20
0.0
 30
0.0
  0
VERTEX
  8
Group053
 10
77.55788128792167
 20
-59.555620000000005
 30
0.0
  0
VERTEX
  8
Group053
 10
65.05788128792167
 20
-59.555620000000005
 30
0.0
  0
SEQEND
  8
Group053
  0
POLYLINE
  8
Group053
 62
0
 70
0
 66
1
 10
0.0
 20
0.0
 30
0.0
  0
VERTEX
  8
Group053
 10
64.30788128792169
 20
-60.30562
 30
0.0
  0
VERTEX
  8
Group053
 10
64.30788128792169
 20
-72.80562
 30
0.0
  0
SEQEND
  8
Group053
  0
POLYLINE
  8
Group053
 62
0
 70
0
 66
1
 10
0.0
 20
0.0
 30
0.0
  0
VERTEX
  8
Group053
 10
65.05788128792169
 20
-73.55562
 30
0.0
  0
VERTEX
  8
Group053
 10
77.55788128792167
 20
-73.55562
 30
0.0
  0
SEQEND
  8
Group053
  0
ARC
  8
Group054
 62
0
 10
84.06975706658038
 20
-60.30562
 30
0.0
 40
0.75
 50
90.0
 51
-180.0
  0
ARC
  8
Group054
 62
0
 10
96.56975706658037
 20
-60.305620000000005
 30
0.0
 40
0.75
 50
-0.0
 51
90.0
  0
ARC
  8
Group054
 62
0
 10
84.06975706658038
 20
-72.80562
 30
0.0
 40
0.75
 50
-180.0
 51
-90.0
  0
ARC
  8
Group054
 62
0
 10
96.56975706658038
 20
-72.80562
 30
0.0
 40
0.75
 50
-90.0
 51
-0.0
  0
POLYLINE
  8
Group054
 62
0
 70
0
 66
1
 10
0.0
 20
0.0
 30
0.0
  0
VERTEX
  8
Group054
 10
97.31975706658038
 20
-72.80562
 30
0.0
  0
VERTEX
  8
Group054
 10
97.31975706658038
 20
-60.305620000000005
 30
0.0
  0
SEQEND
  8
Group054
  0
POLYLINE
  8
Group054
 62
0
 70
0
 66
1
 10
0.0
 20
0.0
 30
0.0
  0
VERTEX
  8
Group054
 10
96.56975706658037
 20
-59.555620000000005
 30
0.0
  0
VERTEX
  8
Group054
 10
84.06975706658037
 20
-59.555620000000005
 30
0.0
  0
SEQEND
  8
Group054
  0
POLYLINE
  8
Group054
 62
0
 70
0
 66
1
 10
0.0
 20
0.0
 30
0.0
  0
VERTEX
  8
Group054
 10
83.31975706658038
 20
-60.30562
 30
0.0
  0
VERTEX
  8
Group054
 10
83.31975706658038
 20
-72.80562
 30
0.0
  0
SEQEND
  8
Group054
  0
POLYLINE
  8
Group054
 62
0
 70
0
 66
1
 10
0.0
 20
0.0
 30
0.0
  0
VERTEX
  8
Group054
 10
84.06975706658038
 20
-73.55562
 30
0.0
  0
VERTEX
  8
Group054
 10
96.56975706658037
 20
-73.55562
 30
0.0
  0
SEQEND
  8
Group054
  0
ARC
  8
Group055
 62
0
 10
103.07909284847504
 20
-60.30562
 30
0.0
 40
0.75
 50
90.0
 51
-180.0
  0
ARC
  8
Group055
 62
0
 10
115.57909284847503
 20
-60.305620000000005
 30
0.0
 40
0.75
 50
-0.0
 51
90.0
  0
ARC
  8
Group055
 62
0
 10
103.07909284847504
 20
-72.80562
 30
0.0
 40
0.75
 50
-180.0
 51
-90.0
  0
ARC
  8
Group055
 62
0
 10
115.57909284847504
 20
-72.80562
 30
0.0
 40
0.75
 50
-90.0
 51
-0.0
  0
POLYLINE
  8
Group055
 62
0
 70
0
 66
1
 10
0.0
 20
0.0
 30
0.0
  0
VERTEX
  8
Group055
 10
116.32909284847504
 20
-72.80562
 30
0.0
  0
VERTEX
  8
Group055
 10
116.32909284847504
 20
-60.305620000000005
 30
0.0
  0
SEQEND
  8
Group055
  0
POLYLINE
  8
Group055
 62
0
 70
0
 66
1
 10
0.0
 20
0.0
 30
0.0
  0
VERTEX
  8
Group055
 10
115.57909284847503
 20
-59.555620000000005
 30
0.0
  0
VERTEX
  8
Group055
 10
103.07909284847503
 20
-59.555620000000005
 30
0.0
  0
SEQEND
  8
Group055
  0
POLYLINE
  8
Group055
 62
0
 70
0
 66
1
 10
0.0
 20
0.0
 30
0.0
  0
VERTEX
  8
Group055
 10
102.32909284847504
 20
-60.30562
 30
0.0
  0
VERTEX
  8
Group055
 10
102.32909284847504
 20
-72.80562
 30
0.0
  0
SEQEND
  8
Group055
  0
POLYLINE
  8
Group055
 62
0
 70
0
 66
1
 10
0.0
 20
0.0
 30
0.0
  0
VERTEX
  8
Group055
 10
103.07909284847504
 20
-73.55562
 30
0.0
  0
VERTEX
  8
Group055
 10
115.57909284847503
 20
-73.55562
 30
0.0
  0
SEQEND
  8
Group055
  0
ARC
  8
Group056
 62
0
 10
122.0884286303697
 20
-60.30562
 30
0.0
 40
0.75
 50
90.0
 51
-180.0
  0
ARC
  8
Group056
 62
0
 10
134.5884286303697
 20
-60.305620000000005
 30
0.0
 40
0.75
 50
-0.0
 51
90.0
  0
ARC
  8
Group056
 62
0
 10
122.0884286303697
 20
-72.80562
 30
0.0
 40
0.75
 50
-180.0
 51
-90.0
  0
ARC
  8
Group056
 62
0
 10
134.58842863036972
 20
-72.80562
 30
0.0
 40
0.75
 50
-90.0
 51
-0.0
  0
POLYLINE
  8
Group056
 62
0
 70
0
 66
1
 10
0.0
 20
0.0
 30
0.0
  0
VERTEX
  8
Group056
 10
135.33842863036972
 20
-72.80562
 30
0.0
  0
VERTEX
  8
Group056
 10
135.33842863036972
 20
-60.305620000000005
 30
0.0
  0
SEQEND
  8
Group056
  0
POLYLINE
  8
Group056
 62
0
 70
0
 66
1
 10
0.0
 20
0.0
 30
0.0
  0
VERTEX
  8
Group056
 10
134.5884286303697
 20
-59.555620000000005
 30
0.0
  0
VERTEX
  8
Group056
 10
122.08842863036969
 20
-59.555620000000005
 30
0.0
  0
SEQEND
  8
Group056
  0
POLYLINE
  8
Group056
 62
0
 70
0
 66
1
 10
0.0
 20
0.0
 30
0.0
  0
VERTEX
  8
Group056
 10
121.3384286303697
 20
-60.30562
 30
0.0
  0
VERTEX
  8
Group056
 10
121.3384286303697
 20
-72.80562
 30
0.0
  0
SEQEND
  8
Group056
  0
POLYLINE
  8
Group056
 62
0
 70
0
 66
1
 10
0.0
 20
0.0
 30
0.0
  0
VERTEX
  8
Group056
 10
122.0884286303697
 20
-73.55562
 30
0.0
  0
VERTEX
  8
Group056
 10
134.5884286303697
 20
-73.55562
 30
0.0
  0
SEQEND
  8
Group056
  0
ARC
  8
Group057
 62
0
 10
141.09776441226438
 20
-60.30562
 30
0.0
 40
0.75
 50
90.0
 51
-180.0
  0
ARC
  8
Group057
 62
0
 10
153.59776441226438
 20
-60.305620000000005
 30
0.0
 40
0.75
 50
-0.0
 51
90.0
  0
ARC
  8
Group057
 62
0
 10
141.09776441226438
 20
-72.80562
 30
0.0
 40
0.75
 50
-180.0
 51
-90.0
  0
ARC
  8
Group057
 62
0
 10
153.59776441226438
 20
-72.80562
 30
0.0
 40
0.75
 50
-90.0
 51
-0.0
  0
POLYLINE
  8
Group057
 62
0
 70
0
 66
1
 10
0.0
 20
0.0
 30
0.0
  0
VERTEX
  8
Group057
 10
154.34776441226438
 20
-72.80562
 30
0.0
  0
VERTEX
  8
Group057
 10
154.34776441226438
 20
-60.305620000000005
 30
0.0
  0
SEQEND
  8
Group057
  0
POLYLINE
  8
Group057
 62
0
 70
0
 66
1
 10
0.0
 20
0.0
 30
0.0
  0
VERTEX
  8
Group057
 10
153.59776441226438
 20
-59.555620000000005
 30
0.0
  0
VERTEX
  8
Group057
 10
141.09776441226438
 20
-59.555620000000005
 30
0.0
  0
SEQEND
  8
Group057
  0
POLYLINE
  8
Group057
 62
0
 70
0
 66
1
 10
0.0
 20
0.0
 30
0.0
  0
VERTEX
  8
Group057
 10
140.34776441226438
 20
-60.30562
 30
0.0
  0
VERTEX
  8
Group057
 10
140.34776441226438
 20
-72.80562
 30
0.0
  0
SEQEND
  8
Group057
  0
POLYLINE
  8
Group057
 62
0
 70
0
 66
1
 10
0.0
 20
0.0
 30
0.0
  0
VERTEX
  8
Group057
 10
141.09776441226438
 20
-73.55562
 30
0.0
  0
VERTEX
  8
Group057
 10
153.59776441226438
 20
-73.55562
 30
0.0
  0
SEQEND
  8
Group057
  0
ARC
  8
Group058
 62
0
 10
160.10964019092307
 20
-60.30562
 30
0.0
 40
0.75
 50
90.0
 51
-180.0
  0
ARC
  8
Group058
 62
0
 10
172.60964019092307
 20
-60.305620000000005
 30
0.0
 40
0.75
 50
-0.0
 51
90.0
  0
ARC
  8
Group058
 62
0
 10
160.10964019092307
 20
-72.80562
 30
0.0
 40
0.75
 50
-180.0
 51
-90.0
  0
ARC
  8
Group058
 62
0
 10
172.60964019092307
 20
-72.80562
 30
0.0
 40
0.75
 50
-90.0
 51
-0.0
  0
POLYLINE
  8
Group058
 62
0
 70
0
 66
1
 10
0.0
 20
0.0
 30
0.0
  0
VERTEX
  8
Group058
 10
173.35964019092307
 20
-72.80562
 30
0.0
  0
VERTEX
  8
Group058
 10
173.35964019092307
 20
-60.305620000000005
 30
0.0
  0
SEQEND
  8
Group058
  0
POLYLINE
  8
Group058
 62
0
 70
0
 66
1
 10
0.0
 20
0.0
 30
0.0
  0
VERTEX
  8
Group058
 10
172.60964019092307
 20
-59.555620000000005
 30
0.0
  0
VERTEX
  8
Group058
 10
160.10964019092307
 20
-59.555620000000005
 30
0.0
  0
SEQEND
  8
Group058
  0
POLYLINE
  8
Group058
 62
0
 70
0
 66
1
 10
0.0
 20
0.0
 30
0.0
  0
VERTEX
  8
Group058
 10
159.35964019092307
 20
-60.30562
 30
0.0
  0
VERTEX
  8
Group058
 10
159.35964019092307
 20
-72.80562
 30
0.0
  0
SEQEND
  8
Group058
  0
POLYLINE
  8
Group058
 62
0
 70
0
 66
1
 10
0.0
 20
0.0
 30
0.0
  0
VERTEX
  8
Group058
 10
160.10964019092307
 20
-73.55562
 30
0.0
  0
VERTEX
  8
Group058
 10
172.60964019092307
 20
-73.55562
 30
0.0
  0
SEQEND
  8
Group058
  0
ARC
  8
Group059
 62
0
 10
179.11897597281774
 20
-60.30562
 30
0.0
 40
0.75
 50
90.0
 51
-180.0
  0
ARC
  8
Group059
 62
0
 10
191.61897597281774
 20
-60.305620000000005
 30
0.0
 40
0.75
 50
-0.0
 51
90.0
  0
ARC
  8
Group059
 62
0
 10
179.11897597281774
 20
-72.80562
 30
0.0
 40
0.75
 50
-180.0
 51
-90.0
  0
ARC
  8
Group059
 62
0
 10
191.61897597281774
 20
-72.80562
 30
0.0
 40
0.75
 50
-90.0
 51
-0.0
  0
POLYLINE
  8
Group059
 62
0
 70
0
 66
1
 10
0.0
 20
0.0
 30
0.0
  0
VERTEX
  8
Group059
 10
192.36897597281774
 20
-72.80562
 30
0.0
  0
VERTEX
  8
Group059
 10
192.36897597281774
 20
-60.305620000000005
 30
0.0
  0
SEQEND
  8
Group059
  0
POLYLINE
  8
Group059
 62
0
 70
0
 66
1
 10
0.0
 20
0.0
 30
0.0
  0
VERTEX
  8
Group059
 10
191.61897597281774
 20
-59.555620000000005
 30
0.0
  0
VERTEX
  8
Group059
 10
179.11897597281774
 20
-59.555620000000005
 30
0.0
  0
SEQEND
  8
Group059
  0
POLYLINE
  8
Group059
 62
0
 70
0
 66
1
 10
0.0
 20
0.0
 30
0.0
  0
VERTEX
  8
Group059
 10
178.36897597281774
 20
-60.30562
 30
0.0
  0
VERTEX
  8
Group059
 10
178.36897597281774
 20
-72.80562
 30
0.0
  0
SEQEND
  8
Group059
  0
POLYLINE
  8
Group059
 62
0
 70
0
 66
1
 10
0.0
 20
0.0
 30
0.0
  0
VERTEX
  8
Group059
 10
179.11897597281774
 20
-73.55562
 30
0.0
  0
VERTEX
  8
Group059
 10
191.61897597281774
 20
-73.55562
 30
0.0
  0
SEQEND
  8
Group059
  0
ARC
  8
Group060
 62
0
 10
198.1283117547124
 20
-60.30562
 30
0.0
 40
0.75
 50
90.0
 51
-180.0
  0
ARC
  8
Group060
 62
0
 10
210.6283117547124
 20
-60.305620000000005
 30
0.0
 40
0.75
 50
-0.0
 51
90.0
  0
ARC
  8
Group060
 62
0
 10
198.1283117547124
 20
-72.80562
 30
0.0
 40
0.75
 50
-180.0
 51
-90.0
  0
ARC
  8
Group060
 62
0
 10
210.6283117547124
 20
-72.80562
 30
0.0
 40
0.75
 50
-90.0
 51
-0.0
  0
POLYLINE
  8
Group060
 62
0
 70
0
 66
1
 10
0.0
 20
0.0
 30
0.0
  0
VERTEX
  8
Group060
 10
211.3783117547124
 20
-72.80562
 30
0.0
  0
VERTEX
  8
Group060
 10
211.3783117547124
 20
-60.305620000000005
 30
0.0
  0
SEQEND
  8
Group060
  0
POLYLINE
  8
Group060
 62
0
 70
0
 66
1
 10
0.0
 20
0.0
 30
0.0
  0
VERTEX
  8
Group060
 10
210.6283117547124
 20
-59.555620000000005
 30
0.0
  0
VERTEX
  8
Group060
 10
198.1283117547124
 20
-59.555620000000005
 30
0.0
  0
SEQEND
  8
Group060
  0
POLYLINE
  8
Group060
 62
0
 70
0
 66
1
 10
0.0
 20
0.0
 30
0.0
  0
VERTEX
  8
Group060
 10
197.3783117547124
 20
-60.30562
 30
0.0
  0
VERTEX
  8
Group060
 10
197.3783117547124
 20
-72.80562
 30
0.0
  0
SEQEND
  8
Group060
  0
POLYLINE
  8
Group060
 62
0
 70
0
 66
1
 10
0.0
 20
0.0
 30
0.0
  0
VERTEX
  8
Group060
 10
198.1283117547124
 20
-73.55562
 30
0.0
  0
VERTEX
  8
Group060
 10
210.6283117547124
 20
-73.55562
 30
0.0
  0
SEQEND
  8
Group060
  0
ARC
  8
Group061
 62
0
 10
217.13764753660706
 20
-60.30562
 30
0.0
 40
0.75
 50
90.0
 51
-180.0
  0
ARC
  8
Group061
 62
0
 10
229.63764753660706
 20
-60.305620000000005
 30
0.0
 40
0.75
 50
-0.0
 51
90.0
  0
ARC
  8
Group061
 62
0
 10
217.13764753660706
 20
-72.80562
 30
0.0
 40
0.75
 50
-180.0
 51
-90.0
  0
ARC
  8
Group061
 62
0
 10
229.63764753660706
 20
-72.80562
 30
0.0
 40
0.75
 50
-90.0
 51
-0.0
  0
POLYLINE
  8
Group061
 62
0
 70
0
 66
1
 10
0.0
 20
0.0
 30
0.0
  0
VERTEX
  8
Group061
 10
230.38764753660706
 20
-72.80562
 30
0.0
  0
VERTEX
  8
Group061
 10
230.38764753660706
 20
-60.305620000000005
 30
0.0
  0
SEQEND
  8
Group061
  0
POLYLINE
  8
Group061
 62
0
 70
0
 66
1
 10
0.0
 20
0.0
 30
0.0
  0
VERTEX
  8
Group061
 10
229.63764753660706
 20
-59.555620000000005
 30
0.0
  0
VERTEX
  8
Group061
 10
217.13764753660706
 20
-59.555620000000005
 30
0.0
  0
SEQEND
  8
Group061
  0
POLYLINE
  8
Group061
 62
0
 70
0
 66
1
 10
0.0
 20
0.0
 30
0.0
  0
VERTEX
  8
Group061
 10
216.38764753660706
 20
-60.30562
 30
0.0
  0
VERTEX
  8
Group061
 10
216.38764753660706
 20
-72.80562
 30
0.0
  0
SEQEND
  8
Group061
  0
POLYLINE
  8
Group061
 62
0
 70
0
 66
1
 10
0.0
 20
0.0
 30
0.0
  0
VERTEX
  8
Group061
 10
217.13764753660706
 20
-73.55562
 30
0.0
  0
VERTEX
  8
Group061
 10
229.63764753660706
 20
-73.55562
 30
0.0
  0
SEQEND
  8
Group061
  0
ARC
  8
Group062
 62
0
 10
248.02908818056792
 20
-60.30562
 30
0.0
 40
0.75
 50
90.0
 51
-180.0
  0
ARC
  8
Group062
 62
0
 10
260.5290881805679
 20
-60.305620000000005
 30
0.0
 40
0.75
 50
-0.0
 51
90.0
  0
ARC
  8
Group062
 62
0
 10
248.02908818056792
 20
-72.80562
 30
0.0
 40
0.75
 50
-180.0
 51
-90.0
  0
ARC
  8
Group062
 62
0
 10
260.5290881805679
 20
-72.80562
 30
0.0
 40
0.75
 50
-90.0
 51
-0.0
  0
POLYLINE
  8
Group062
 62
0
 70
0
 66
1
 10
0.0
 20
0.0
 30
0.0
  0
VERTEX
  8
Group062
 10
261.2790881805679
 20
-72.80562
 30
0.0
  0
VERTEX
  8
Group062
 10
261.2790881805679
 20
-60.305620000000005
 30
0.0
  0
SEQEND
  8
Group062
  0
POLYLINE
  8
Group062
 62
0
 70
0
 66
1
 10
0.0
 20
0.0
 30
0.0
  0
VERTEX
  8
Group062
 10
260.5290881805679
 20
-59.555620000000005
 30
0.0
  0
VERTEX
  8
Group062
 10
248.0290881805679
 20
-59.555620000000005
 30
0.0
  0
SEQEND
  8
Group062
  0
POLYLINE
  8
Group062
 62
0
 70
0
 66
1
 10
0.0
 20
0.0
 30
0.0
  0
VERTEX
  8
Group062
 10
247.27908818056792
 20
-60.30562
 30
0.0
  0
VERTEX
  8
Group062
 10
247.27908818056792
 20
-72.80562
 30
0.0
  0
SEQEND
  8
Group062
  0
POLYLINE
  8
Group062
 62
0
 70
0
 66
1
 10
0.0
 20
0.0
 30
0.0
  0
VERTEX
  8
Group062
 10
248.02908818056792
 20
-73.55562
 30
0.0
  0
VERTEX
  8
Group062
 10
260.5290881805679
 20
-73.55562
 30
0.0
  0
SEQEND
  8
Group062
  0
ARC
  8
Group093
 62
0
 10
239.5910881805679
 20
-74.30562
 30
0.0
 40
0.75
 50
-180.0
 51
-90.0
  0
ARC
  8
Group093
 62
0
 10
245.0910881805679
 20
-74.30562000000003
 30
0.0
 40
0.75
 50
-90.0
 51
-0.0
  0
ARC
  8
Group093
 62
0
 10
239.5910881805679
 20
-60.30562
 30
0.0
 40
0.75
 50
90.0
 51
-180.0
  0
ARC
  8
Group093
 62
0
 10
245.0910881805679
 20
-60.30562000000001
 30
0.0
 40
0.75
 50
-0.0
 51
90.0
  0
POLYLINE
  8
Group093
 62
0
 70
0
 66
1
 10
0.0
 20
0.0
 30
0.0
  0
VERTEX
  8
Group093
 10
239.5910881805679
 20
-59.55562
 30
0.0
  0
VERTEX
  8
Group093
 10
245.0910881805679
 20
-59.55562000000001
 30
0.0
  0
SEQEND
  8
Group093
  0
POLYLINE
  8
Group093
 62
0
 70
0
 66
1
 10
0.0
 20
0.0
 30
0.0
  0
VERTEX
  8
Group093
 10
245.8410881805679
 20
-60.30562000000001
 30
0.0
  0
VERTEX
  8
Group093
 10
245.8410881805679
 20
-74.30562000000003
 30
0.0
  0
SEQEND
  8
Group093
  0
POLYLINE
  8
Group093
 62
0
 70
0
 66
1
 10
0.0
 20
0.0
 30
0.0
  0
VERTEX
  8
Group093
 10
245.0910881805679
 20
-75.05562000000003
 30
0.0
  0
VERTEX
  8
Group093
 10
239.5910881805679
 20
-75.05562000000002
 30
0.0
  0
SEQEND
  8
Group093
  0
POLYLINE
  8
Group093
 62
0
 70
0
 66
1
 10
0.0
 20
0.0
 30
0.0
  0
VERTEX
  8
Group093
 10
238.8410881805679
 20
-74.30562
 30
0.0
  0
VERTEX
  8
Group093
 10
238.8410881805679
 20
-60.30561999999999
 30
0.0
  0
SEQEND
  8
Group093
  0
ARC
  8
Group092
 62
0
 10
263.4670881805679
 20
-74.30562
 30
0.0
 40
0.75
 50
-180.0
 51
-90.0
  0
ARC
  8
Group092
 62
0
 10
268.9670881805679
 20
-74.30562000000003
 30
0.0
 40
0.75
 50
-90.0
 51
-0.0
  0
ARC
  8
Group092
 62
0
 10
263.4670881805679
 20
-60.30562
 30
0.0
 40
0.75
 50
90.0
 51
-180.0
  0
ARC
  8
Group092
 62
0
 10
268.9670881805679
 20
-60.30562000000001
 30
0.0
 40
0.75
 50
-0.0
 51
90.0
  0
POLYLINE
  8
Group092
 62
0
 70
0
 66
1
 10
0.0
 20
0.0
 30
0.0
  0
VERTEX
  8
Group092
 10
263.4670881805679
 20
-59.55562
 30
0.0
  0
VERTEX
  8
Group092
 10
268.9670881805679
 20
-59.55562000000001
 30
0.0
  0
SEQEND
  8
Group092
  0
POLYLINE
  8
Group092
 62
0
 70
0
 66
1
 10
0.0
 20
0.0
 30
0.0
  0
VERTEX
  8
Group092
 10
269.7170881805679
 20
-60.30562000000001
 30
0.0
  0
VERTEX
  8
Group092
 10
269.7170881805679
 20
-74.30562000000003
 30
0.0
  0
SEQEND
  8
Group092
  0
POLYLINE
  8
Group092
 62
0
 70
0
 66
1
 10
0.0
 20
0.0
 30
0.0
  0
VERTEX
  8
Group092
 10
268.9670881805679
 20
-75.05562000000003
 30
0.0
  0
VERTEX
  8
Group092
 10
263.4670881805679
 20
-75.05562000000002
 30
0.0
  0
SEQEND
  8
Group092
  0
POLYLINE
  8
Group092
 62
0
 70
0
 66
1
 10
0.0
 20
0.0
 30
0.0
  0
VERTEX
  8
Group092
 10
262.7170881805679
 20
-74.30562
 30
0.0
  0
VERTEX
  8
Group092
 10
262.7170881805679
 20
-60.30561999999999
 30
0.0
  0
SEQEND
  8
Group092
  0
ARC
  8
Group063
 62
0
 10
279.17198850416634
 20
-60.30562
 30
0.0
 40
0.75
 50
90.0
 51
-180.0
  0
ARC
  8
Group063
 62
0
 10
291.6719885041663
 20
-60.305620000000005
 30
0.0
 40
0.75
 50
-0.0
 51
90.0
  0
ARC
  8
Group063
 62
0
 10
279.17198850416634
 20
-72.80562
 30
0.0
 40
0.75
 50
-180.0
 51
-90.0
  0
ARC
  8
Group063
 62
0
 10
291.6719885041663
 20
-72.80562
 30
0.0
 40
0.75
 50
-90.0
 51
-0.0
  0
POLYLINE
  8
Group063
 62
0
 70
0
 66
1
 10
0.0
 20
0.0
 30
0.0
  0
VERTEX
  8
Group063
 10
292.4219885041663
 20
-72.80562
 30
0.0
  0
VERTEX
  8
Group063
 10
292.4219885041663
 20
-60.305620000000005
 30
0.0
  0
SEQEND
  8
Group063
  0
POLYLINE
  8
Group063
 62
0
 70
0
 66
1
 10
0.0
 20
0.0
 30
0.0
  0
VERTEX
  8
Group063
 10
291.6719885041663
 20
-59.555620000000005
 30
0.0
  0
VERTEX
  8
Group063
 10
279.1719885041663
 20
-59.555620000000005
 30
0.0
  0
SEQEND
  8
Group063
  0
POLYLINE
  8
Group063
 62
0
 70
0
 66
1
 10
0.0
 20
0.0
 30
0.0
  0
VERTEX
  8
Group063
 10
278.42198850416634
 20
-60.30562
 30
0.0
  0
VERTEX
  8
Group063
 10
278.42198850416634
 20
-72.80562
 30
0.0
  0
SEQEND
  8
Group063
  0
POLYLINE
  8
Group063
 62
0
 70
0
 66
1
 10
0.0
 20
0.0
 30
0.0
  0
VERTEX
  8
Group063
 10
279.17198850416634
 20
-73.55562
 30
0.0
  0
VERTEX
  8
Group063
 10
291.6719885041663
 20
-73.55562
 30
0.0
  0
SEQEND
  8
Group063
  0
ARC
  8
Group033
 62
0
 10
10.404770916592508
 20
-41.29626
 30
0.0
 40
0.75
 50
90.0
 51
-180.0
  0
ARC
  8
Group033
 62
0
 10
22.904770916592504
 20
-41.296260000000004
 30
0.0
 40
0.75
 50
-0.0
 51
90.0
  0
ARC
  8
Group033
 62
0
 10
10.404770916592508
 20
-53.79626
 30
0.0
 40
0.75
 50
-180.0
 51
-90.0
  0
ARC
  8
Group033
 62
0
 10
22.90477091659251
 20
-53.79626
 30
0.0
 40
0.75
 50
-90.0
 51
-0.0
  0
POLYLINE
  8
Group033
 62
0
 70
0
 66
1
 10
0.0
 20
0.0
 30
0.0
  0
VERTEX
  8
Group033
 10
23.65477091659251
 20
-53.79626
 30
0.0
  0
VERTEX
  8
Group033
 10
23.65477091659251
 20
-41.29626
 30
0.0
  0
SEQEND
  8
Group033
  0
POLYLINE
  8
Group033
 62
0
 70
0
 66
1
 10
0.0
 20
0.0
 30
0.0
  0
VERTEX
  8
Group033
 10
22.904770916592504
 20
-40.546260000000004
 30
0.0
  0
VERTEX
  8
Group033
 10
10.404770916592508
 20
-40.546260000000004
 30
0.0
  0
SEQEND
  8
Group033
  0
POLYLINE
  8
Group033
 62
0
 70
0
 66
1
 10
0.0
 20
0.0
 30
0.0
  0
VERTEX
  8
Group033
 10
9.654770916592508
 20
-41.29626
 30
0.0
  0
VERTEX
  8
Group033
 10
9.654770916592508
 20
-53.79626
 30
0.0
  0
SEQEND
  8
Group033
  0
POLYLINE
  8
Group033
 62
0
 70
0
 66
1
 10
0.0
 20
0.0
 30
0.0
  0
VERTEX
  8
Group033
 10
10.404770916592508
 20
-54.54626
 30
0.0
  0
VERTEX
  8
Group033
 10
22.904770916592504
 20
-54.54626
 30
0.0
  0
SEQEND
  8
Group033
  0
ARC
  8
Group034
 62
0
 10
36.54387761507968
 20
-41.29626
 30
0.0
 40
0.75
 50
90.0
 51
-180.0
  0
ARC
  8
Group034
 62
0
 10
49.04387761507968
 20
-41.296260000000004
 30
0.0
 40
0.75
 50
-0.0
 51
90.0
  0
ARC
  8
Group034
 62
0
 10
36.54387761507968
 20
-53.79626
 30
0.0
 40
0.75
 50
-180.0
 51
-90.0
  0
ARC
  8
Group034
 62
0
 10
49.04387761507969
 20
-53.79626
 30
0.0
 40
0.75
 50
-90.0
 51
-0.0
  0
POLYLINE
  8
Group034
 62
0
 70
0
 66
1
 10
0.0
 20
0.0
 30
0.0
  0
VERTEX
  8
Group034
 10
49.79387761507969
 20
-53.79626
 30
0.0
  0
VERTEX
  8
Group034
 10
49.79387761507969
 20
-41.29626
 30
0.0
  0
SEQEND
  8
Group034
  0
POLYLINE
  8
Group034
 62
0
 70
0
 66
1
 10
0.0
 20
0.0
 30
0.0
  0
VERTEX
  8
Group034
 10
49.04387761507968
 20
-40.546260000000004
 30
0.0
  0
VERTEX
  8
Group034
 10
36.54387761507968
 20
-40.546260000000004
 30
0.0
  0
SEQEND
  8
Group034
  0
POLYLINE
  8
Group034
 62
0
 70
0
 66
1
 10
0.0
 20
0.0
 30
0.0
  0
VERTEX
  8
Group034
 10
35.79387761507968
 20
-41.29626
 30
0.0
  0
VERTEX
  8
Group034
 10
35.79387761507968
 20
-53.79626
 30
0.0
  0
SEQEND
  8
Group034
  0
POLYLINE
  8
Group034
 62
0
 70
0
 66
1
 10
0.0
 20
0.0
 30
0.0
  0
VERTEX
  8
Group034
 10
36.54387761507968
 20
-54.54626
 30
0.0
  0
VERTEX
  8
Group034
 10
49.04387761507968
 20
-54.54626
 30
0.0
  0
SEQEND
  8
Group034
  0
ARC
  8
Group035
 62
0
 10
55.55321339697435
 20
-41.29626
 30
0.0
 40
0.75
 50
90.0
 51
-180.0
  0
ARC
  8
Group035
 62
0
 10
68.05321339697434
 20
-41.296260000000004
 30
0.0
 40
0.75
 50
-0.0
 51
90.0
  0
ARC
  8
Group035
 62
0
 10
55.55321339697435
 20
-53.79626
 30
0.0
 40
0.75
 50
-180.0
 51
-90.0
  0
ARC
  8
Group035
 62
0
 10
68.05321339697436
 20
-53.79626
 30
0.0
 40
0.75
 50
-90.0
 51
-0.0
  0
POLYLINE
  8
Group035
 62
0
 70
0
 66
1
 10
0.0
 20
0.0
 30
0.0
  0
VERTEX
  8
Group035
 10
68.80321339697436
 20
-53.79626
 30
0.0
  0
VERTEX
  8
Group035
 10
68.80321339697436
 20
-41.29626
 30
0.0
  0
SEQEND
  8
Group035
  0
POLYLINE
  8
Group035
 62
0
 70
0
 66
1
 10
0.0
 20
0.0
 30
0.0
  0
VERTEX
  8
Group035
 10
68.05321339697434
 20
-40.546260000000004
 30
0.0
  0
VERTEX
  8
Group035
 10
55.55321339697434
 20
-40.546260000000004
 30
0.0
  0
SEQEND
  8
Group035
  0
POLYLINE
  8
Group035
 62
0
 70
0
 66
1
 10
0.0
 20
0.0
 30
0.0
  0
VERTEX
  8
Group035
 10
54.80321339697435
 20
-41.29626
 30
0.0
  0
VERTEX
  8
Group035
 10
54.80321339697435
 20
-53.79626
 30
0.0
  0
SEQEND
  8
Group035
  0
POLYLINE
  8
Group035
 62
0
 70
0
 66
1
 10
0.0
 20
0.0
 30
0.0
  0
VERTEX
  8
Group035
 10
55.55321339697435
 20
-54.54626
 30
0.0
  0
VERTEX
  8
Group035
 10
68.05321339697434
 20
-54.54626
 30
0.0
  0
SEQEND
  8
Group035
  0
ARC
  8
Group036
 62
0
 10
74.562549178869
 20
-41.29626
 30
0.0
 40
0.75
 50
90.0
 51
-180.0
  0
ARC
  8
Group036
 62
0
 10
87.062549178869
 20
-41.296260000000004
 30
0.0
 40
0.75
 50
-0.0
 51
90.0
  0
ARC
  8
Group036
 62
0
 10
74.562549178869
 20
-53.79626
 30
0.0
 40
0.75
 50
-180.0
 51
-90.0
  0
ARC
  8
Group036
 62
0
 10
87.06254917886902
 20
-53.79626
 30
0.0
 40
0.75
 50
-90.0
 51
-0.0
  0
POLYLINE
  8
Group036
 62
0
 70
0
 66
1
 10
0.0
 20
0.0
 30
0.0
  0
VERTEX
  8
Group036
 10
87.81254917886902
 20
-53.79626
 30
0.0
  0
VERTEX
  8
Group036
 10
87.81254917886902
 20
-41.29626
 30
0.0
  0
SEQEND
  8
Group036
  0
POLYLINE
  8
Group036
 62
0
 70
0
 66
1
 10
0.0
 20
0.0
 30
0.0
  0
VERTEX
  8
Group036
 10
87.062549178869
 20
-40.546260000000004
 30
0.0
  0
VERTEX
  8
Group036
 10
74.562549178869
 20
-40.546260000000004
 30
0.0
  0
SEQEND
  8
Group036
  0
POLYLINE
  8
Group036
 62
0
 70
0
 66
1
 10
0.0
 20
0.0
 30
0.0
  0
VERTEX
  8
Group036
 10
73.812549178869
 20
-41.29626
 30
0.0
  0
VERTEX
  8
Group036
 10
73.812549178869
 20
-53.79626
 30
0.0
  0
SEQEND
  8
Group036
  0
POLYLINE
  8
Group036
 62
0
 70
0
 66
1
 10
0.0
 20
0.0
 30
0.0
  0
VERTEX
  8
Group036
 10
74.562549178869
 20
-54.54626
 30
0.0
  0
VERTEX
  8
Group036
 10
87.062549178869
 20
-54.54626
 30
0.0
  0
SEQEND
  8
Group036
  0
ARC
  8
Group037
 62
0
 10
93.5744249575277
 20
-41.29626
 30
0.0
 40
0.75
 50
90.0
 51
-180.0
  0
ARC
  8
Group037
 62
0
 10
106.0744249575277
 20
-41.296260000000004
 30
0.0
 40
0.75
 50
-0.0
 51
90.0
  0
ARC
  8
Group037
 62
0
 10
93.5744249575277
 20
-53.79626
 30
0.0
 40
0.75
 50
-180.0
 51
-90.0
  0
ARC
  8
Group037
 62
0
 10
106.07442495752771
 20
-53.79626
 30
0.0
 40
0.75
 50
-90.0
 51
-0.0
  0
POLYLINE
  8
Group037
 62
0
 70
0
 66
1
 10
0.0
 20
0.0
 30
0.0
  0
VERTEX
  8
Group037
 10
106.82442495752771
 20
-53.79626
 30
0.0
  0
VERTEX
  8
Group037
 10
106.82442495752771
 20
-41.29626
 30
0.0
  0
SEQEND
  8
Group037
  0
POLYLINE
  8
Group037
 62
0
 70
0
 66
1
 10
0.0
 20
0.0
 30
0.0
  0
VERTEX
  8
Group037
 10
106.0744249575277
 20
-40.546260000000004
 30
0.0
  0
VERTEX
  8
Group037
 10
93.5744249575277
 20
-40.546260000000004
 30
0.0
  0
SEQEND
  8
Group037
  0
POLYLINE
  8
Group037
 62
0
 70
0
 66
1
 10
0.0
 20
0.0
 30
0.0
  0
VERTEX
  8
Group037
 10
92.8244249575277
 20
-41.29626
 30
0.0
  0
VERTEX
  8
Group037
 10
92.8244249575277
 20
-53.79626
 30
0.0
  0
SEQEND
  8
Group037
  0
POLYLINE
  8
Group037
 62
0
 70
0
 66
1
 10
0.0
 20
0.0
 30
0.0
  0
VERTEX
  8
Group037
 10
93.5744249575277
 20
-54.54626
 30
0.0
  0
VERTEX
  8
Group037
 10
106.0744249575277
 20
-54.54626
 30
0.0
  0
SEQEND
  8
Group037
  0
ARC
  8
Group038
 62
0
 10
112.58376073942236
 20
-41.29626
 30
0.0
 40
0.75
 50
90.0
 51
-180.0
  0
ARC
  8
Group038
 62
0
 10
125.08376073942236
 20
-41.296260000000004
 30
0.0
 40
0.75
 50
-0.0
 51
90.0
  0
ARC
  8
Group038
 62
0
 10
112.58376073942236
 20
-53.79626
 30
0.0
 40
0.75
 50
-180.0
 51
-90.0
  0
ARC
  8
Group038
 62
0
 10
125.08376073942237
 20
-53.79626
 30
0.0
 40
0.75
 50
-90.0
 51
-0.0
  0
POLYLINE
  8
Group038
 62
0
 70
0
 66
1
 10
0.0
 20
0.0
 30
0.0
  0
VERTEX
  8
Group038
 10
125.83376073942237
 20
-53.79626
 30
0.0
  0
VERTEX
  8
Group038
 10
125.83376073942237
 20
-41.29626
 30
0.0
  0
SEQEND
  8
Group038
  0
POLYLINE
  8
Group038
 62
0
 70
0
 66
1
 10
0.0
 20
0.0
 30
0.0
  0
VERTEX
  8
Group038
 10
125.08376073942236
 20
-40.546260000000004
 30
0.0
  0
VERTEX
  8
Group038
 10
112.58376073942236
 20
-40.546260000000004
 30
0.0
  0
SEQEND
  8
Group038
  0
POLYLINE
  8
Group038
 62
0
 70
0
 66
1
 10
0.0
 20
0.0
 30
0.0
  0
VERTEX
  8
Group038
 10
111.83376073942236
 20
-41.29626
 30
0.0
  0
VERTEX
  8
Group038
 10
111.83376073942236
 20
-53.79626
 30
0.0
  0
SEQEND
  8
Group038
  0
POLYLINE
  8
Group038
 62
0
 70
0
 66
1
 10
0.0
 20
0.0
 30
0.0
  0
VERTEX
  8
Group038
 10
112.58376073942236
 20
-54.54626
 30
0.0
  0
VERTEX
  8
Group038
 10
125.08376073942236
 20
-54.54626
 30
0.0
  0
SEQEND
  8
Group038
  0
ARC
  8
Group039
 62
0
 10
131.59309652131702
 20
-41.29626
 30
0.0
 40
0.75
 50
90.0
 51
-180.0
  0
ARC
  8
Group039
 62
0
 10
144.09309652131702
 20
-41.296260000000004
 30
0.0
 40
0.75
 50
-0.0
 51
90.0
  0
ARC
  8
Group039
 62
0
 10
131.59309652131702
 20
-53.79626
 30
0.0
 40
0.75
 50
-180.0
 51
-90.0
  0
ARC
  8
Group039
 62
0
 10
144.09309652131705
 20
-53.79626
 30
0.0
 40
0.75
 50
-90.0
 51
-0.0
  0
POLYLINE
  8
Group039
 62
0
 70
0
 66
1
 10
0.0
 20
0.0
 30
0.0
  0
VERTEX
  8
Group039
 10
144.84309652131705
 20
-53.79626
 30
0.0
  0
VERTEX
  8
Group039
 10
144.84309652131705
 20
-41.29626
 30
0.0
  0
SEQEND
  8
Group039
  0
POLYLINE
  8
Group039
 62
0
 70
0
 66
1
 10
0.0
 20
0.0
 30
0.0
  0
VERTEX
  8
Group039
 10
144.09309652131702
 20
-40.546260000000004
 30
0.0
  0
VERTEX
  8
Group039
 10
131.59309652131702
 20
-40.546260000000004
 30
0.0
  0
SEQEND
  8
Group039
  0
POLYLINE
  8
Group039
 62
0
 70
0
 66
1
 10
0.0
 20
0.0
 30
0.0
  0
VERTEX
  8
Group039
 10
130.84309652131702
 20
-41.29626
 30
0.0
  0
VERTEX
  8
Group039
 10
130.84309652131702
 20
-53.79626
 30
0.0
  0
SEQEND
  8
Group039
  0
POLYLINE
  8
Group039
 62
0
 70
0
 66
1
 10
0.0
 20
0.0
 30
0.0
  0
VERTEX
  8
Group039
 10
131.59309652131702
 20
-54.54626
 30
0.0
  0
VERTEX
  8
Group039
 10
144.09309652131702
 20
-54.54626
 30
0.0
  0
SEQEND
  8
Group039
  0
ARC
  8
Group040
 62
0
 10
150.60243230321169
 20
-41.29626
 30
0.0
 40
0.75
 50
90.0
 51
-180.0
  0
ARC
  8
Group040
 62
0
 10
163.10243230321169
 20
-41.296260000000004
 30
0.0
 40
0.75
 50
-0.0
 51
90.0
  0
ARC
  8
Group040
 62
0
 10
150.60243230321169
 20
-53.79626
 30
0.0
 40
0.75
 50
-180.0
 51
-90.0
  0
ARC
  8
Group040
 62
0
 10
163.1024323032117
 20
-53.79626
 30
0.0
 40
0.75
 50
-90.0
 51
-0.0
  0
POLYLINE
  8
Group040
 62
0
 70
0
 66
1
 10
0.0
 20
0.0
 30
0.0
  0
VERTEX
  8
Group040
 10
163.8524323032117
 20
-53.79626
 30
0.0
  0
VERTEX
  8
Group040
 10
163.8524323032117
 20
-41.29626
 30
0.0
  0
SEQEND
  8
Group040
  0
POLYLINE
  8
Group040
 62
0
 70
0
 66
1
 10
0.0
 20
0.0
 30
0.0
  0
VERTEX
  8
Group040
 10
163.10243230321169
 20
-40.546260000000004
 30
0.0
  0
VERTEX
  8
Group040
 10
150.60243230321169
 20
-40.546260000000004
 30
0.0
  0
SEQEND
  8
Group040
  0
POLYLINE
  8
Group040
 62
0
 70
0
 66
1
 10
0.0
 20
0.0
 30
0.0
  0
VERTEX
  8
Group040
 10
149.85243230321169
 20
-41.29626
 30
0.0
  0
VERTEX
  8
Group040
 10
149.85243230321169
 20
-53.79626
 30
0.0
  0
SEQEND
  8
Group040
  0
POLYLINE
  8
Group040
 62
0
 70
0
 66
1
 10
0.0
 20
0.0
 30
0.0
  0
VERTEX
  8
Group040
 10
150.60243230321169
 20
-54.54626
 30
0.0
  0
VERTEX
  8
Group040
 10
163.10243230321169
 20
-54.54626
 30
0.0
  0
SEQEND
  8
Group040
  0
ARC
  8
Group041
 62
0
 10
169.61430808187038
 20
-41.29626
 30
0.0
 40
0.75
 50
90.0
 51
-180.0
  0
ARC
  8
Group041
 62
0
 10
182.11430808187038
 20
-41.296260000000004
 30
0.0
 40
0.75
 50
-0.0
 51
90.0
  0
ARC
  8
Group041
 62
0
 10
169.61430808187038
 20
-53.79626
 30
0.0
 40
0.75
 50
-180.0
 51
-90.0
  0
ARC
  8
Group041
 62
0
 10
182.1143080818704
 20
-53.79626
 30
0.0
 40
0.75
 50
-90.0
 51
-0.0
  0
POLYLINE
  8
Group041
 62
0
 70
0
 66
1
 10
0.0
 20
0.0
 30
0.0
  0
VERTEX
  8
Group041
 10
182.8643080818704
 20
-53.79626
 30
0.0
  0
VERTEX
  8
Group041
 10
182.8643080818704
 20
-41.29626
 30
0.0
  0
SEQEND
  8
Group041
  0
POLYLINE
  8
Group041
 62
0
 70
0
 66
1
 10
0.0
 20
0.0
 30
0.0
  0
VERTEX
  8
Group041
 10
182.11430808187038
 20
-40.546260000000004
 30
0.0
  0
VERTEX
  8
Group041
 10
169.61430808187038
 20
-40.546260000000004
 30
0.0
  0
SEQEND
  8
Group041
  0
POLYLINE
  8
Group041
 62
0
 70
0
 66
1
 10
0.0
 20
0.0
 30
0.0
  0
VERTEX
  8
Group041
 10
168.86430808187038
 20
-41.29626
 30
0.0
  0
VERTEX
  8
Group041
 10
168.86430808187038
 20
-53.79626
 30
0.0
  0
SEQEND
  8
Group041
  0
POLYLINE
  8
Group041
 62
0
 70
0
 66
1
 10
0.0
 20
0.0
 30
0.0
  0
VERTEX
  8
Group041
 10
169.61430808187038
 20
-54.54626
 30
0.0
  0
VERTEX
  8
Group041
 10
182.11430808187038
 20
-54.54626
 30
0.0
  0
SEQEND
  8
Group041
  0
ARC
  8
Group042
 62
0
 10
188.62364386376504
 20
-41.29626
 30
0.0
 40
0.75
 50
90.0
 51
-180.0
  0
ARC
  8
Group042
 62
0
 10
201.12364386376504
 20
-41.296260000000004
 30
0.0
 40
0.75
 50
-0.0
 51
90.0
  0
ARC
  8
Group042
 62
0
 10
188.62364386376504
 20
-53.79626
 30
0.0
 40
0.75
 50
-180.0
 51
-90.0
  0
ARC
  8
Group042
 62
0
 10
201.12364386376507
 20
-53.79626
 30
0.0
 40
0.75
 50
-90.0
 51
-0.0
  0
POLYLINE
  8
Group042
 62
0
 70
0
 66
1
 10
0.0
 20
0.0
 30
0.0
  0
VERTEX
  8
Group042
 10
201.87364386376507
 20
-53.79626
 30
0.0
  0
VERTEX
  8
Group042
 10
201.87364386376507
 20
-41.29626
 30
0.0
  0
SEQEND
  8
Group042
  0
POLYLINE
  8
Group042
 62
0
 70
0
 66
1
 10
0.0
 20
0.0
 30
0.0
  0
VERTEX
  8
Group042
 10
201.12364386376504
 20
-40.546260000000004
 30
0.0
  0
VERTEX
  8
Group042
 10
188.62364386376504
 20
-40.546260000000004
 30
0.0
  0
SEQEND
  8
Group042
  0
POLYLINE
  8
Group042
 62
0
 70
0
 66
1
 10
0.0
 20
0.0
 30
0.0
  0
VERTEX
  8
Group042
 10
187.87364386376504
 20
-41.29626
 30
0.0
  0
VERTEX
  8
Group042
 10
187.87364386376504
 20
-53.79626
 30
0.0
  0
SEQEND
  8
Group042
  0
POLYLINE
  8
Group042
 62
0
 70
0
 66
1
 10
0.0
 20
0.0
 30
0.0
  0
VERTEX
  8
Group042
 10
188.62364386376504
 20
-54.54626
 30
0.0
  0
VERTEX
  8
Group042
 10
201.12364386376504
 20
-54.54626
 30
0.0
  0
SEQEND
  8
Group042
  0
ARC
  8
Group043
 62
0
 10
207.6329796456597
 20
-41.29626
 30
0.0
 40
0.75
 50
90.0
 51
-180.0
  0
ARC
  8
Group043
 62
0
 10
220.1329796456597
 20
-41.296260000000004
 30
0.0
 40
0.75
 50
-0.0
 51
90.0
  0
ARC
  8
Group043
 62
0
 10
207.6329796456597
 20
-53.79626
 30
0.0
 40
0.75
 50
-180.0
 51
-90.0
  0
ARC
  8
Group043
 62
0
 10
220.13297964565973
 20
-53.79626
 30
0.0
 40
0.75
 50
-90.0
 51
-0.0
  0
POLYLINE
  8
Group043
 62
0
 70
0
 66
1
 10
0.0
 20
0.0
 30
0.0
  0
VERTEX
  8
Group043
 10
220.88297964565973
 20
-53.79626
 30
0.0
  0
VERTEX
  8
Group043
 10
220.88297964565973
 20
-41.29626
 30
0.0
  0
SEQEND
  8
Group043
  0
POLYLINE
  8
Group043
 62
0
 70
0
 66
1
 10
0.0
 20
0.0
 30
0.0
  0
VERTEX
  8
Group043
 10
220.1329796456597
 20
-40.546260000000004
 30
0.0
  0
VERTEX
  8
Group043
 10
207.6329796456597
 20
-40.546260000000004
 30
0.0
  0
SEQEND
  8
Group043
  0
POLYLINE
  8
Group043
 62
0
 70
0
 66
1
 10
0.0
 20
0.0
 30
0.0
  0
VERTEX
  8
Group043
 10
206.8829796456597
 20
-41.29626
 30
0.0
  0
VERTEX
  8
Group043
 10
206.8829796456597
 20
-53.79626
 30
0.0
  0
SEQEND
  8
Group043
  0
POLYLINE
  8
Group043
 62
0
 70
0
 66
1
 10
0.0
 20
0.0
 30
0.0
  0
VERTEX
  8
Group043
 10
207.6329796456597
 20
-54.54626
 30
0.0
  0
VERTEX
  8
Group043
 10
220.1329796456597
 20
-54.54626
 30
0.0
  0
SEQEND
  8
Group043
  0
ARC
  8
Group044
 62
0
 10
226.64231542755437
 20
-41.29626
 30
0.0
 40
0.75
 50
90.0
 51
-180.0
  0
ARC
  8
Group044
 62
0
 10
239.14231542755437
 20
-41.296260000000004
 30
0.0
 40
0.75
 50
-0.0
 51
90.0
  0
ARC
  8
Group044
 62
0
 10
226.64231542755437
 20
-53.79626
 30
0.0
 40
0.75
 50
-180.0
 51
-90.0
  0
ARC
  8
Group044
 62
0
 10
239.1423154275544
 20
-53.79626
 30
0.0
 40
0.75
 50
-90.0
 51
-0.0
  0
POLYLINE
  8
Group044
 62
0
 70
0
 66
1
 10
0.0
 20
0.0
 30
0.0
  0
VERTEX
  8
Group044
 10
239.8923154275544
 20
-53.79626
 30
0.0
  0
VERTEX
  8
Group044
 10
239.8923154275544
 20
-41.29626
 30
0.0
  0
SEQEND
  8
Group044
  0
POLYLINE
  8
Group044
 62
0
 70
0
 66
1
 10
0.0
 20
0.0
 30
0.0
  0
VERTEX
  8
Group044
 10
239.14231542755437
 20
-40.546260000000004
 30
0.0
  0
VERTEX
  8
Group044
 10
226.64231542755437
 20
-40.546260000000004
 30
0.0
  0
SEQEND
  8
Group044
  0
POLYLINE
  8
Group044
 62
0
 70
0
 66
1
 10
0.0
 20
0.0
 30
0.0
  0
VERTEX
  8
Group044
 10
225.89231542755437
 20
-41.29626
 30
0.0
  0
VERTEX
  8
Group044
 10
225.89231542755437
 20
-53.79626
 30
0.0
  0
SEQEND
  8
Group044
  0
POLYLINE
  8
Group044
 62
0
 70
0
 66
1
 10
0.0
 20
0.0
 30
0.0
  0
VERTEX
  8
Group044
 10
226.64231542755437
 20
-54.54626
 30
0.0
  0
VERTEX
  8
Group044
 10
239.14231542755437
 20
-54.54626
 30
0.0
  0
SEQEND
  8
Group044
  0
ARC
  8
Group017
 62
0
 10
8.029873942237682
 20
-22.286900000000003
 30
0.0
 40
0.75
 50
90.0
 51
-180.0
  0
ARC
  8
Group017
 62
0
 10
20.52987394223768
 20
-22.286900000000006
 30
0.0
 40
0.75
 50
-0.0
 51
90.0
  0
ARC
  8
Group017
 62
0
 10
8.029873942237682
 20
-34.7869
 30
0.0
 40
0.75
 50
-180.0
 51
-90.0
  0
ARC
  8
Group017
 62
0
 10
20.529873942237685
 20
-34.7869
 30
0.0
 40
0.75
 50
-90.0
 51
-0.0
  0
POLYLINE
  8
Group017
 62
0
 70
0
 66
1
 10
0.0
 20
0.0
 30
0.0
  0
VERTEX
  8
Group017
 10
21.279873942237685
 20
-34.7869
 30
0.0
  0
VERTEX
  8
Group017
 10
21.279873942237685
 20
-22.286900000000003
 30
0.0
  0
SEQEND
  8
Group017
  0
POLYLINE
  8
Group017
 62
0
 70
0
 66
1
 10
0.0
 20
0.0
 30
0.0
  0
VERTEX
  8
Group017
 10
20.52987394223768
 20
-21.536900000000006
 30
0.0
  0
VERTEX
  8
Group017
 10
8.029873942237682
 20
-21.536900000000003
 30
0.0
  0
SEQEND
  8
Group017
  0
POLYLINE
  8
Group017
 62
0
 70
0
 66
1
 10
0.0
 20
0.0
 30
0.0
  0
VERTEX
  8
Group017
 10
7.279873942237682
 20
-22.286900000000003
 30
0.0
  0
VERTEX
  8
Group017
 10
7.279873942237682
 20
-34.7869
 30
0.0
  0
SEQEND
  8
Group017
  0
POLYLINE
  8
Group017
 62
0
 70
0
 66
1
 10
0.0
 20
0.0
 30
0.0
  0
VERTEX
  8
Group017
 10
8.029873942237682
 20
-35.5369
 30
0.0
  0
VERTEX
  8
Group017
 10
20.52987394223768
 20
-35.5369
 30
0.0
  0
SEQEND
  8
Group017
  0
ARC
  8
Group018
 62
0
 10
31.791543669606018
 20
-22.286900000000003
 30
0.0
 40
0.75
 50
90.0
 51
-180.0
  0
ARC
  8
Group018
 62
0
 10
44.291543669606014
 20
-22.286900000000006
 30
0.0
 40
0.75
 50
-0.0
 51
90.0
  0
ARC
  8
Group018
 62
0
 10
31.791543669606018
 20
-34.7869
 30
0.0
 40
0.75
 50
-180.0
 51
-90.0
  0
ARC
  8
Group018
 62
0
 10
44.29154366960602
 20
-34.7869
 30
0.0
 40
0.75
 50
-90.0
 51
-0.0
  0
POLYLINE
  8
Group018
 62
0
 70
0
 66
1
 10
0.0
 20
0.0
 30
0.0
  0
VERTEX
  8
Group018
 10
45.04154366960602
 20
-34.7869
 30
0.0
  0
VERTEX
  8
Group018
 10
45.04154366960602
 20
-22.286900000000003
 30
0.0
  0
SEQEND
  8
Group018
  0
POLYLINE
  8
Group018
 62
0
 70
0
 66
1
 10
0.0
 20
0.0
 30
0.0
  0
VERTEX
  8
Group018
 10
44.291543669606014
 20
-21.536900000000006
 30
0.0
  0
VERTEX
  8
Group018
 10
31.791543669606018
 20
-21.536900000000003
 30
0.0
  0
SEQEND
  8
Group018
  0
POLYLINE
  8
Group018
 62
0
 70
0
 66
1
 10
0.0
 20
0.0
 30
0.0
  0
VERTEX
  8
Group018
 10
31.041543669606018
 20
-22.286900000000003
 30
0.0
  0
VERTEX
  8
Group018
 10
31.041543669606018
 20
-34.7869
 30
0.0
  0
SEQEND
  8
Group018
  0
POLYLINE
  8
Group018
 62
0
 70
0
 66
1
 10
0.0
 20
0.0
 30
0.0
  0
VERTEX
  8
Group018
 10
31.791543669606018
 20
-35.5369
 30
0.0
  0
VERTEX
  8
Group018
 10
44.291543669606014
 20
-35.5369
 30
0.0
  0
SEQEND
  8
Group018
  0
ARC
  8
Group019
 62
0
 10
50.80087945150068
 20
-22.286900000000003
 30
0.0
 40
0.75
 50
90.0
 51
-180.0
  0
ARC
  8
Group019
 62
0
 10
63.30087945150068
 20
-22.286900000000006
 30
0.0
 40
0.75
 50
-0.0
 51
90.0
  0
ARC
  8
Group019
 62
0
 10
50.80087945150068
 20
-34.7869
 30
0.0
 40
0.75
 50
-180.0
 51
-90.0
  0
ARC
  8
Group019
 62
0
 10
63.300879451500684
 20
-34.7869
 30
0.0
 40
0.75
 50
-90.0
 51
-0.0
  0
POLYLINE
  8
Group019
 62
0
 70
0
 66
1
 10
0.0
 20
0.0
 30
0.0
  0
VERTEX
  8
Group019
 10
64.05087945150069
 20
-34.7869
 30
0.0
  0
VERTEX
  8
Group019
 10
64.05087945150069
 20
-22.286900000000003
 30
0.0
  0
SEQEND
  8
Group019
  0
POLYLINE
  8
Group019
 62
0
 70
0
 66
1
 10
0.0
 20
0.0
 30
0.0
  0
VERTEX
  8
Group019
 10
63.30087945150068
 20
-21.536900000000006
 30
0.0
  0
VERTEX
  8
Group019
 10
50.80087945150068
 20
-21.536900000000003
 30
0.0
  0
SEQEND
  8
Group019
  0
POLYLINE
  8
Group019
 62
0
 70
0
 66
1
 10
0.0
 20
0.0
 30
0.0
  0
VERTEX
  8
Group019
 10
50.05087945150068
 20
-22.286900000000003
 30
0.0
  0
VERTEX
  8
Group019
 10
50.05087945150068
 20
-34.7869
 30
0.0
  0
SEQEND
  8
Group019
  0
POLYLINE
  8
Group019
 62
0
 70
0
 66
1
 10
0.0
 20
0.0
 30
0.0
  0
VERTEX
  8
Group019
 10
50.80087945150068
 20
-35.5369
 30
0.0
  0
VERTEX
  8
Group019
 10
63.30087945150068
 20
-35.5369
 30
0.0
  0
SEQEND
  8
Group019
  0
ARC
  8
Group020
 62
0
 10
69.81021523339535
 20
-22.286900000000003
 30
0.0
 40
0.75
 50
90.0
 51
-180.0
  0
ARC
  8
Group020
 62
0
 10
82.31021523339535
 20
-22.286900000000006
 30
0.0
 40
0.75
 50
-0.0
 51
90.0
  0
ARC
  8
Group020
 62
0
 10
69.81021523339535
 20
-34.7869
 30
0.0
 40
0.75
 50
-180.0
 51
-90.0
  0
ARC
  8
Group020
 62
0
 10
82.31021523339535
 20
-34.7869
 30
0.0
 40
0.75
 50
-90.0
 51
-0.0
  0
POLYLINE
  8
Group020
 62
0
 70
0
 66
1
 10
0.0
 20
0.0
 30
0.0
  0
VERTEX
  8
Group020
 10
83.06021523339535
 20
-34.7869
 30
0.0
  0
VERTEX
  8
Group020
 10
83.06021523339535
 20
-22.286900000000003
 30
0.0
  0
SEQEND
  8
Group020
  0
POLYLINE
  8
Group020
 62
0
 70
0
 66
1
 10
0.0
 20
0.0
 30
0.0
  0
VERTEX
  8
Group020
 10
82.31021523339535
 20
-21.536900000000006
 30
0.0
  0
VERTEX
  8
Group020
 10
69.81021523339535
 20
-21.536900000000003
 30
0.0
  0
SEQEND
  8
Group020
  0
POLYLINE
  8
Group020
 62
0
 70
0
 66
1
 10
0.0
 20
0.0
 30
0.0
  0
VERTEX
  8
Group020
 10
69.06021523339535
 20
-22.286900000000003
 30
0.0
  0
VERTEX
  8
Group020
 10
69.06021523339535
 20
-34.7869
 30
0.0
  0
SEQEND
  8
Group020
  0
POLYLINE
  8
Group020
 62
0
 70
0
 66
1
 10
0.0
 20
0.0
 30
0.0
  0
VERTEX
  8
Group020
 10
69.81021523339535
 20
-35.5369
 30
0.0
  0
VERTEX
  8
Group020
 10
82.31021523339535
 20
-35.5369
 30
0.0
  0
SEQEND
  8
Group020
  0
ARC
  8
Group021
 62
0
 10
88.82209101205405
 20
-22.286900000000003
 30
0.0
 40
0.75
 50
90.0
 51
-180.0
  0
ARC
  8
Group021
 62
0
 10
101.32209101205405
 20
-22.286900000000006
 30
0.0
 40
0.75
 50
-0.0
 51
90.0
  0
ARC
  8
Group021
 62
0
 10
88.82209101205405
 20
-34.7869
 30
0.0
 40
0.75
 50
-180.0
 51
-90.0
  0
ARC
  8
Group021
 62
0
 10
101.32209101205405
 20
-34.7869
 30
0.0
 40
0.75
 50
-90.0
 51
-0.0
  0
POLYLINE
  8
Group021
 62
0
 70
0
 66
1
 10
0.0
 20
0.0
 30
0.0
  0
VERTEX
  8
Group021
 10
102.07209101205405
 20
-34.7869
 30
0.0
  0
VERTEX
  8
Group021
 10
102.07209101205405
 20
-22.286900000000003
 30
0.0
  0
SEQEND
  8
Group021
  0
POLYLINE
  8
Group021
 62
0
 70
0
 66
1
 10
0.0
 20
0.0
 30
0.0
  0
VERTEX
  8
Group021
 10
101.32209101205405
 20
-21.536900000000006
 30
0.0
  0
VERTEX
  8
Group021
 10
88.82209101205405
 20
-21.536900000000003
 30
0.0
  0
SEQEND
  8
Group021
  0
POLYLINE
  8
Group021
 62
0
 70
0
 66
1
 10
0.0
 20
0.0
 30
0.0
  0
VERTEX
  8
Group021
 10
88.07209101205405
 20
-22.286900000000003
 30
0.0
  0
VERTEX
  8
Group021
 10
88.07209101205405
 20
-34.7869
 30
0.0
  0
SEQEND
  8
Group021
  0
POLYLINE
  8
Group021
 62
0
 70
0
 66
1
 10
0.0
 20
0.0
 30
0.0
  0
VERTEX
  8
Group021
 10
88.82209101205405
 20
-35.5369
 30
0.0
  0
VERTEX
  8
Group021
 10
101.32209101205405
 20
-35.5369
 30
0.0
  0
SEQEND
  8
Group021
  0
ARC
  8
Group022
 62
0
 10
107.83142679394871
 20
-22.286900000000003
 30
0.0
 40
0.75
 50
90.0
 51
-180.0
  0
ARC
  8
Group022
 62
0
 10
120.33142679394871
 20
-22.286900000000006
 30
0.0
 40
0.75
 50
-0.0
 51
90.0
  0
ARC
  8
Group022
 62
0
 10
107.83142679394871
 20
-34.7869
 30
0.0
 40
0.75
 50
-180.0
 51
-90.0
  0
ARC
  8
Group022
 62
0
 10
120.33142679394871
 20
-34.7869
 30
0.0
 40
0.75
 50
-90.0
 51
-0.0
  0
POLYLINE
  8
Group022
 62
0
 70
0
 66
1
 10
0.0
 20
0.0
 30
0.0
  0
VERTEX
  8
Group022
 10
121.08142679394871
 20
-34.7869
 30
0.0
  0
VERTEX
  8
Group022
 10
121.08142679394871
 20
-22.286900000000003
 30
0.0
  0
SEQEND
  8
Group022
  0
POLYLINE
  8
Group022
 62
0
 70
0
 66
1
 10
0.0
 20
0.0
 30
0.0
  0
VERTEX
  8
Group022
 10
120.33142679394871
 20
-21.536900000000006
 30
0.0
  0
VERTEX
  8
Group022
 10
107.83142679394871
 20
-21.536900000000003
 30
0.0
  0
SEQEND
  8
Group022
  0
POLYLINE
  8
Group022
 62
0
 70
0
 66
1
 10
0.0
 20
0.0
 30
0.0
  0
VERTEX
  8
Group022
 10
107.08142679394871
 20
-22.286900000000003
 30
0.0
  0
VERTEX
  8
Group022
 10
107.08142679394871
 20
-34.7869
 30
0.0
  0
SEQEND
  8
Group022
  0
POLYLINE
  8
Group022
 62
0
 70
0
 66
1
 10
0.0
 20
0.0
 30
0.0
  0
VERTEX
  8
Group022
 10
107.83142679394871
 20
-35.5369
 30
0.0
  0
VERTEX
  8
Group022
 10
120.33142679394871
 20
-35.5369
 30
0.0
  0
SEQEND
  8
Group022
  0
ARC
  8
Group023
 62
0
 10
126.84076257584337
 20
-22.286900000000003
 30
0.0
 40
0.75
 50
90.0
 51
-180.0
  0
ARC
  8
Group023
 62
0
 10
139.34076257584337
 20
-22.286900000000006
 30
0.0
 40
0.75
 50
-0.0
 51
90.0
  0
ARC
  8
Group023
 62
0
 10
126.84076257584337
 20
-34.7869
 30
0.0
 40
0.75
 50
-180.0
 51
-90.0
  0
ARC
  8
Group023
 62
0
 10
139.34076257584337
 20
-34.7869
 30
0.0
 40
0.75
 50
-90.0
 51
-0.0
  0
POLYLINE
  8
Group023
 62
0
 70
0
 66
1
 10
0.0
 20
0.0
 30
0.0
  0
VERTEX
  8
Group023
 10
140.09076257584337
 20
-34.7869
 30
0.0
  0
VERTEX
  8
Group023
 10
140.09076257584337
 20
-22.286900000000003
 30
0.0
  0
SEQEND
  8
Group023
  0
POLYLINE
  8
Group023
 62
0
 70
0
 66
1
 10
0.0
 20
0.0
 30
0.0
  0
VERTEX
  8
Group023
 10
139.34076257584337
 20
-21.536900000000006
 30
0.0
  0
VERTEX
  8
Group023
 10
126.84076257584337
 20
-21.536900000000003
 30
0.0
  0
SEQEND
  8
Group023
  0
POLYLINE
  8
Group023
 62
0
 70
0
 66
1
 10
0.0
 20
0.0
 30
0.0
  0
VERTEX
  8
Group023
 10
126.09076257584337
 20
-22.286900000000003
 30
0.0
  0
VERTEX
  8
Group023
 10
126.09076257584337
 20
-34.7869
 30
0.0
  0
SEQEND
  8
Group023
  0
POLYLINE
  8
Group023
 62
0
 70
0
 66
1
 10
0.0
 20
0.0
 30
0.0
  0
VERTEX
  8
Group023
 10
126.84076257584337
 20
-35.5369
 30
0.0
  0
VERTEX
  8
Group023
 10
139.34076257584337
 20
-35.5369
 30
0.0
  0
SEQEND
  8
Group023
  0
ARC
  8
Group024
 62
0
 10
145.85009835773803
 20
-22.286900000000003
 30
0.0
 40
0.75
 50
90.0
 51
-180.0
  0
ARC
  8
Group024
 62
0
 10
158.35009835773803
 20
-22.286900000000006
 30
0.0
 40
0.75
 50
-0.0
 51
90.0
  0
ARC
  8
Group024
 62
0
 10
145.85009835773803
 20
-34.7869
 30
0.0
 40
0.75
 50
-180.0
 51
-90.0
  0
ARC
  8
Group024
 62
0
 10
158.35009835773803
 20
-34.7869
 30
0.0
 40
0.75
 50
-90.0
 51
-0.0
  0
POLYLINE
  8
Group024
 62
0
 70
0
 66
1
 10
0.0
 20
0.0
 30
0.0
  0
VERTEX
  8
Group024
 10
159.10009835773803
 20
-34.7869
 30
0.0
  0
VERTEX
  8
Group024
 10
159.10009835773803
 20
-22.286900000000003
 30
0.0
  0
SEQEND
  8
Group024
  0
POLYLINE
  8
Group024
 62
0
 70
0
 66
1
 10
0.0
 20
0.0
 30
0.0
  0
VERTEX
  8
Group024
 10
158.35009835773803
 20
-21.536900000000006
 30
0.0
  0
VERTEX
  8
Group024
 10
145.85009835773803
 20
-21.536900000000003
 30
0.0
  0
SEQEND
  8
Group024
  0
POLYLINE
  8
Group024
 62
0
 70
0
 66
1
 10
0.0
 20
0.0
 30
0.0
  0
VERTEX
  8
Group024
 10
145.10009835773803
 20
-22.286900000000003
 30
0.0
  0
VERTEX
  8
Group024
 10
145.10009835773803
 20
-34.7869
 30
0.0
  0
SEQEND
  8
Group024
  0
POLYLINE
  8
Group024
 62
0
 70
0
 66
1
 10
0.0
 20
0.0
 30
0.0
  0
VERTEX
  8
Group024
 10
145.85009835773803
 20
-35.5369
 30
0.0
  0
VERTEX
  8
Group024
 10
158.35009835773803
 20
-35.5369
 30
0.0
  0
SEQEND
  8
Group024
  0
ARC
  8
Group025
 62
0
 10
164.86197413639673
 20
-22.286900000000003
 30
0.0
 40
0.75
 50
90.0
 51
-180.0
  0
ARC
  8
Group025
 62
0
 10
177.36197413639673
 20
-22.286900000000006
 30
0.0
 40
0.75
 50
-0.0
 51
90.0
  0
ARC
  8
Group025
 62
0
 10
164.86197413639673
 20
-34.7869
 30
0.0
 40
0.75
 50
-180.0
 51
-90.0
  0
ARC
  8
Group025
 62
0
 10
177.36197413639673
 20
-34.7869
 30
0.0
 40
0.75
 50
-90.0
 51
-0.0
  0
POLYLINE
  8
Group025
 62
0
 70
0
 66
1
 10
0.0
 20
0.0
 30
0.0
  0
VERTEX
  8
Group025
 10
178.11197413639673
 20
-34.7869
 30
0.0
  0
VERTEX
  8
Group025
 10
178.11197413639673
 20
-22.286900000000003
 30
0.0
  0
SEQEND
  8
Group025
  0
POLYLINE
  8
Group025
 62
0
 70
0
 66
1
 10
0.0
 20
0.0
 30
0.0
  0
VERTEX
  8
Group025
 10
177.36197413639673
 20
-21.536900000000006
 30
0.0
  0
VERTEX
  8
Group025
 10
164.86197413639673
 20
-21.536900000000003
 30
0.0
  0
SEQEND
  8
Group025
  0
POLYLINE
  8
Group025
 62
0
 70
0
 66
1
 10
0.0
 20
0.0
 30
0.0
  0
VERTEX
  8
Group025
 10
164.11197413639673
 20
-22.286900000000003
 30
0.0
  0
VERTEX
  8
Group025
 10
164.11197413639673
 20
-34.7869
 30
0.0
  0
SEQEND
  8
Group025
  0
POLYLINE
  8
Group025
 62
0
 70
0
 66
1
 10
0.0
 20
0.0
 30
0.0
  0
VERTEX
  8
Group025
 10
164.86197413639673
 20
-35.5369
 30
0.0
  0
VERTEX
  8
Group025
 10
177.36197413639673
 20
-35.5369
 30
0.0
  0
SEQEND
  8
Group025
  0
ARC
  8
Group026
 62
0
 10
183.8713099182914
 20
-22.286900000000003
 30
0.0
 40
0.75
 50
90.0
 51
-180.0
  0
ARC
  8
Group026
 62
0
 10
196.3713099182914
 20
-22.286900000000006
 30
0.0
 40
0.75
 50
-0.0
 51
90.0
  0
ARC
  8
Group026
 62
0
 10
183.8713099182914
 20
-34.7869
 30
0.0
 40
0.75
 50
-180.0
 51
-90.0
  0
ARC
  8
Group026
 62
0
 10
196.3713099182914
 20
-34.7869
 30
0.0
 40
0.75
 50
-90.0
 51
-0.0
  0
POLYLINE
  8
Group026
 62
0
 70
0
 66
1
 10
0.0
 20
0.0
 30
0.0
  0
VERTEX
  8
Group026
 10
197.1213099182914
 20
-34.7869
 30
0.0
  0
VERTEX
  8
Group026
 10
197.1213099182914
 20
-22.286900000000003
 30
0.0
  0
SEQEND
  8
Group026
  0
POLYLINE
  8
Group026
 62
0
 70
0
 66
1
 10
0.0
 20
0.0
 30
0.0
  0
VERTEX
  8
Group026
 10
196.3713099182914
 20
-21.536900000000006
 30
0.0
  0
VERTEX
  8
Group026
 10
183.8713099182914
 20
-21.536900000000003
 30
0.0
  0
SEQEND
  8
Group026
  0
POLYLINE
  8
Group026
 62
0
 70
0
 66
1
 10
0.0
 20
0.0
 30
0.0
  0
VERTEX
  8
Group026
 10
183.1213099182914
 20
-22.286900000000003
 30
0.0
  0
VERTEX
  8
Group026
 10
183.1213099182914
 20
-34.7869
 30
0.0
  0
SEQEND
  8
Group026
  0
POLYLINE
  8
Group026
 62
0
 70
0
 66
1
 10
0.0
 20
0.0
 30
0.0
  0
VERTEX
  8
Group026
 10
183.8713099182914
 20
-35.5369
 30
0.0
  0
VERTEX
  8
Group026
 10
196.3713099182914
 20
-35.5369
 30
0.0
  0
SEQEND
  8
Group026
  0
ARC
  8
Group027
 62
0
 10
202.88064570018608
 20
-22.286900000000003
 30
0.0
 40
0.75
 50
90.0
 51
-180.0
  0
ARC
  8
Group027
 62
0
 10
215.38064570018608
 20
-22.286900000000006
 30
0.0
 40
0.75
 50
-0.0
 51
90.0
  0
ARC
  8
Group027
 62
0
 10
202.88064570018608
 20
-34.7869
 30
0.0
 40
0.75
 50
-180.0
 51
-90.0
  0
ARC
  8
Group027
 62
0
 10
215.38064570018608
 20
-34.7869
 30
0.0
 40
0.75
 50
-90.0
 51
-0.0
  0
POLYLINE
  8
Group027
 62
0
 70
0
 66
1
 10
0.0
 20
0.0
 30
0.0
  0
VERTEX
  8
Group027
 10
216.13064570018608
 20
-34.7869
 30
0.0
  0
VERTEX
  8
Group027
 10
216.13064570018608
 20
-22.286900000000003
 30
0.0
  0
SEQEND
  8
Group027
  0
POLYLINE
  8
Group027
 62
0
 70
0
 66
1
 10
0.0
 20
0.0
 30
0.0
  0
VERTEX
  8
Group027
 10
215.38064570018608
 20
-21.536900000000006
 30
0.0
  0
VERTEX
  8
Group027
 10
202.88064570018608
 20
-21.536900000000003
 30
0.0
  0
SEQEND
  8
Group027
  0
POLYLINE
  8
Group027
 62
0
 70
0
 66
1
 10
0.0
 20
0.0
 30
0.0
  0
VERTEX
  8
Group027
 10
202.13064570018608
 20
-22.286900000000003
 30
0.0
  0
VERTEX
  8
Group027
 10
202.13064570018608
 20
-34.7869
 30
0.0
  0
SEQEND
  8
Group027
  0
POLYLINE
  8
Group027
 62
0
 70
0
 66
1
 10
0.0
 20
0.0
 30
0.0
  0
VERTEX
  8
Group027
 10
202.88064570018608
 20
-35.5369
 30
0.0
  0
VERTEX
  8
Group027
 10
215.38064570018608
 20
-35.5369
 30
0.0
  0
SEQEND
  8
Group027
  0
ARC
  8
Group028
 62
0
 10
221.88998148208074
 20
-22.286900000000003
 30
0.0
 40
0.75
 50
90.0
 51
-180.0
  0
ARC
  8
Group028
 62
0
 10
234.38998148208074
 20
-22.286900000000006
 30
0.0
 40
0.75
 50
-0.0
 51
90.0
  0
ARC
  8
Group028
 62
0
 10
221.88998148208074
 20
-34.7869
 30
0.0
 40
0.75
 50
-180.0
 51
-90.0
  0
ARC
  8
Group028
 62
0
 10
234.38998148208074
 20
-34.7869
 30
0.0
 40
0.75
 50
-90.0
 51
-0.0
  0
POLYLINE
  8
Group028
 62
0
 70
0
 66
1
 10
0.0
 20
0.0
 30
0.0
  0
VERTEX
  8
Group028
 10
235.13998148208074
 20
-34.7869
 30
0.0
  0
VERTEX
  8
Group028
 10
235.13998148208074
 20
-22.286900000000003
 30
0.0
  0
SEQEND
  8
Group028
  0
POLYLINE
  8
Group028
 62
0
 70
0
 66
1
 10
0.0
 20
0.0
 30
0.0
  0
VERTEX
  8
Group028
 10
234.38998148208074
 20
-21.536900000000006
 30
0.0
  0
VERTEX
  8
Group028
 10
221.88998148208074
 20
-21.536900000000003
 30
0.0
  0
SEQEND
  8
Group028
  0
POLYLINE
  8
Group028
 62
0
 70
0
 66
1
 10
0.0
 20
0.0
 30
0.0
  0
VERTEX
  8
Group028
 10
221.13998148208074
 20
-22.286900000000003
 30
0.0
  0
VERTEX
  8
Group028
 10
221.13998148208074
 20
-34.7869
 30
0.0
  0
SEQEND
  8
Group028
  0
POLYLINE
  8
Group028
 62
0
 70
0
 66
1
 10
0.0
 20
0.0
 30
0.0
  0
VERTEX
  8
Group028
 10
221.88998148208074
 20
-35.5369
 30
0.0
  0
VERTEX
  8
Group028
 10
234.38998148208074
 20
-35.5369
 30
0.0
  0
SEQEND
  8
Group028
  0
ARC
  8
Group029
 62
0
 10
240.90185726073943
 20
-22.286900000000003
 30
0.0
 40
0.75
 50
90.0
 51
-180.0
  0
ARC
  8
Group029
 62
0
 10
253.40185726073943
 20
-22.286900000000006
 30
0.0
 40
0.75
 50
-0.0
 51
90.0
  0
ARC
  8
Group029
 62
0
 10
240.90185726073943
 20
-34.7869
 30
0.0
 40
0.75
 50
-180.0
 51
-90.0
  0
ARC
  8
Group029
 62
0
 10
253.40185726073943
 20
-34.7869
 30
0.0
 40
0.75
 50
-90.0
 51
-0.0
  0
POLYLINE
  8
Group029
 62
0
 70
0
 66
1
 10
0.0
 20
0.0
 30
0.0
  0
VERTEX
  8
Group029
 10
254.15185726073943
 20
-34.7869
 30
0.0
  0
VERTEX
  8
Group029
 10
254.15185726073943
 20
-22.286900000000003
 30
0.0
  0
SEQEND
  8
Group029
  0
POLYLINE
  8
Group029
 62
0
 70
0
 66
1
 10
0.0
 20
0.0
 30
0.0
  0
VERTEX
  8
Group029
 10
253.40185726073943
 20
-21.536900000000006
 30
0.0
  0
VERTEX
  8
Group029
 10
240.90185726073943
 20
-21.536900000000003
 30
0.0
  0
SEQEND
  8
Group029
  0
POLYLINE
  8
Group029
 62
0
 70
0
 66
1
 10
0.0
 20
0.0
 30
0.0
  0
VERTEX
  8
Group029
 10
240.15185726073943
 20
-22.286900000000003
 30
0.0
  0
VERTEX
  8
Group029
 10
240.15185726073943
 20
-34.7869
 30
0.0
  0
SEQEND
  8
Group029
  0
POLYLINE
  8
Group029
 62
0
 70
0
 66
1
 10
0.0
 20
0.0
 30
0.0
  0
VERTEX
  8
Group029
 10
240.90185726073943
 20
-35.5369
 30
0.0
  0
VERTEX
  8
Group029
 10
253.40185726073943
 20
-35.5369
 30
0.0
  0
SEQEND
  8
Group029
  0
ARC
  8
Group031
 62
0
 10
298.2295842245773
 20
-22.286900000000003
 30
0.0
 40
0.75
 50
90.0
 51
-180.0
  0
ARC
  8
Group031
 62
0
 10
310.7295842245773
 20
-22.286900000000006
 30
0.0
 40
0.75
 50
-0.0
 51
90.0
  0
ARC
  8
Group031
 62
0
 10
298.2295842245773
 20
-34.7869
 30
0.0
 40
0.75
 50
-180.0
 51
-90.0
  0
ARC
  8
Group031
 62
0
 10
310.7295842245773
 20
-34.7869
 30
0.0
 40
0.75
 50
-90.0
 51
-0.0
  0
POLYLINE
  8
Group031
 62
0
 70
0
 66
1
 10
0.0
 20
0.0
 30
0.0
  0
VERTEX
  8
Group031
 10
311.4795842245773
 20
-34.7869
 30
0.0
  0
VERTEX
  8
Group031
 10
311.4795842245773
 20
-22.286900000000003
 30
0.0
  0
SEQEND
  8
Group031
  0
POLYLINE
  8
Group031
 62
0
 70
0
 66
1
 10
0.0
 20
0.0
 30
0.0
  0
VERTEX
  8
Group031
 10
310.7295842245773
 20
-21.536900000000006
 30
0.0
  0
VERTEX
  8
Group031
 10
298.2295842245773
 20
-21.536900000000003
 30
0.0
  0
SEQEND
  8
Group031
  0
POLYLINE
  8
Group031
 62
0
 70
0
 66
1
 10
0.0
 20
0.0
 30
0.0
  0
VERTEX
  8
Group031
 10
297.4795842245773
 20
-22.286900000000003
 30
0.0
  0
VERTEX
  8
Group031
 10
297.4795842245773
 20
-34.7869
 30
0.0
  0
SEQEND
  8
Group031
  0
POLYLINE
  8
Group031
 62
0
 70
0
 66
1
 10
0.0
 20
0.0
 30
0.0
  0
VERTEX
  8
Group031
 10
298.2295842245773
 20
-35.5369
 30
0.0
  0
VERTEX
  8
Group031
 10
310.7295842245773
 20
-35.5369
 30
0.0
  0
SEQEND
  8
Group031
  0
ARC
  8
Group001
 62
0
 10
22.28687577865868
 20
-3.274999999999999
 30
0.0
 40
0.75
 50
90.0
 51
-180.0
  0
ARC
  8
Group001
 62
0
 10
34.786875778658676
 20
-3.275000000000001
 30
0.0
 40
0.75
 50
-0.0
 51
90.0
  0
ARC
  8
Group001
 62
0
 10
22.28687577865868
 20
-15.774999999999995
 30
0.0
 40
0.75
 50
-180.0
 51
-90.0
  0
ARC
  8
Group001
 62
0
 10
34.78687577865868
 20
-15.774999999999999
 30
0.0
 40
0.75
 50
-90.0
 51
-0.0
  0
POLYLINE
  8
Group001
 62
0
 70
0
 66
1
 10
0.0
 20
0.0
 30
0.0
  0
VERTEX
  8
Group001
 10
35.53687577865868
 20
-15.774999999999999
 30
0.0
  0
VERTEX
  8
Group001
 10
35.53687577865868
 20
-3.2750000000000004
 30
0.0
  0
SEQEND
  8
Group001
  0
POLYLINE
  8
Group001
 62
0
 70
0
 66
1
 10
0.0
 20
0.0
 30
0.0
  0
VERTEX
  8
Group001
 10
34.786875778658676
 20
-2.525000000000001
 30
0.0
  0
VERTEX
  8
Group001
 10
22.28687577865868
 20
-2.5249999999999986
 30
0.0
  0
SEQEND
  8
Group001
  0
POLYLINE
  8
Group001
 62
0
 70
0
 66
1
 10
0.0
 20
0.0
 30
0.0
  0
VERTEX
  8
Group001
 10
21.53687577865868
 20
-3.274999999999999
 30
0.0
  0
VERTEX
  8
Group001
 10
21.53687577865868
 20
-15.774999999999995
 30
0.0
  0
SEQEND
  8
Group001
  0
POLYLINE
  8
Group001
 62
0
 70
0
 66
1
 10
0.0
 20
0.0
 30
0.0
  0
VERTEX
  8
Group001
 10
22.28687577865868
 20
-16.524999999999995
 30
0.0
  0
VERTEX
  8
Group001
 10
34.786875778658676
 20
-16.525
 30
0.0
  0
SEQEND
  8
Group001
  0
ARC
  8
Group002
 62
0
 10
41.296211560553346
 20
-3.274999999999999
 30
0.0
 40
0.75
 50
90.0
 51
-180.0
  0
ARC
  8
Group002
 62
0
 10
53.796211560553346
 20
-3.275000000000001
 30
0.0
 40
0.75
 50
-0.0
 51
90.0
  0
ARC
  8
Group002
 62
0
 10
41.296211560553346
 20
-15.774999999999995
 30
0.0
 40
0.75
 50
-180.0
 51
-90.0
  0
ARC
  8
Group002
 62
0
 10
53.79621156055335
 20
-15.774999999999999
 30
0.0
 40
0.75
 50
-90.0
 51
-0.0
  0
POLYLINE
  8
Group002
 62
0
 70
0
 66
1
 10
0.0
 20
0.0
 30
0.0
  0
VERTEX
  8
Group002
 10
54.54621156055335
 20
-15.774999999999999
 30
0.0
  0
VERTEX
  8
Group002
 10
54.54621156055335
 20
-3.2750000000000004
 30
0.0
  0
SEQEND
  8
Group002
  0
POLYLINE
  8
Group002
 62
0
 70
0
 66
1
 10
0.0
 20
0.0
 30
0.0
  0
VERTEX
  8
Group002
 10
53.796211560553346
 20
-2.525000000000001
 30
0.0
  0
VERTEX
  8
Group002
 10
41.296211560553346
 20
-2.5249999999999986
 30
0.0
  0
SEQEND
  8
Group002
  0
POLYLINE
  8
Group002
 62
0
 70
0
 66
1
 10
0.0
 20
0.0
 30
0.0
  0
VERTEX
  8
Group002
 10
40.546211560553346
 20
-3.274999999999999
 30
0.0
  0
VERTEX
  8
Group002
 10
40.546211560553346
 20
-15.774999999999995
 30
0.0
  0
SEQEND
  8
Group002
  0
POLYLINE
  8
Group002
 62
0
 70
0
 66
1
 10
0.0
 20
0.0
 30
0.0
  0
VERTEX
  8
Group002
 10
41.296211560553346
 20
-16.524999999999995
 30
0.0
  0
VERTEX
  8
Group002
 10
53.796211560553346
 20
-16.525
 30
0.0
  0
SEQEND
  8
Group002
  0
ARC
  8
Group003
 62
0
 10
60.305547342448016
 20
-3.274999999999999
 30
0.0
 40
0.75
 50
90.0
 51
-180.0
  0
ARC
  8
Group003
 62
0
 10
72.80554734244802
 20
-3.275000000000001
 30
0.0
 40
0.75
 50
-0.0
 51
90.0
  0
ARC
  8
Group003
 62
0
 10
60.305547342448016
 20
-15.774999999999995
 30
0.0
 40
0.75
 50
-180.0
 51
-90.0
  0
ARC
  8
Group003
 62
0
 10
72.80554734244802
 20
-15.774999999999999
 30
0.0
 40
0.75
 50
-90.0
 51
-0.0
  0
POLYLINE
  8
Group003
 62
0
 70
0
 66
1
 10
0.0
 20
0.0
 30
0.0
  0
VERTEX
  8
Group003
 10
73.55554734244802
 20
-15.774999999999999
 30
0.0
  0
VERTEX
  8
Group003
 10
73.55554734244802
 20
-3.2750000000000004
 30
0.0
  0
SEQEND
  8
Group003
  0
POLYLINE
  8
Group003
 62
0
 70
0
 66
1
 10
0.0
 20
0.0
 30
0.0
  0
VERTEX
  8
Group003
 10
72.80554734244802
 20
-2.525000000000001
 30
0.0
  0
VERTEX
  8
Group003
 10
60.30554734244802
 20
-2.5249999999999986
 30
0.0
  0
SEQEND
  8
Group003
  0
POLYLINE
  8
Group003
 62
0
 70
0
 66
1
 10
0.0
 20
0.0
 30
0.0
  0
VERTEX
  8
Group003
 10
59.555547342448016
 20
-3.274999999999999
 30
0.0
  0
VERTEX
  8
Group003
 10
59.555547342448016
 20
-15.774999999999995
 30
0.0
  0
SEQEND
  8
Group003
  0
POLYLINE
  8
Group003
 62
0
 70
0
 66
1
 10
0.0
 20
0.0
 30
0.0
  0
VERTEX
  8
Group003
 10
60.305547342448016
 20
-16.524999999999995
 30
0.0
  0
VERTEX
  8
Group003
 10
72.80554734244802
 20
-16.525
 30
0.0
  0
SEQEND
  8
Group003
  0
ARC
  8
Group004
 62
0
 10
79.31488312434269
 20
-3.274999999999999
 30
0.0
 40
0.75
 50
90.0
 51
-180.0
  0
ARC
  8
Group004
 62
0
 10
91.81488312434269
 20
-3.275000000000001
 30
0.0
 40
0.75
 50
-0.0
 51
90.0
  0
ARC
  8
Group004
 62
0
 10
79.31488312434269
 20
-15.774999999999995
 30
0.0
 40
0.75
 50
-180.0
 51
-90.0
  0
ARC
  8
Group004
 62
0
 10
91.81488312434269
 20
-15.774999999999999
 30
0.0
 40
0.75
 50
-90.0
 51
-0.0
  0
POLYLINE
  8
Group004
 62
0
 70
0
 66
1
 10
0.0
 20
0.0
 30
0.0
  0
VERTEX
  8
Group004
 10
92.56488312434269
 20
-15.774999999999999
 30
0.0
  0
VERTEX
  8
Group004
 10
92.56488312434269
 20
-3.2750000000000004
 30
0.0
  0
SEQEND
  8
Group004
  0
POLYLINE
  8
Group004
 62
0
 70
0
 66
1
 10
0.0
 20
0.0
 30
0.0
  0
VERTEX
  8
Group004
 10
91.81488312434269
 20
-2.525000000000001
 30
0.0
  0
VERTEX
  8
Group004
 10
79.31488312434269
 20
-2.5249999999999986
 30
0.0
  0
SEQEND
  8
Group004
  0
POLYLINE
  8
Group004
 62
0
 70
0
 66
1
 10
0.0
 20
0.0
 30
0.0
  0
VERTEX
  8
Group004
 10
78.56488312434269
 20
-3.274999999999999
 30
0.0
  0
VERTEX
  8
Group004
 10
78.56488312434269
 20
-15.774999999999995
 30
0.0
  0
SEQEND
  8
Group004
  0
POLYLINE
  8
Group004
 62
0
 70
0
 66
1
 10
0.0
 20
0.0
 30
0.0
  0
VERTEX
  8
Group004
 10
79.31488312434269
 20
-16.524999999999995
 30
0.0
  0
VERTEX
  8
Group004
 10
91.81488312434269
 20
-16.525
 30
0.0
  0
SEQEND
  8
Group004
  0
ARC
  8
Group005
 62
0
 10
98.32675890300138
 20
-3.274999999999999
 30
0.0
 40
0.75
 50
90.0
 51
-180.0
  0
ARC
  8
Group005
 62
0
 10
110.82675890300138
 20
-3.275000000000001
 30
0.0
 40
0.75
 50
-0.0
 51
90.0
  0
ARC
  8
Group005
 62
0
 10
98.32675890300138
 20
-15.774999999999995
 30
0.0
 40
0.75
 50
-180.0
 51
-90.0
  0
ARC
  8
Group005
 62
0
 10
110.82675890300138
 20
-15.774999999999999
 30
0.0
 40
0.75
 50
-90.0
 51
-0.0
  0
POLYLINE
  8
Group005
 62
0
 70
0
 66
1
 10
0.0
 20
0.0
 30
0.0
  0
VERTEX
  8
Group005
 10
111.57675890300138
 20
-15.774999999999999
 30
0.0
  0
VERTEX
  8
Group005
 10
111.57675890300138
 20
-3.2750000000000004
 30
0.0
  0
SEQEND
  8
Group005
  0
POLYLINE
  8
Group005
 62
0
 70
0
 66
1
 10
0.0
 20
0.0
 30
0.0
  0
VERTEX
  8
Group005
 10
110.82675890300138
 20
-2.525000000000001
 30
0.0
  0
VERTEX
  8
Group005
 10
98.32675890300138
 20
-2.5249999999999986
 30
0.0
  0
SEQEND
  8
Group005
  0
POLYLINE
  8
Group005
 62
0
 70
0
 66
1
 10
0.0
 20
0.0
 30
0.0
  0
VERTEX
  8
Group005
 10
97.57675890300138
 20
-3.274999999999999
 30
0.0
  0
VERTEX
  8
Group005
 10
97.57675890300138
 20
-15.774999999999995
 30
0.0
  0
SEQEND
  8
Group005
  0
POLYLINE
  8
Group005
 62
0
 70
0
 66
1
 10
0.0
 20
0.0
 30
0.0
  0
VERTEX
  8
Group005
 10
98.32675890300138
 20
-16.524999999999995
 30
0.0
  0
VERTEX
  8
Group005
 10
110.82675890300138
 20
-16.525
 30
0.0
  0
SEQEND
  8
Group005
  0
ARC
  8
Group006
 62
0
 10
117.33609468489604
 20
-3.274999999999999
 30
0.0
 40
0.75
 50
90.0
 51
-180.0
  0
ARC
  8
Group006
 62
0
 10
129.83609468489604
 20
-3.275000000000001
 30
0.0
 40
0.75
 50
-0.0
 51
90.0
  0
ARC
  8
Group006
 62
0
 10
117.33609468489604
 20
-15.774999999999995
 30
0.0
 40
0.75
 50
-180.0
 51
-90.0
  0
ARC
  8
Group006
 62
0
 10
129.83609468489604
 20
-15.774999999999999
 30
0.0
 40
0.75
 50
-90.0
 51
-0.0
  0
POLYLINE
  8
Group006
 62
0
 70
0
 66
1
 10
0.0
 20
0.0
 30
0.0
  0
VERTEX
  8
Group006
 10
130.58609468489604
 20
-15.774999999999999
 30
0.0
  0
VERTEX
  8
Group006
 10
130.58609468489604
 20
-3.2750000000000004
 30
0.0
  0
SEQEND
  8
Group006
  0
POLYLINE
  8
Group006
 62
0
 70
0
 66
1
 10
0.0
 20
0.0
 30
0.0
  0
VERTEX
  8
Group006
 10
129.83609468489604
 20
-2.525000000000001
 30
0.0
  0
VERTEX
  8
Group006
 10
117.33609468489604
 20
-2.5249999999999986
 30
0.0
  0
SEQEND
  8
Group006
  0
POLYLINE
  8
Group006
 62
0
 70
0
 66
1
 10
0.0
 20
0.0
 30
0.0
  0
VERTEX
  8
Group006
 10
116.58609468489604
 20
-3.274999999999999
 30
0.0
  0
VERTEX
  8
Group006
 10
116.58609468489604
 20
-15.774999999999995
 30
0.0
  0
SEQEND
  8
Group006
  0
POLYLINE
  8
Group006
 62
0
 70
0
 66
1
 10
0.0
 20
0.0
 30
0.0
  0
VERTEX
  8
Group006
 10
117.33609468489604
 20
-16.524999999999995
 30
0.0
  0
VERTEX
  8
Group006
 10
129.83609468489604
 20
-16.525
 30
0.0
  0
SEQEND
  8
Group006
  0
ARC
  8
Group007
 62
0
 10
136.3454304667907
 20
-3.274999999999999
 30
0.0
 40
0.75
 50
90.0
 51
-180.0
  0
ARC
  8
Group007
 62
0
 10
148.8454304667907
 20
-3.275000000000001
 30
0.0
 40
0.75
 50
-0.0
 51
90.0
  0
ARC
  8
Group007
 62
0
 10
136.3454304667907
 20
-15.774999999999995
 30
0.0
 40
0.75
 50
-180.0
 51
-90.0
  0
ARC
  8
Group007
 62
0
 10
148.8454304667907
 20
-15.774999999999999
 30
0.0
 40
0.75
 50
-90.0
 51
-0.0
  0
POLYLINE
  8
Group007
 62
0
 70
0
 66
1
 10
0.0
 20
0.0
 30
0.0
  0
VERTEX
  8
Group007
 10
149.5954304667907
 20
-15.774999999999999
 30
0.0
  0
VERTEX
  8
Group007
 10
149.5954304667907
 20
-3.2750000000000004
 30
0.0
  0
SEQEND
  8
Group007
  0
POLYLINE
  8
Group007
 62
0
 70
0
 66
1
 10
0.0
 20
0.0
 30
0.0
  0
VERTEX
  8
Group007
 10
148.8454304667907
 20
-2.525000000000001
 30
0.0
  0
VERTEX
  8
Group007
 10
136.3454304667907
 20
-2.5249999999999986
 30
0.0
  0
SEQEND
  8
Group007
  0
POLYLINE
  8
Group007
 62
0
 70
0
 66
1
 10
0.0
 20
0.0
 30
0.0
  0
VERTEX
  8
Group007
 10
135.5954304667907
 20
-3.274999999999999
 30
0.0
  0
VERTEX
  8
Group007
 10
135.5954304667907
 20
-15.774999999999995
 30
0.0
  0
SEQEND
  8
Group007
  0
POLYLINE
  8
Group007
 62
0
 70
0
 66
1
 10
0.0
 20
0.0
 30
0.0
  0
VERTEX
  8
Group007
 10
136.3454304667907
 20
-16.524999999999995
 30
0.0
  0
VERTEX
  8
Group007
 10
148.8454304667907
 20
-16.525
 30
0.0
  0
SEQEND
  8
Group007
  0
ARC
  8
Group008
 62
0
 10
155.3547662486854
 20
-3.274999999999999
 30
0.0
 40
0.75
 50
90.0
 51
-180.0
  0
ARC
  8
Group008
 62
0
 10
167.8547662486854
 20
-3.275000000000001
 30
0.0
 40
0.75
 50
-0.0
 51
90.0
  0
ARC
  8
Group008
 62
0
 10
155.3547662486854
 20
-15.774999999999995
 30
0.0
 40
0.75
 50
-180.0
 51
-90.0
  0
ARC
  8
Group008
 62
0
 10
167.8547662486854
 20
-15.774999999999999
 30
0.0
 40
0.75
 50
-90.0
 51
-0.0
  0
POLYLINE
  8
Group008
 62
0
 70
0
 66
1
 10
0.0
 20
0.0
 30
0.0
  0
VERTEX
  8
Group008
 10
168.6047662486854
 20
-15.774999999999999
 30
0.0
  0
VERTEX
  8
Group008
 10
168.6047662486854
 20
-3.2750000000000004
 30
0.0
  0
SEQEND
  8
Group008
  0
POLYLINE
  8
Group008
 62
0
 70
0
 66
1
 10
0.0
 20
0.0
 30
0.0
  0
VERTEX
  8
Group008
 10
167.8547662486854
 20
-2.525000000000001
 30
0.0
  0
VERTEX
  8
Group008
 10
155.3547662486854
 20
-2.5249999999999986
 30
0.0
  0
SEQEND
  8
Group008
  0
POLYLINE
  8
Group008
 62
0
 70
0
 66
1
 10
0.0
 20
0.0
 30
0.0
  0
VERTEX
  8
Group008
 10
154.6047662486854
 20
-3.274999999999999
 30
0.0
  0
VERTEX
  8
Group008
 10
154.6047662486854
 20
-15.774999999999995
 30
0.0
  0
SEQEND
  8
Group008
  0
POLYLINE
  8
Group008
 62
0
 70
0
 66
1
 10
0.0
 20
0.0
 30
0.0
  0
VERTEX
  8
Group008
 10
155.3547662486854
 20
-16.524999999999995
 30
0.0
  0
VERTEX
  8
Group008
 10
167.8547662486854
 20
-16.525
 30
0.0
  0
SEQEND
  8
Group008
  0
ARC
  8
Group009
 62
0
 10
174.36664202734406
 20
-3.274999999999999
 30
0.0
 40
0.75
 50
90.0
 51
-180.0
  0
ARC
  8
Group009
 62
0
 10
186.86664202734406
 20
-3.275000000000001
 30
0.0
 40
0.75
 50
-0.0
 51
90.0
  0
ARC
  8
Group009
 62
0
 10
174.36664202734406
 20
-15.774999999999995
 30
0.0
 40
0.75
 50
-180.0
 51
-90.0
  0
ARC
  8
Group009
 62
0
 10
186.86664202734406
 20
-15.774999999999999
 30
0.0
 40
0.75
 50
-90.0
 51
-0.0
  0
POLYLINE
  8
Group009
 62
0
 70
0
 66
1
 10
0.0
 20
0.0
 30
0.0
  0
VERTEX
  8
Group009
 10
187.61664202734406
 20
-15.774999999999999
 30
0.0
  0
VERTEX
  8
Group009
 10
187.61664202734406
 20
-3.2750000000000004
 30
0.0
  0
SEQEND
  8
Group009
  0
POLYLINE
  8
Group009
 62
0
 70
0
 66
1
 10
0.0
 20
0.0
 30
0.0
  0
VERTEX
  8
Group009
 10
186.86664202734406
 20
-2.525000000000001
 30
0.0
  0
VERTEX
  8
Group009
 10
174.36664202734406
 20
-2.5249999999999986
 30
0.0
  0
SEQEND
  8
Group009
  0
POLYLINE
  8
Group009
 62
0
 70
0
 66
1
 10
0.0
 20
0.0
 30
0.0
  0
VERTEX
  8
Group009
 10
173.61664202734406
 20
-3.274999999999999
 30
0.0
  0
VERTEX
  8
Group009
 10
173.61664202734406
 20
-15.774999999999995
 30
0.0
  0
SEQEND
  8
Group009
  0
POLYLINE
  8
Group009
 62
0
 70
0
 66
1
 10
0.0
 20
0.0
 30
0.0
  0
VERTEX
  8
Group009
 10
174.36664202734406
 20
-16.524999999999995
 30
0.0
  0
VERTEX
  8
Group009
 10
186.86664202734406
 20
-16.525
 30
0.0
  0
SEQEND
  8
Group009
  0
ARC
  8
Group010
 62
0
 10
193.37597780923875
 20
-3.274999999999999
 30
0.0
 40
0.75
 50
90.0
 51
-180.0
  0
ARC
  8
Group010
 62
0
 10
205.87597780923875
 20
-3.275000000000001
 30
0.0
 40
0.75
 50
-0.0
 51
90.0
  0
ARC
  8
Group010
 62
0
 10
193.37597780923875
 20
-15.774999999999995
 30
0.0
 40
0.75
 50
-180.0
 51
-90.0
  0
ARC
  8
Group010
 62
0
 10
205.87597780923875
 20
-15.774999999999999
 30
0.0
 40
0.75
 50
-90.0
 51
-0.0
  0
POLYLINE
  8
Group010
 62
0
 70
0
 66
1
 10
0.0
 20
0.0
 30
0.0
  0
VERTEX
  8
Group010
 10
206.62597780923875
 20
-15.774999999999999
 30
0.0
  0
VERTEX
  8
Group010
 10
206.62597780923875
 20
-3.2750000000000004
 30
0.0
  0
SEQEND
  8
Group010
  0
POLYLINE
  8
Group010
 62
0
 70
0
 66
1
 10
0.0
 20
0.0
 30
0.0
  0
VERTEX
  8
Group010
 10
205.87597780923875
 20
-2.525000000000001
 30
0.0
  0
VERTEX
  8
Group010
 10
193.37597780923875
 20
-2.5249999999999986
 30
0.0
  0
SEQEND
  8
Group010
  0
POLYLINE
  8
Group010
 62
0
 70
0
 66
1
 10
0.0
 20
0.0
 30
0.0
  0
VERTEX
  8
Group010
 10
192.62597780923875
 20
-3.274999999999999
 30
0.0
  0
VERTEX
  8
Group010
 10
192.62597780923875
 20
-15.774999999999995
 30
0.0
  0
SEQEND
  8
Group010
  0
POLYLINE
  8
Group010
 62
0
 70
0
 66
1
 10
0.0
 20
0.0
 30
0.0
  0
VERTEX
  8
Group010
 10
193.37597780923875
 20
-16.524999999999995
 30
0.0
  0
VERTEX
  8
Group010
 10
205.87597780923875
 20
-16.525
 30
0.0
  0
SEQEND
  8
Group010
  0
ARC
  8
Group011
 62
0
 10
212.3853135911334
 20
-3.274999999999999
 30
0.0
 40
0.75
 50
90.0
 51
-180.0
  0
ARC
  8
Group011
 62
0
 10
224.8853135911334
 20
-3.275000000000001
 30
0.0
 40
0.75
 50
-0.0
 51
90.0
  0
ARC
  8
Group011
 62
0
 10
212.3853135911334
 20
-15.774999999999995
 30
0.0
 40
0.75
 50
-180.0
 51
-90.0
  0
ARC
  8
Group011
 62
0
 10
224.8853135911334
 20
-15.774999999999999
 30
0.0
 40
0.75
 50
-90.0
 51
-0.0
  0
POLYLINE
  8
Group011
 62
0
 70
0
 66
1
 10
0.0
 20
0.0
 30
0.0
  0
VERTEX
  8
Group011
 10
225.6353135911334
 20
-15.774999999999999
 30
0.0
  0
VERTEX
  8
Group011
 10
225.6353135911334
 20
-3.2750000000000004
 30
0.0
  0
SEQEND
  8
Group011
  0
POLYLINE
  8
Group011
 62
0
 70
0
 66
1
 10
0.0
 20
0.0
 30
0.0
  0
VERTEX
  8
Group011
 10
224.8853135911334
 20
-2.525000000000001
 30
0.0
  0
VERTEX
  8
Group011
 10
212.3853135911334
 20
-2.5249999999999986
 30
0.0
  0
SEQEND
  8
Group011
  0
POLYLINE
  8
Group011
 62
0
 70
0
 66
1
 10
0.0
 20
0.0
 30
0.0
  0
VERTEX
  8
Group011
 10
211.6353135911334
 20
-3.274999999999999
 30
0.0
  0
VERTEX
  8
Group011
 10
211.6353135911334
 20
-15.774999999999995
 30
0.0
  0
SEQEND
  8
Group011
  0
POLYLINE
  8
Group011
 62
0
 70
0
 66
1
 10
0.0
 20
0.0
 30
0.0
  0
VERTEX
  8
Group011
 10
212.3853135911334
 20
-16.524999999999995
 30
0.0
  0
VERTEX
  8
Group011
 10
224.8853135911334
 20
-16.525
 30
0.0
  0
SEQEND
  8
Group011
  0
ARC
  8
Group012
 62
0
 10
231.39464937302807
 20
-3.274999999999999
 30
0.0
 40
0.75
 50
90.0
 51
-180.0
  0
ARC
  8
Group012
 62
0
 10
243.89464937302807
 20
-3.275000000000001
 30
0.0
 40
0.75
 50
-0.0
 51
90.0
  0
ARC
  8
Group012
 62
0
 10
231.39464937302807
 20
-15.774999999999995
 30
0.0
 40
0.75
 50
-180.0
 51
-90.0
  0
ARC
  8
Group012
 62
0
 10
243.89464937302807
 20
-15.774999999999999
 30
0.0
 40
0.75
 50
-90.0
 51
-0.0
  0
POLYLINE
  8
Group012
 62
0
 70
0
 66
1
 10
0.0
 20
0.0
 30
0.0
  0
VERTEX
  8
Group012
 10
244.64464937302807
 20
-15.774999999999999
 30
0.0
  0
VERTEX
  8
Group012
 10
244.64464937302807
 20
-3.2750000000000004
 30
0.0
  0
SEQEND
  8
Group012
  0
POLYLINE
  8
Group012
 62
0
 70
0
 66
1
 10
0.0
 20
0.0
 30
0.0
  0
VERTEX
  8
Group012
 10
243.89464937302807
 20
-2.525000000000001
 30
0.0
  0
VERTEX
  8
Group012
 10
231.39464937302807
 20
-2.5249999999999986
 30
0.0
  0
SEQEND
  8
Group012
  0
POLYLINE
  8
Group012
 62
0
 70
0
 66
1
 10
0.0
 20
0.0
 30
0.0
  0
VERTEX
  8
Group012
 10
230.64464937302807
 20
-3.274999999999999
 30
0.0
  0
VERTEX
  8
Group012
 10
230.64464937302807
 20
-15.774999999999995
 30
0.0
  0
SEQEND
  8
Group012
  0
POLYLINE
  8
Group012
 62
0
 70
0
 66
1
 10
0.0
 20
0.0
 30
0.0
  0
VERTEX
  8
Group012
 10
231.39464937302807
 20
-16.524999999999995
 30
0.0
  0
VERTEX
  8
Group012
 10
243.89464937302807
 20
-16.525
 30
0.0
  0
SEQEND
  8
Group012
  0
ARC
  8
Group013
 62
0
 10
259.9111930426341
 20
-3.274999999999999
 30
0.0
 40
0.75
 50
90.0
 51
-180.0
  0
ARC
  8
Group013
 62
0
 10
272.4111930426341
 20
-3.275000000000001
 30
0.0
 40
0.75
 50
-0.0
 51
90.0
  0
ARC
  8
Group013
 62
0
 10
259.9111930426341
 20
-15.774999999999995
 30
0.0
 40
0.75
 50
-180.0
 51
-90.0
  0
ARC
  8
Group013
 62
0
 10
272.4111930426341
 20
-15.774999999999999
 30
0.0
 40
0.75
 50
-90.0
 51
-0.0
  0
POLYLINE
  8
Group013
 62
0
 70
0
 66
1
 10
0.0
 20
0.0
 30
0.0
  0
VERTEX
  8
Group013
 10
273.1611930426341
 20
-15.774999999999999
 30
0.0
  0
VERTEX
  8
Group013
 10
273.1611930426341
 20
-3.2750000000000004
 30
0.0
  0
SEQEND
  8
Group013
  0
POLYLINE
  8
Group013
 62
0
 70
0
 66
1
 10
0.0
 20
0.0
 30
0.0
  0
VERTEX
  8
Group013
 10
272.4111930426341
 20
-2.525000000000001
 30
0.0
  0
VERTEX
  8
Group013
 10
259.9111930426341
 20
-2.5249999999999986
 30
0.0
  0
SEQEND
  8
Group013
  0
POLYLINE
  8
Group013
 62
0
 70
0
 66
1
 10
0.0
 20
0.0
 30
0.0
  0
VERTEX
  8
Group013
 10
259.1611930426341
 20
-3.274999999999999
 30
0.0
  0
VERTEX
  8
Group013
 10
259.1611930426341
 20
-15.774999999999995
 30
0.0
  0
SEQEND
  8
Group013
  0
POLYLINE
  8
Group013
 62
0
 70
0
 66
1
 10
0.0
 20
0.0
 30
0.0
  0
VERTEX
  8
Group013
 10
259.9111930426341
 20
-16.524999999999995
 30
0.0
  0
VERTEX
  8
Group013
 10
272.4111930426341
 20
-16.525
 30
0.0
  0
SEQEND
  8
Group013
  0
ARC
  8
Group091
 62
0
 10
251.47319304263414
 20
-17.275
 30
0.0
 40
0.75
 50
-180.0
 51
-90.0
  0
ARC
  8
Group091
 62
0
 10
256.97319304263414
 20
-17.275000000000027
 30
0.0
 40
0.75
 50
-90.0
 51
-0.0
  0
ARC
  8
Group091
 62
0
 10
251.47319304263414
 20
-3.274999999999991
 30
0.0
 40
0.75
 50
90.0
 51
-180.0
  0
ARC
  8
Group091
 62
0
 10
256.97319304263414
 20
-3.275000000000006
 30
0.0
 40
0.75
 50
-0.0
 51
90.0
  0
POLYLINE
  8
Group091
 62
0
 70
0
 66
1
 10
0.0
 20
0.0
 30
0.0
  0
VERTEX
  8
Group091
 10
251.47319304263414
 20
-2.524999999999991
 30
0.0
  0
VERTEX
  8
Group091
 10
256.97319304263414
 20
-2.5250000000000052
 30
0.0
  0
SEQEND
  8
Group091
  0
POLYLINE
  8
Group091
 62
0
 70
0
 66
1
 10
0.0
 20
0.0
 30
0.0
  0
VERTEX
  8
Group091
 10
257.72319304263414
 20
-3.275000000000006
 30
0.0
  0
VERTEX
  8
Group091
 10
257.72319304263414
 20
-17.275000000000027
 30
0.0
  0
SEQEND
  8
Group091
  0
POLYLINE
  8
Group091
 62
0
 70
0
 66
1
 10
0.0
 20
0.0
 30
0.0
  0
VERTEX
  8
Group091
 10
256.97319304263414
 20
-18.025000000000027
 30
0.0
  0
VERTEX
  8
Group091
 10
251.47319304263414
 20
-18.025000000000013
 30
0.0
  0
SEQEND
  8
Group091
  0
POLYLINE
  8
Group091
 62
0
 70
0
 66
1
 10
0.0
 20
0.0
 30
0.0
  0
VERTEX
  8
Group091
 10
250.72319304263414
 20
-17.275
 30
0.0
  0
VERTEX
  8
Group091
 10
250.72319304263414
 20
-3.2749999999999844
 30
0.0
  0
SEQEND
  8
Group091
  0
ARC
  8
Group090
 62
0
 10
275.3491930426341
 20
-17.275
 30
0.0
 40
0.75
 50
-180.0
 51
-90.0
  0
ARC
  8
Group090
 62
0
 10
280.8491930426341
 20
-17.275000000000027
 30
0.0
 40
0.75
 50
-90.0
 51
-0.0
  0
ARC
  8
Group090
 62
0
 10
275.3491930426341
 20
-3.274999999999991
 30
0.0
 40
0.75
 50
90.0
 51
-180.0
  0
ARC
  8
Group090
 62
0
 10
280.8491930426341
 20
-3.275000000000006
 30
0.0
 40
0.75
 50
-0.0
 51
90.0
  0
POLYLINE
  8
Group090
 62
0
 70
0
 66
1
 10
0.0
 20
0.0
 30
0.0
  0
VERTEX
  8
Group090
 10
275.3491930426341
 20
-2.524999999999991
 30
0.0
  0
VERTEX
  8
Group090
 10
280.8491930426341
 20
-2.5250000000000052
 30
0.0
  0
SEQEND
  8
Group090
  0
POLYLINE
  8
Group090
 62
0
 70
0
 66
1
 10
0.0
 20
0.0
 30
0.0
  0
VERTEX
  8
Group090
 10
281.5991930426341
 20
-3.275000000000006
 30
0.0
  0
VERTEX
  8
Group090
 10
281.5991930426341
 20
-17.275000000000027
 30
0.0
  0
SEQEND
  8
Group090
  0
POLYLINE
  8
Group090
 62
0
 70
0
 66
1
 10
0.0
 20
0.0
 30
0.0
  0
VERTEX
  8
Group090
 10
280.8491930426341
 20
-18.025000000000027
 30
0.0
  0
VERTEX
  8
Group090
 10
275.3491930426341
 20
-18.025000000000013
 30
0.0
  0
SEQEND
  8
Group090
  0
POLYLINE
  8
Group090
 62
0
 70
0
 66
1
 10
0.0
 20
0.0
 30
0.0
  0
VERTEX
  8
Group090
 10
274.5991930426341
 20
-17.275
 30
0.0
  0
VERTEX
  8
Group090
 10
274.5991930426341
 20
-3.2749999999999844
 30
0.0
  0
SEQEND
  8
Group090
  0
ARC
  8
Group014
 62
0
 10
298.2295842245773
 20
-3.274999999999999
 30
0.0
 40
0.75
 50
90.0
 51
-180.0
  0
ARC
  8
Group014
 62
0
 10
310.7295842245773
 20
-3.275000000000001
 30
0.0
 40
0.75
 50
-0.0
 51
90.0
  0
ARC
  8
Group014
 62
0
 10
298.2295842245773
 20
-15.774999999999995
 30
0.0
 40
0.75
 50
-180.0
 51
-90.0
  0
ARC
  8
Group014
 62
0
 10
310.7295842245773
 20
-15.774999999999999
 30
0.0
 40
0.75
 50
-90.0
 51
-0.0
  0
POLYLINE
  8
Group014
 62
0
 70
0
 66
1
 10
0.0
 20
0.0
 30
0.0
  0
VERTEX
  8
Group014
 10
311.4795842245773
 20
-15.774999999999999
 30
0.0
  0
VERTEX
  8
Group014
 10
311.4795842245773
 20
-3.2750000000000004
 30
0.0
  0
SEQEND
  8
Group014
  0
POLYLINE
  8
Group014
 62
0
 70
0
 66
1
 10
0.0
 20
0.0
 30
0.0
  0
VERTEX
  8
Group014
 10
310.7295842245773
 20
-2.525000000000001
 30
0.0
  0
VERTEX
  8
Group014
 10
298.2295842245773
 20
-2.5249999999999986
 30
0.0
  0
SEQEND
  8
Group014
  0
POLYLINE
  8
Group014
 62
0
 70
0
 66
1
 10
0.0
 20
0.0
 30
0.0
  0
VERTEX
  8
Group014
 10
297.4795842245773
 20
-3.274999999999999
 30
0.0
  0
VERTEX
  8
Group014
 10
297.4795842245773
 20
-15.774999999999995
 30
0.0
  0
SEQEND
  8
Group014
  0
POLYLINE
  8
Group014
 62
0
 70
0
 66
1
 10
0.0
 20
0.0
 30
0.0
  0
VERTEX
  8
Group014
 10
298.2295842245773
 20
-16.524999999999995
 30
0.0
  0
VERTEX
  8
Group014
 10
310.7295842245773
 20
-16.525
 30
0.0
  0
SEQEND
  8
Group014
  0
ARC
  8
Group
 62
0
 10
3.275
 20
-3.274999999999999
 30
0.0
 40
0.75
 50
90.0
 51
-180.0
  0
ARC
  8
Group
 62
0
 10
15.774999999999997
 20
-3.275000000000001
 30
0.0
 40
0.75
 50
-0.0
 51
90.0
  0
ARC
  8
Group
 62
0
 10
3.275
 20
-15.774999999999995
 30
0.0
 40
0.75
 50
-180.0
 51
-90.0
  0
ARC
  8
Group
 62
0
 10
15.774999999999999
 20
-15.774999999999999
 30
0.0
 40
0.75
 50
-90.0
 51
-0.0
  0
POLYLINE
  8
Group
 62
0
 70
0
 66
1
 10
0.0
 20
0.0
 30
0.0
  0
VERTEX
  8
Group
 10
16.525
 20
-15.774999999999999
 30
0.0
  0
VERTEX
  8
Group
 10
16.525
 20
-3.2750000000000004
 30
0.0
  0
SEQEND
  8
Group
  0
POLYLINE
  8
Group
 62
0
 70
0
 66
1
 10
0.0
 20
0.0
 30
0.0
  0
VERTEX
  8
Group
 10
15.774999999999997
 20
-2.525000000000001
 30
0.0
  0
VERTEX
  8
Group
 10
3.2750000000000004
 20
-2.5249999999999986
 30
0.0
  0
SEQEND
  8
Group
  0
POLYLINE
  8
Group
 62
0
 70
0
 66
1
 10
0.0
 20
0.0
 30
0.0
  0
VERTEX
  8
Group
 10
2.525
 20
-3.274999999999999
 30
0.0
  0
VERTEX
  8
Group
 10
2.525
 20
-15.774999999999995
 30
0.0
  0
SEQEND
  8
Group
  0
POLYLINE
  8
Group
 62
0
 70
0
 66
1
 10
0.0
 20
0.0
 30
0.0
  0
VERTEX
  8
Group
 10
3.275
 20
-16.524999999999995
 30
0.0
  0
VERTEX
  8
Group
 10
15.774999999999999
 20
-16.525
 30
0.0
  0
SEQEND
  8
Group
  0
ENDSEC
  0
EOF
