  0
SECTION
  2
HEADER
  9
$ANGBASE
  50
0.0
  9
$ANGDIR
  70
1
  9
$MEASUREMENT
  70
1
  0
ENDSEC
  0
SECTION
  2
TABLES
  0
TABLE
  2
LTYPE
  70
4
  0
LTYPE
  5
40F
  2
CONTINUOUS
  70
0
  3
Solid line
  72
65
  73
0
  40
0.0
  0
LTYPE
  5
410
  2
DASHDOT
 70
0
  3
Dash Dot ____ _ ____ _
 72
65
 73
4
 40
2.0
 49
1.25
 49
-0.25
 49
0.25
 49
-0.25
  0
LTYPE
  5
411
  2
DASHED
 70
0
  3
Dashed __ __ __ __ __
 72
65
 73
2
 40
0.75
 49
0.5
 49
-0.25
  0
LTYPE
  5
43B
  2
DOTTED
 70
0
  3
Dotted .  .  .  .
 72
65
 73
2
 40
0.2
 49
0.0
 49
-0.2
  0
ENDTAB
  0
TABLE
  2
STYLE
  70
4
  0
STYLE
  2
KICAD
  70
0
  40
0
  41
1
  42
1
  50
0
  71
0
  3
isocp.shx
  0
STYLE
  2
KICADB
  70
0
  40
0
  41
1
  42
1
  50
0
  71
0
  3
isocp.shx
  0
STYLE
  2
KICADI
  70
0
  40
0
  41
1
  42
1
  50
15
  71
0
  3
isocp.shx
  0
STYLE
  2
KICADBI
  70
0
  40
0
  41
1
  42
1
  50
15
  71
0
  3
isocp.shx
  0
ENDTAB
  0
TABLE
  2
LAYER
  70
1
  0
LAYER
  2
BLACK
  70
0
  62
7
  6
CONTINUOUS
  0
ENDTAB
  0
ENDSEC
  0
SECTION
  2
ENTITIES
0
ARC
8
BLACK
10
5.34
20
-81.945
40
0.5
50
180
51
270
0
ARC
8
BLACK
10
5.34
20
-68.945
40
0.5
50
89.9999
51
180
0
LINE
8
BLACK
6
CONTINUOUS
10
4.84
20
-68.945
11
4.84
21
-81.945
0
LINE
8
BLACK
6
CONTINUOUS
10
5.34
20
-82.445
11
10.1047
21
-82.449
0
LINE
8
BLACK
6
CONTINUOUS
10
5.34
20
-68.445
11
10.1047
21
-68.449
0
LINE
8
BLACK
6
CONTINUOUS
10
184.351
20
-26.429
11
187.351
21
-26.429
0
ARC
8
BLACK
10
187.351
20
-23.429
40
3
50
-90
51
90
0
ARC
8
BLACK
10
184.351
20
-23.429
40
3
50
90
51
270
0
LINE
8
BLACK
6
CONTINUOUS
10
184.351
20
-20.429
11
187.351
21
-20.429
0
LINE
8
BLACK
6
CONTINUOUS
10
337.95
20
-26.419
11
340.95
21
-26.419
0
ARC
8
BLACK
10
340.95
20
-23.419
40
3
50
-90
51
90
0
ARC
8
BLACK
10
337.95
20
-23.419
40
3
50
90
51
270
0
LINE
8
BLACK
6
CONTINUOUS
10
337.95
20
-20.419
11
340.95
21
-20.419
0
ARC
8
BLACK
10
14.931
20
-23.429
40
3
50
90
51
270
0
LINE
8
BLACK
6
CONTINUOUS
10
12.9292
20
-88.999
11
12.9292
21
-102.999
0
ARC
8
BLACK
10
331.048
20
-81.949
40
0.5
50
-90
51
-0
0
ARC
8
BLACK
10
331.048
20
-68.949
40
0.5
50
-0
51
90
0
ARC
8
BLACK
10
145.837
20
-49.899
40
0.5
50
90
51
180
0
LINE
8
BLACK
6
CONTINUOUS
10
197.724
20
-87.999
11
197.724
21
-100.999
0
ARC
8
BLACK
10
230.274
20
-87.999
40
0.5
50
-0
51
90
0
ARC
8
BLACK
10
36.2985
20
-81.949
40
0.5
50
180
51
270
0
LINE
8
BLACK
6
CONTINUOUS
10
193.461
20
-44.349
11
206.461
21
-44.349
0
ARC
8
BLACK
10
117.261
20
-30.849
40
0.5
50
90
51
180
0
ARC
8
BLACK
10
255.317
20
-69.949
40
0.5
50
-0
51
90
0
ARC
8
BLACK
10
41.061
20
-3.036
40
0.5
50
90
51
180
0
ARC
8
BLACK
10
305.17
20
-25.679
40
0.499999
50
-90.0002
51
-0.000258364
0
LINE
8
BLACK
6
CONTINUOUS
10
330.671
20
-21.1654
11
330.671
21
-25.6654
0
ARC
8
BLACK
10
337.098
20
-87.999
40
0.5
50
90
51
180
0
LINE
8
BLACK
6
CONTINUOUS
10
164.886
20
-49.399
11
177.886
21
-49.399
0
ARC
8
BLACK
10
173.124
20
-100.999
40
0.5
50
-90
51
-0
0
ARC
8
BLACK
10
188.699
20
-81.949
40
0.5
50
180
51
270
0
ARC
8
BLACK
10
62.6039
20
-121.056
40
0.507156
50
0.405583
51
89.5945
0
ARC
8
BLACK
10
83.9047
20
-108.049
40
0.5
50
-0
51
90
0
LINE
8
BLACK
6
CONTINUOUS
10
212.511
20
-16.536
11
225.511
21
-16.536
0
ARC
8
BLACK
10
164.886
20
-16.036
40
0.5
50
180
51
270
0
LINE
8
BLACK
6
CONTINUOUS
10
336.598
20
-30.849
11
336.598
21
-43.849
0
LINE
8
BLACK
6
CONTINUOUS
10
312.499
20
-3.036
11
312.499
21
-16.036
0
ARC
8
BLACK
10
239.799
20
-68.949
40
0.5
50
-0
51
90
0
ARC
8
BLACK
10
330.171
20
-21.1654
40
0.499999
50
-0.000343775
51
89.9997
0
ARC
8
BLACK
10
369.148
20
-97.524
40
0.5
50
-0
51
90
0
ARC
8
BLACK
10
356.148
20
-30.849
40
0.5
50
90
51
180
0
LINE
8
BLACK
6
CONTINUOUS
10
187.911
20
-30.849
11
187.911
21
-43.849
0
LINE
8
BLACK
6
CONTINUOUS
10
78.661
20
-30.849
11
78.661
21
-43.849
0
LINE
8
BLACK
6
CONTINUOUS
10
36.8053
20
-88.999
11
36.8053
21
-102.999
0
LINE
8
BLACK
6
CONTINUOUS
10
174.411
20
-30.349
11
187.411
21
-30.349
0
LINE
8
BLACK
6
CONTINUOUS
10
355.669
20
-21.169
11
355.669
21
-25.669
0
ARC
8
BLACK
10
183.937
20
-3.036
40
0.5
50
90
51
180
0
LINE
8
BLACK
6
CONTINUOUS
10
274.614
20
-92.7378
11
287.614
21
-92.7378
0
LINE
8
BLACK
6
CONTINUOUS
10
111.999
20
-68.949
11
111.999
21
-81.949
0
LINE
8
BLACK
6
CONTINUOUS
10
337.098
20
-63.399
11
350.098
21
-63.399
0
ARC
8
BLACK
10
-0.813999
20
-128.829
40
0.999999
50
180
51
270
0
LINE
8
BLACK
6
CONTINUOUS
10
164.886
20
-16.536
11
177.886
21
-16.536
0
LINE
8
BLACK
6
CONTINUOUS
10
337.098
20
-101.499
11
350.098
21
-101.499
0
LINE
8
BLACK
6
CONTINUOUS
10
221.536
20
-49.899
11
221.536
21
-62.899
0
ARC
8
BLACK
10
130.261
20
-30.849
40
0.5
50
-0
51
90
0
ARC
8
BLACK
10
168.361
20
-43.849
40
0.5
50
-90
51
-0
0
ARC
8
BLACK
10
298.999
20
-62.899
40
0.5
50
180
51
270
0
ARC
8
BLACK
10
311.999
20
-100.999
40
0.5
50
-90
51
-0
0
ARC
8
BLACK
10
193.461
20
-43.849
40
0.5
50
180
51
270
0
LINE
8
BLACK
6
CONTINUOUS
10
160.124
20
-101.499
11
173.124
21
-101.499
0
LINE
8
BLACK
6
CONTINUOUS
10
369.648
20
-97.524
11
369.648
21
-110.524
0
LINE
8
BLACK
6
CONTINUOUS
10
140.286
20
-49.899
11
140.286
21
-62.899
0
ARC
8
BLACK
10
73.1422
20
-122.049
40
0.5
50
180
51
270
0
ARC
8
BLACK
10
126.786
20
-62.899
40
0.5
50
180
51
270
0
LINE
8
BLACK
6
CONTINUOUS
10
174.411
20
-44.349
11
187.411
21
-44.349
0
LINE
8
BLACK
6
CONTINUOUS
10
25.7746
20
-129.825
11
349.928
21
-129.829
0
ARC
8
BLACK
10
257.755
20
-81.949
40
0.5
50
180
51
270
0
LINE
8
BLACK
6
CONTINUOUS
10
317.548
20
-68.949
11
317.548
21
-81.949
0
ARC
8
BLACK
10
83.9235
20
-100.999
40
0.5
50
180
51
270
0
LINE
8
BLACK
6
CONTINUOUS
10
207.749
20
-106.549
11
220.749
21
-106.549
0
LINE
8
BLACK
6
CONTINUOUS
10
4.84225
20
-107.049
11
4.84225
21
-120.049
0
LINE
8
BLACK
6
CONTINUOUS
10
192.674
20
-87.999
11
192.674
21
-100.999
0
LINE
8
BLACK
6
CONTINUOUS
10
54.561
20
-30.849
11
54.561
21
-43.849
0
LINE
8
BLACK
6
CONTINUOUS
10
312.499
20
-30.849
11
312.499
21
-43.849
0
ARC
8
BLACK
10
31.536
20
-49.899
40
0.5
50
90
51
180
0
ARC
8
BLACK
10
150.599
20
-68.949
40
0.5
50
90
51
180
0
ARC
8
BLACK
10
202.986
20
-49.899
40
0.5
50
90
51
180
0
ARC
8
BLACK
10
369.148
20
-16.036
40
0.5
50
-90
51
-0
0
ARC
8
BLACK
10
372.751
20
-128.832
40
0.997004
50
-90.0004
51
0.172174
0
ARC
8
BLACK
10
260.136
20
-30.849
40
0.5
50
90
51
180
0
ARC
8
BLACK
10
279.193
20
-69.949
40
0.5
50
-0
51
90
0
ARC
8
BLACK
10
15.961
20
-30.849
40
0.499999
50
-0
51
90
0
ARC
8
BLACK
10
41.061
20
-43.849
40
0.5
50
180
51
270
0
LINE
8
BLACK
6
CONTINUOUS
10
93.4485
20
-82.449
11
106.449
21
-82.449
0
ARC
8
BLACK
10
169.649
20
-81.949
40
0.5
50
180
51
270
0
LINE
8
BLACK
6
CONTINUOUS
10
346.671
20
-21.169
11
346.671
21
-25.669
0
LINE
8
BLACK
6
CONTINUOUS
10
331.548
20
-30.849
11
331.548
21
-43.849
0
ARC
8
BLACK
10
96.9235
20
-87.999
40
0.5
50
-0
51
90
0
LINE
8
BLACK
6
CONTINUOUS
10
83.9235
20
-101.499
11
96.9235
21
-101.499
0
LINE
8
BLACK
6
CONTINUOUS
10
355.648
20
-30.849
11
355.648
21
-43.849
0
ARC
8
BLACK
10
69.636
20
-62.899
40
0.5
50
180
51
270
0
LINE
8
BLACK
6
CONTINUOUS
10
226.299
20
-68.949
11
226.299
21
-81.949
0
LINE
8
BLACK
6
CONTINUOUS
10
269.064
20
-112.288
11
269.064
21
-125.288
0
LINE
8
BLACK
6
CONTINUOUS
10
145.837
20
-49.399
11
158.837
21
-49.399
0
ARC
8
BLACK
10
270.755
20
-68.949
40
0.5
50
-0
51
90
0
ARC
8
BLACK
10
368.148
20
-95.086
40
0.5
50
-90
51
-0
0
LINE
8
BLACK
6
CONTINUOUS
10
179.174
20
-87.499
11
192.174
21
-87.499
0
ARC
8
BLACK
10
235.036
20
-49.899
40
0.5
50
-0
51
90
0
LINE
8
BLACK
6
CONTINUOUS
10
73.1422
20
-122.549
11
83.9047
21
-122.549
0
ARC
8
BLACK
10
88.686
20
-49.899
40
0.5
50
90
51
180
0
ARC
8
BLACK
10
173.143
20
-122.049
40
0.5
50
180
51
270
0
ARC
8
BLACK
10
139.786
20
-62.899
40
0.5
50
-90
51
-0
0
ARC
8
BLACK
10
242.18
20
-107.049
40
0.5
50
-0
51
90
0
ARC
8
BLACK
10
350.098
20
-100.999
40
0.5
50
-90
51
-0
0
ARC
8
BLACK
10
158.837
20
-49.899
40
0.5
50
-0
51
90
0
LINE
8
BLACK
6
CONTINUOUS
10
369.175
20
-20.929
11
373.248
21
-20.929
0
LINE
8
BLACK
6
CONTINUOUS
10
337.098
20
-16.536
11
350.098
21
-16.536
0
LINE
8
BLACK
6
CONTINUOUS
10
260.136
20
-30.349
11
273.136
21
-30.349
0
ARC
8
BLACK
10
249.317
20
-83.949
40
0.5
50
180
51
270
0
LINE
8
BLACK
6
CONTINUOUS
10
369.171
20
-25.929
11
373.248
21
-25.929
0
LINE
8
BLACK
6
CONTINUOUS
10
248.817
20
-69.949
11
248.817
21
-83.949
0
ARC
8
BLACK
10
337.098
20
-68.949
40
0.5
50
90
51
180
0
LINE
8
BLACK
6
CONTINUOUS
10
368.648
20
-89.086
11
368.648
21
-95.086
0
LINE
8
BLACK
6
CONTINUOUS
10
212.511
20
-30.349
11
225.511
21
-30.349
0
LINE
8
BLACK
6
CONTINUOUS
10
102.974
20
-87.499
11
115.974
21
-87.499
0
ARC
8
BLACK
10
188.699
20
-107.049
40
0.5
50
90
51
180
0
LINE
8
BLACK
6
CONTINUOUS
10
368.148
20
-74.362
11
354.148
21
-74.362
0
LINE
8
BLACK
6
CONTINUOUS
10
368.148
20
-57.486
11
354.148
21
-57.486
0
LINE
8
BLACK
6
CONTINUOUS
10
368.648
20
-74.862
11
368.648
21
-80.862
0
LINE
8
BLACK
6
CONTINUOUS
10
7.2235
20
-49.899
11
7.2235
21
-62.899
0
ARC
8
BLACK
10
45.8235
20
-87.999
40
0.5
50
90
51
180
0
LINE
8
BLACK
6
CONTINUOUS
10
353.648
20
-112.962
11
353.648
21
-118.962
0
LINE
8
BLACK
6
CONTINUOUS
10
14.931
20
-20.429
11
17.931
21
-20.429
0
ARC
8
BLACK
10
244.561
20
-30.849
40
0.5
50
-0
51
90
0
LINE
8
BLACK
6
CONTINUOUS
10
2.461
20
-30.849
11
2.461
21
-43.849
0
ARC
8
BLACK
10
149.311
20
-43.849
40
0.5
50
-90
51
-0
0
ARC
8
BLACK
10
139.786
20
-49.899
40
0.5
50
-0
51
90
0
LINE
8
BLACK
6
CONTINUOUS
10
117.261
20
-44.349
11
130.261
21
-44.349
0
ARC
8
BLACK
10
260.136
20
-43.849
40
0.5
50
180
51
270
0
LINE
8
BLACK
6
CONTINUOUS
10
112.499
20
-82.449
11
125.499
21
-82.449
0
ARC
8
BLACK
10
298.999
20
-43.849
40
0.5
50
180
51
270
0
LINE
8
BLACK
6
CONTINUOUS
10
74.3985
20
-68.449
11
87.3985
21
-68.449
0
LINE
8
BLACK
6
CONTINUOUS
10
251.699
20
-31.349
11
257.699
21
-31.349
0
ARC
8
BLACK
10
243.468
20
-87.999
40
0.5
50
90
51
180
0
ARC
8
BLACK
10
263.612
20
-3.036
40
0.5
50
-0
51
90
0
LINE
8
BLACK
6
CONTINUOUS
10
173.624
20
-87.999
11
173.624
21
-100.999
0
LINE
8
BLACK
6
CONTINUOUS
10
235.536
20
-49.899
11
235.536
21
-62.899
0
LINE
8
BLACK
6
CONTINUOUS
10
279.693
20
-69.949
11
279.693
21
-83.949
0
LINE
8
BLACK
6
CONTINUOUS
10
373.748
20
-128.829
11
373.748
21
-26.429
0
ARC
8
BLACK
10
222.036
20
-49.899
40
0.5
50
90
51
180
0
LINE
8
BLACK
6
CONTINUOUS
10
64.8735
20
-87.499
11
77.8735
21
-87.499
0
ARC
8
BLACK
10
126.786
20
-49.899
40
0.5
50
90
51
180
0
ARC
8
BLACK
10
122.024
20
-87.999
40
0.5
50
90
51
180
0
ARC
8
BLACK
10
54.061
20
-16.036
40
0.5
50
-90
51
-0
0
LINE
8
BLACK
6
CONTINUOUS
10
293.665
20
-111.788
11
306.665
21
-111.788
0
ARC
8
BLACK
10
44.536
20
-62.899
40
0.5
50
-90
51
-0
0
LINE
8
BLACK
6
CONTINUOUS
10
207.249
20
-68.949
11
207.249
21
-81.949
0
ARC
8
BLACK
10
177.886
20
-16.036
40
0.5
50
-90
51
-0
0
ARC
8
BLACK
10
96.9235
20
-100.999
40
0.5
50
-90
51
-0
0
ARC
8
BLACK
10
225.511
20
-43.849
40
0.5
50
-90
51
-0
0
ARC
8
BLACK
10
368.148
20
-80.862
40
0.5
50
-90
51
-0
0
ARC
8
BLACK
10
202.986
20
-62.899
40
0.5
50
180
51
270
0
ARC
8
BLACK
10
311.999
20
-49.899
40
0.5
50
-0
51
90
0
LINE
8
BLACK
6
CONTINUOUS
10
21.2235
20
-49.899
11
21.2235
21
-62.899
0
ARC
8
BLACK
10
50.586
20
-49.899
40
0.5
50
90
51
180
0
LINE
8
BLACK
6
CONTINUOUS
10
2.961
20
-16.536
11
15.961
21
-16.536
0
LINE
8
BLACK
6
CONTINUOUS
10
141.074
20
-87.499
11
154.074
21
-87.499
0
ARC
8
BLACK
10
322.174
20
-21.1654
40
0.5
50
89.9998
51
180
0
ARC
8
BLACK
10
74.3985
20
-81.949
40
0.5
50
180
51
270
0
LINE
8
BLACK
6
CONTINUOUS
10
125.999
20
-68.949
11
125.999
21
-81.949
0
ARC
8
BLACK
10
107.736
20
-49.899
40
0.5
50
90
51
180
0
ARC
8
BLACK
10
215.986
20
-62.899
40
0.5
50
-90
51
-0
0
LINE
8
BLACK
6
CONTINUOUS
10
98.211
20
-16.536
11
111.211
21
-16.536
0
ARC
8
BLACK
10
331.048
20
-62.899
40
0.5
50
-90
51
-0
0
ARC
8
BLACK
10
92.161
20
-43.849
40
0.5
50
-90
51
-0
0
ARC
8
BLACK
10
6.42925
20
-102.999
40
0.5
50
180
51
270
0
ARC
8
BLACK
10
354.148
20
-74.862
40
0.5
50
90
51
180
0
ARC
8
BLACK
10
368.148
20
-74.862
40
0.5
50
-0
51
90
0
LINE
8
BLACK
6
CONTINUOUS
10
226.011
20
-30.849
11
226.011
21
-43.849
0
ARC
8
BLACK
10
136.311
20
-30.849
40
0.5
50
90
51
180
0
LINE
8
BLACK
6
CONTINUOUS
10
274.114
20
-93.2378
11
274.114
21
-106.238
0
LINE
8
BLACK
6
CONTINUOUS
10
231.061
20
-3.036
11
231.061
21
-16.036
0
LINE
8
BLACK
6
CONTINUOUS
10
10.1047
20
-68.449
11
23.1047
21
-68.449
0
ARC
8
BLACK
10
-1.31294
20
-20.429
40
0.5
50
180
51
270
0
LINE
8
BLACK
6
CONTINUOUS
10
50.586
20
-49.399
11
63.586
21
-49.399
0
LINE
8
BLACK
6
CONTINUOUS
10
197.437
20
-3.036
11
197.437
21
-16.036
0
LINE
8
BLACK
6
CONTINUOUS
10
273.636
20
-30.849
11
273.636
21
-43.849
0
LINE
8
BLACK
6
CONTINUOUS
10
-1.814
20
2.971
11
-1.814
21
-20.429
0
LINE
8
BLACK
6
CONTINUOUS
10
245.061
20
-30.849
11
245.061
21
-43.849
0
ARC
8
BLACK
10
27.8672
20
-100.999
40
0.5
50
-90
51
-0
0
LINE
8
BLACK
6
CONTINUOUS
10
264.112
20
-3.036
11
264.112
21
-16.036
0
ARC
8
BLACK
10
298.999
20
-16.036
40
0.5
50
180
51
270
0
ARC
8
BLACK
10
27.8672
20
-87.999
40
0.5
50
-0
51
90
0
ARC
8
BLACK
10
98.211
20
-16.036
40
0.5
50
180
51
270
0
LINE
8
BLACK
6
CONTINUOUS
10
107.236
20
-49.899
11
107.236
21
-62.899
0
ARC
8
BLACK
10
45.8235
20
-100.999
40
0.5
50
180
51
270
0
LINE
8
BLACK
6
CONTINUOUS
10
336.598
20
-3.036
11
336.598
21
-16.036
0
LINE
8
BLACK
6
CONTINUOUS
10
318.048
20
-68.449
11
331.048
21
-68.449
0
LINE
8
BLACK
6
CONTINUOUS
10
60.111
20
-2.536
11
73.111
21
-2.536
0
LINE
8
BLACK
6
CONTINUOUS
10
260.136
20
-44.349
11
273.136
21
-44.349
0
LINE
8
BLACK
6
CONTINUOUS
10
369.148
20
-58.924
11
356.148
21
-58.924
0
LINE
8
BLACK
6
CONTINUOUS
10
2.461
20
-3.036
11
2.461
21
-16.036
0
LINE
8
BLACK
6
CONTINUOUS
10
298.499
20
-3.036
11
298.499
21
-16.036
0
ARC
8
BLACK
10
354.148
20
-56.986
40
0.5
50
180
51
270
0
ARC
8
BLACK
10
298.999
20
-49.899
40
0.5
50
90
51
180
0
LINE
8
BLACK
6
CONTINUOUS
10
159.337
20
-3.036
11
159.337
21
-16.036
0
LINE
8
BLACK
6
CONTINUOUS
10
45.8235
20
-101.499
11
58.8235
21
-101.499
0
LINE
8
BLACK
6
CONTINUOUS
10
298.999
20
-63.399
11
311.999
21
-63.399
0
ARC
8
BLACK
10
79.161
20
-30.849
40
0.5
50
90
51
180
0
ARC
8
BLACK
10
255.317
20
-83.949
40
0.5
50
-90
51
-0
0
ARC
8
BLACK
10
7.7235
20
-62.899
40
0.5
50
180
51
270
0
ARC
8
BLACK
10
14.8672
20
-87.999
40
0.5
50
90
51
180
0
ARC
8
BLACK
10
135.024
20
-100.999
40
0.5
50
-90
51
-0
0
LINE
8
BLACK
6
CONTINUOUS
10
112.499
20
-68.449
11
125.499
21
-68.449
0
ARC
8
BLACK
10
126.786
20
-16.036
40
0.5
50
180
51
270
0
LINE
8
BLACK
6
CONTINUOUS
10
88.686
20
-63.399
11
101.687
21
-63.399
0
LINE
8
BLACK
6
CONTINUOUS
10
221.249
20
-107.049
11
221.249
21
-120.049
0
LINE
8
BLACK
6
CONTINUOUS
10
30.3052
20
-88.499
11
36.3053
21
-88.499
0
ARC
8
BLACK
10
337.098
20
-30.849
40
0.5
50
90
51
180
0
LINE
8
BLACK
6
CONTINUOUS
10
337.098
20
-82.449
11
350.098
21
-82.449
0
LINE
8
BLACK
6
CONTINUOUS
10
69.636
20
-63.399
11
82.636
21
-63.399
0
ARC
8
BLACK
10
211.224
20
-100.999
40
0.5
50
-90
51
-0
0
ARC
8
BLACK
10
54.061
20
-30.849
40
0.5
50
-0
51
90
0
ARC
8
BLACK
10
73.111
20
-16.036
40
0.5
50
-90
51
-0
0
LINE
8
BLACK
6
CONTINUOUS
10
169.649
20
-68.449
11
182.649
21
-68.449
0
LINE
8
BLACK
6
CONTINUOUS
10
45.036
20
-49.899
11
45.036
21
-62.899
0
LINE
8
BLACK
6
CONTINUOUS
10
226.299
20
-107.049
11
226.299
21
-120.049
0
LINE
8
BLACK
6
CONTINUOUS
10
298.499
20
-87.999
11
298.499
21
-100.999
0
ARC
8
BLACK
10
297.173
20
-25.679
40
0.5
50
180
51
270
0
LINE
8
BLACK
6
CONTINUOUS
10
107.736
20
-49.399
11
120.736
21
-49.399
0
ARC
8
BLACK
10
231.561
20
-3.036
40
0.5
50
90
51
180
0
ARC
8
BLACK
10
117.261
20
-43.849
40
0.5
50
180
51
270
0
ARC
8
BLACK
10
298.999
20
-100.999
40
0.5
50
180
51
270
0
ARC
8
BLACK
10
196.937
20
-3.036
40
0.5
50
-0
51
90
0
LINE
8
BLACK
6
CONTINUOUS
10
145.837
20
-16.536
11
158.837
21
-16.536
0
ARC
8
BLACK
10
117.261
20
-107.049
40
0.5
50
90
51
180
0
LINE
8
BLACK
6
CONTINUOUS
10
331.548
20
-3.036
11
331.548
21
-16.036
0
ARC
8
BLACK
10
107.736
20
-62.899
40
0.5
50
180
51
270
0
LINE
8
BLACK
6
CONTINUOUS
10
259.636
20
-30.849
11
259.636
21
-43.849
0
ARC
8
BLACK
10
141.074
20
-100.999
40
0.5
50
180
51
270
0
ARC
8
BLACK
10
137.405
20
-107.049
40
0.5
50
-0
51
90
0
ARC
8
BLACK
10
50.586
20
-62.899
40
0.5
50
180
51
270
0
LINE
8
BLACK
6
CONTINUOUS
10
298.999
20
-30.349
11
311.999
21
-30.349
0
LINE
8
BLACK
6
CONTINUOUS
10
217.274
20
-101.499
11
230.274
21
-101.499
0
ARC
8
BLACK
10
196.937
20
-16.036
40
0.5
50
-90
51
-0
0
LINE
8
BLACK
6
CONTINUOUS
10
52.9673
20
-106.549
11
65.9673
21
-106.549
0
LINE
8
BLACK
6
CONTINUOUS
10
298.999
20
-16.536
11
311.999
21
-16.536
0
ARC
8
BLACK
10
82.636
20
-49.899
40
0.5
50
-0
51
90
0
ARC
8
BLACK
10
73.111
20
-3.036
40
0.5
50
-0
51
90
0
LINE
8
BLACK
6
CONTINUOUS
10
255.564
20
-125.788
11
268.564
21
-125.788
0
ARC
8
BLACK
10
254.086
20
-49.899
40
0.499999
50
-0
51
90
0
LINE
8
BLACK
6
CONTINUOUS
10
14.3672
20
-87.999
11
14.3672
21
-100.999
0
LINE
8
BLACK
6
CONTINUOUS
10
93.4485
20
-68.449
11
106.449
21
-68.449
0
LINE
8
BLACK
6
CONTINUOUS
10
60.111
20
-16.536
11
73.111
21
-16.536
0
LINE
8
BLACK
6
CONTINUOUS
10
254.586
20
-49.899
11
254.586
21
-62.899
0
ARC
8
BLACK
10
311.999
20
-30.849
40
0.5
50
-0
51
90
0
ARC
8
BLACK
10
182.649
20
-81.949
40
0.5
50
-90
51
-0
0
LINE
8
BLACK
6
CONTINUOUS
10
298.999
20
-68.449
11
311.999
21
-68.449
0
LINE
8
BLACK
6
CONTINUOUS
10
231.561
20
-2.536
11
244.561
21
-2.536
0
ARC
8
BLACK
10
112.499
20
-81.949
40
0.5
50
180
51
270
0
LINE
8
BLACK
6
CONTINUOUS
10
216.774
20
-87.999
11
216.774
21
-100.999
0
LINE
8
BLACK
6
CONTINUOUS
10
243.468
20
-101.499
11
256.468
21
-101.499
0
ARC
8
BLACK
10
192.174
20
-100.999
40
0.5
50
-90
51
-0
0
LINE
8
BLACK
6
CONTINUOUS
10
317.548
20
-107.049
11
317.548
21
-120.049
0
LINE
8
BLACK
6
CONTINUOUS
10
79.161
20
-44.349
11
92.161
21
-44.349
0
LINE
8
BLACK
6
CONTINUOUS
10
217.274
20
-87.499
11
230.274
21
-87.499
0
LINE
8
BLACK
6
CONTINUOUS
10
298.999
20
-49.399
11
311.999
21
-49.399
0
LINE
8
BLACK
6
CONTINUOUS
10
356.148
20
-30.349
11
369.148
21
-30.349
0
ARC
8
BLACK
10
298.999
20
-87.999
40
0.5
50
90
51
180
0
ARC
8
BLACK
10
369.148
20
-59.424
40
0.5
50
-0
51
90
0
ARC
8
BLACK
10
177.886
20
-3.036
40
0.5
50
-0
51
90
0
LINE
8
BLACK
6
CONTINUOUS
10
41.061
20
-30.349
11
54.061
21
-30.349
0
ARC
8
BLACK
10
137.405
20
-120.049
40
0.5
50
-90
51
-0
0
ARC
8
BLACK
10
198.224
20
-87.999
40
0.5
50
90
51
180
0
ARC
8
BLACK
10
26.7735
20
-120.049
40
0.5
50
180
51
270
0
LINE
8
BLACK
6
CONTINUOUS
10
356.148
20
-16.536
11
369.148
21
-16.536
0
ARC
8
BLACK
10
106.449
20
-81.949
40
0.5
50
-90
51
-0
0
LINE
8
BLACK
6
CONTINUOUS
10
-1.31294
20
-20.929
11
3.021
21
-20.929
0
ARC
8
BLACK
10
23.1047
20
-81.949
40
0.5
50
-90
51
-0
0
LINE
8
BLACK
6
CONTINUOUS
10
226.011
20
-3.036
11
226.011
21
-16.036
0
LINE
8
BLACK
6
CONTINUOUS
10
26.2735
20
-107.049
11
26.2735
21
-120.049
0
ARC
8
BLACK
10
277.899
20
-49.899
40
0.5
50
-0
51
90
0
LINE
8
BLACK
6
CONTINUOUS
10
60.111
20
-30.349
11
73.111
21
-30.349
0
LINE
8
BLACK
6
CONTINUOUS
10
318.048
20
-30.349
11
331.048
21
-30.349
0
ARC
8
BLACK
10
350.925
20
-126.333
40
0.5
50
89.9998
51
180
0
ARC
8
BLACK
10
282.661
20
-3.036
40
0.5
50
-0
51
90
0
LINE
8
BLACK
6
CONTINUOUS
10
241.086
20
-63.399
11
254.086
21
-63.399
0
ARC
8
BLACK
10
331.048
20
-30.849
40
0.5
50
-0
51
90
0
LINE
8
BLACK
6
CONTINUOUS
10
59.611
20
-30.849
11
59.611
21
-43.849
0
ARC
8
BLACK
10
250.611
20
-3.036
40
0.5
50
90
51
180
0
ARC
8
BLACK
10
158.837
20
-3.036
40
0.5
50
-0
51
90
0
ARC
8
BLACK
10
35.011
20
-30.849
40
0.5
50
-0
51
90
0
ARC
8
BLACK
10
350.098
20
-16.036
40
0.5
50
-90
51
-0
0
LINE
8
BLACK
6
CONTINUOUS
10
207.749
20
-82.449
11
220.749
21
-82.449
0
ARC
8
BLACK
10
163.599
20
-68.949
40
0.5
50
-0
51
90
0
LINE
8
BLACK
6
CONTINUOUS
10
150.599
20
-82.449
11
163.599
21
-82.449
0
ARC
8
BLACK
10
174.411
20
-30.849
40
0.5
50
90
51
180
0
LINE
8
BLACK
6
CONTINUOUS
10
183.937
20
-49.399
11
196.937
21
-49.399
0
LINE
8
BLACK
6
CONTINUOUS
10
350.598
20
-107.049
11
350.598
21
-120.049
0
ARC
8
BLACK
10
368.148
20
-56.986
40
0.5
50
-90
51
-0
0
LINE
8
BLACK
6
CONTINUOUS
10
273.193
20
-69.449
11
279.193
21
-69.449
0
LINE
8
BLACK
6
CONTINUOUS
10
64.8735
20
-101.499
11
77.8735
21
-101.499
0
LINE
8
BLACK
6
CONTINUOUS
10
353.648
20
-74.862
11
353.648
21
-80.862
0
ARC
8
BLACK
10
350.098
20
-49.899
40
0.5
50
-0
51
90
0
LINE
8
BLACK
6
CONTINUOUS
10
368.648
20
-112.962
11
368.648
21
-118.962
0
LINE
8
BLACK
6
CONTINUOUS
10
-0.813999
20
-129.829
11
19.271
21
-129.829
0
LINE
8
BLACK
6
CONTINUOUS
10
269.161
20
-3.036
11
269.161
21
-16.036
0
ARC
8
BLACK
10
196.937
20
-49.899
40
0.5
50
-0
51
90
0
ARC
8
BLACK
10
26.7735
20
-107.049
40
0.5
50
90
51
180
0
LINE
8
BLACK
6
CONTINUOUS
10
318.048
20
-120.549
11
331.048
21
-120.549
0
ARC
8
BLACK
10
30.3052
20
-102.999
40
0.5
50
180
51
270
0
ARC
8
BLACK
10
350.098
20
-81.949
40
0.5
50
-90
51
-0
0
LINE
8
BLACK
6
CONTINUOUS
10
337.098
20
-49.399
11
350.098
21
-49.399
0
ARC
8
BLACK
10
269.661
20
-16.036
40
0.5
50
180
51
270
0
LINE
8
BLACK
6
CONTINUOUS
10
318.048
20
-101.499
11
331.048
21
-101.499
0
LINE
8
BLACK
6
CONTINUOUS
10
288.114
20
-112.288
11
288.114
21
-125.288
0
ARC
8
BLACK
10
242.18
20
-120.049
40
0.5
50
-90
51
-0
0
LINE
8
BLACK
6
CONTINUOUS
10
169.149
20
-68.949
11
169.149
21
-81.949
0
LINE
8
BLACK
6
CONTINUOUS
10
31.536
20
-49.399
11
44.536
21
-49.399
0
LINE
8
BLACK
6
CONTINUOUS
10
226.799
20
-106.549
11
242.18
21
-106.549
0
LINE
8
BLACK
6
CONTINUOUS
10
173.143
20
-107.549
11
183.911
21
-107.549
0
LINE
8
BLACK
6
CONTINUOUS
10
198.224
20
-101.499
11
211.224
21
-101.499
0
LINE
8
BLACK
6
CONTINUOUS
10
173.911
20
-30.849
11
173.911
21
-43.849
0
LINE
8
BLACK
6
CONTINUOUS
10
29.8052
20
-88.999
11
29.8052
21
-102.999
0
ARC
8
BLACK
10
311.999
20
-81.949
40
0.5
50
-90
51
-0
0
ARC
8
BLACK
10
122.024
20
-100.999
40
0.5
50
180
51
270
0
LINE
8
BLACK
6
CONTINUOUS
10
355.648
20
-59.424
11
355.648
21
-72.424
0
LINE
8
BLACK
6
CONTINUOUS
10
5.34225
20
-120.549
11
20.7235
21
-120.549
0
ARC
8
BLACK
10
101.687
20
-62.899
40
0.5
50
-90
51
-0
0
LINE
8
BLACK
6
CONTINUOUS
10
98.211
20
-2.536
11
111.211
21
-2.536
0
ARC
8
BLACK
10
207.749
20
-68.949
40
0.5
50
90
51
180
0
ARC
8
BLACK
10
226.799
20
-81.949
40
0.5
50
180
51
270
0
ARC
8
BLACK
10
231.561
20
-16.036
40
0.5
50
180
51
270
0
LINE
8
BLACK
6
CONTINUOUS
10
7.7235
20
-49.399
11
20.7235
21
-49.399
0
LINE
8
BLACK
6
CONTINUOUS
10
318.048
20
-49.399
11
331.048
21
-49.399
0
ARC
8
BLACK
10
350.098
20
-3.036
40
0.5
50
-0
51
90
0
LINE
8
BLACK
6
CONTINUOUS
10
111.711
20
-3.036
11
111.711
21
-16.036
0
LINE
8
BLACK
6
CONTINUOUS
10
298.999
20
-44.349
11
311.999
21
-44.349
0
ARC
8
BLACK
10
168.361
20
-30.849
40
0.5
50
-0
51
90
0
LINE
8
BLACK
6
CONTINUOUS
10
257.255
20
-68.949
11
257.255
21
-81.949
0
ARC
8
BLACK
10
356.148
20
-16.036
40
0.5
50
180
51
270
0
LINE
8
BLACK
6
CONTINUOUS
10
274.614
20
-125.788
11
287.614
21
-125.788
0
LINE
8
BLACK
6
CONTINUOUS
10
184.411
20
-108.049
11
184.411
21
-122.049
0
LINE
8
BLACK
6
CONTINUOUS
10
307.165
20
-112.288
11
307.165
21
-125.288
0
LINE
8
BLACK
6
CONTINUOUS
10
183.149
20
-68.949
11
183.149
21
-81.949
0
ARC
8
BLACK
10
269.661
20
-3.036
40
0.5
50
90
51
180
0
ARC
8
BLACK
10
23.1047
20
-68.949
40
0.5
50
-0
51
90
0
ARC
8
BLACK
10
355.169
20
-25.669
40
0.499999
50
-90.0002
51
-0.000258364
0
ARC
8
BLACK
10
44.536
20
-49.899
40
0.5
50
-0
51
90
0
ARC
8
BLACK
10
177.886
20
-62.899
40
0.5
50
-90
51
-0
0
ARC
8
BLACK
10
87.3985
20
-81.949
40
0.5
50
-90
51
-0
0
ARC
8
BLACK
10
201.699
20
-81.949
40
0.5
50
-90
51
-0
0
ARC
8
BLACK
10
350.098
20
-120.049
40
0.5
50
-90
51
-0
0
LINE
8
BLACK
6
CONTINUOUS
10
73.8985
20
-68.949
11
73.8985
21
-81.949
0
LINE
8
BLACK
6
CONTINUOUS
10
274.114
20
-112.288
11
274.114
21
-125.288
0
ARC
8
BLACK
10
130.261
20
-43.849
40
0.5
50
-90
51
-0
0
ARC
8
BLACK
10
311.999
20
-68.949
40
0.5
50
-0
51
90
0
LINE
8
BLACK
6
CONTINUOUS
10
97.4235
20
-87.999
11
97.4235
21
-100.999
0
LINE
8
BLACK
6
CONTINUOUS
10
130.761
20
-30.849
11
130.761
21
-43.849
0
LINE
8
BLACK
6
CONTINUOUS
10
318.048
20
-44.349
11
331.048
21
-44.349
0
ARC
8
BLACK
10
225.511
20
-16.036
40
0.5
50
-90
51
-0
0
ARC
8
BLACK
10
145.837
20
-16.036
40
0.5
50
180
51
270
0
LINE
8
BLACK
6
CONTINUOUS
10
298.999
20
-87.499
11
311.999
21
-87.499
0
ARC
8
BLACK
10
373.249
20
-20.429
40
0.499998
50
-90.0003
51
-0.000343776
0
ARC
8
BLACK
10
318.048
20
-81.949
40
0.5
50
180
51
270
0
ARC
8
BLACK
10
58.8235
20
-100.999
40
0.5
50
-90
51
-0
0
LINE
8
BLACK
6
CONTINUOUS
10
226.799
20
-68.449
11
239.799
21
-68.449
0
ARC
8
BLACK
10
3.021
20
-25.429
40
0.499999
50
-90.0002
51
-0.000258364
0
LINE
8
BLACK
6
CONTINUOUS
10
282.074
20
-31.849
11
282.074
21
-45.849
0
ARC
8
BLACK
10
220.749
20
-120.049
40
0.5
50
-90
51
-0
0
ARC
8
BLACK
10
63.611
20
-122.049
40
0.5
50
180
51
270
0
LINE
8
BLACK
6
CONTINUOUS
10
14.8672
20
-101.499
11
27.8672
21
-101.499
0
LINE
8
BLACK
6
CONTINUOUS
10
164.886
20
-63.399
11
177.886
21
-63.399
0
ARC
8
BLACK
10
274.614
20
-112.288
40
0.5
50
90
51
180
0
ARC
8
BLACK
10
217.274
20
-100.999
40
0.5
50
180
51
270
0
ARC
8
BLACK
10
183.937
20
-49.899
40
0.5
50
90
51
180
0
LINE
8
BLACK
6
CONTINUOUS
10
69.136
20
-49.899
11
69.136
21
-62.899
0
LINE
8
BLACK
6
CONTINUOUS
10
126.786
20
-49.399
11
139.786
21
-49.399
0
ARC
8
BLACK
10
65.9673
20
-107.049
40
0.5
50
-0
51
90
0
ARC
8
BLACK
10
318.048
20
-100.999
40
0.5
50
180
51
270
0
ARC
8
BLACK
10
60.111
20
-30.849
40
0.5
50
90
51
180
0
LINE
8
BLACK
6
CONTINUOUS
10
240.299
20
-68.949
11
240.299
21
-81.949
0
LINE
8
BLACK
6
CONTINUOUS
10
206.961
20
-30.849
11
206.961
21
-43.849
0
ARC
8
BLACK
10
22.011
20
-30.849
40
0.5
50
90
51
180
0
LINE
8
BLACK
6
CONTINUOUS
10
368.648
20
-50.986
11
368.648
21
-56.986
0
ARC
8
BLACK
10
112.499
20
-68.949
40
0.5
50
90
51
180
0
LINE
8
BLACK
6
CONTINUOUS
10
336.598
20
-107.049
11
336.598
21
-120.049
0
ARC
8
BLACK
10
111.211
20
-43.849
40
0.5
50
-90
51
-0
0
ARC
8
BLACK
10
318.048
20
-16.036
40
0.5
50
180
51
270
0
LINE
8
BLACK
6
CONTINUOUS
10
126.786
20
-16.536
11
139.786
21
-16.536
0
LINE
8
BLACK
6
CONTINUOUS
10
2.961
20
-30.349
11
15.961
21
-30.349
0
ARC
8
BLACK
10
35.011
20
-43.849
40
0.5
50
-90
51
-0
0
LINE
8
BLACK
6
CONTINUOUS
10
19.7735
20
-126.333
11
19.7735
21
-129.329
0
LINE
8
BLACK
6
CONTINUOUS
10
193.461
20
-30.349
11
206.461
21
-30.349
0
ARC
8
BLACK
10
356.148
20
-43.849
40
0.5
50
180
51
270
0
ARC
8
BLACK
10
369.148
20
-3.036
40
0.5
50
-0
51
90
0
ARC
8
BLACK
10
15.961
20
-3.036
40
0.499999
50
-0
51
90
0
LINE
8
BLACK
6
CONTINUOUS
10
36.2985
20
-82.449
11
49.2985
21
-82.449
0
LINE
8
BLACK
6
CONTINUOUS
10
331.548
20
-68.949
11
331.548
21
-81.949
0
ARC
8
BLACK
10
36.3053
20
-102.999
40
0.5
50
-90
51
-0
0
LINE
8
BLACK
6
CONTINUOUS
10
369.148
20
-97.024
11
356.148
21
-97.024
0
LINE
8
BLACK
6
CONTINUOUS
10
155.361
20
-30.349
11
168.361
21
-30.349
0
LINE
8
BLACK
6
CONTINUOUS
10
98.211
20
-30.349
11
111.211
21
-30.349
0
LINE
8
BLACK
6
CONTINUOUS
10
350.598
20
-49.899
11
350.598
21
-62.899
0
ARC
8
BLACK
10
154.074
20
-100.999
40
0.5
50
-90
51
-0
0
ARC
8
BLACK
10
98.211
20
-43.849
40
0.5
50
180
51
270
0
LINE
8
BLACK
6
CONTINUOUS
10
216.486
20
-49.899
11
216.486
21
-62.899
0
ARC
8
BLACK
10
264.899
20
-62.899
40
0.5
50
180
51
270
0
ARC
8
BLACK
10
311.999
20
-3.036
40
0.5
50
-0
51
90
0
LINE
8
BLACK
6
CONTINUOUS
10
83.136
20
-49.899
11
83.136
21
-62.899
0
LINE
8
BLACK
6
CONTINUOUS
10
331.548
20
-49.899
11
331.548
21
-62.899
0
LINE
8
BLACK
6
CONTINUOUS
10
78.3735
20
-87.999
11
78.3735
21
-100.999
0
ARC
8
BLACK
10
154.074
20
-87.999
40
0.5
50
-0
51
90
0
LINE
8
BLACK
6
CONTINUOUS
10
183.937
20
-2.536
11
196.937
21
-2.536
0
LINE
8
BLACK
6
CONTINUOUS
10
122.024
20
-87.499
11
135.024
21
-87.499
0
LINE
8
BLACK
6
CONTINUOUS
10
60.111
20
-44.349
11
73.111
21
-44.349
0
LINE
8
BLACK
6
CONTINUOUS
10
183.437
20
-49.899
11
183.437
21
-62.899
0
LINE
8
BLACK
6
CONTINUOUS
10
63.111
20
-121.053
11
63.111
21
-122.049
0
ARC
8
BLACK
10
2.961
20
-16.036
40
0.500001
50
180
51
270
0
LINE
8
BLACK
6
CONTINUOUS
10
23.6047
20
-68.949
11
23.6047
21
-81.949
0
ARC
8
BLACK
10
182.649
20
-68.949
40
0.5
50
-0
51
90
0
ARC
8
BLACK
10
231.561
20
-43.849
40
0.5
50
180
51
270
0
LINE
8
BLACK
6
CONTINUOUS
10
2.961
20
-2.536
11
15.961
21
-2.536
0
ARC
8
BLACK
10
6.42925
20
-88.999
40
0.5
50
90
51
180
0
ARC
8
BLACK
10
79.161
20
-3.036
40
0.5
50
90
51
180
0
LINE
8
BLACK
6
CONTINUOUS
10
283.161
20
-3.036
11
283.161
21
-16.036
0
LINE
8
BLACK
6
CONTINUOUS
10
-0.813999
20
3.971
11
372.751
21
3.971
0
ARC
8
BLACK
10
311.999
20
-16.036
40
0.5
50
-90
51
-0
0
ARC
8
BLACK
10
120.736
20
-62.899
40
0.5
50
-90
51
-0
0
ARC
8
BLACK
10
7.7235
20
-49.899
40
0.5
50
90
51
180
0
LINE
8
BLACK
6
CONTINUOUS
10
336.598
20
-87.999
11
336.598
21
-100.999
0
LINE
8
BLACK
6
CONTINUOUS
10
-1.814
20
-26.429
11
-1.814
21
-128.829
0
ARC
8
BLACK
10
368.148
20
-118.962
40
0.5
50
-90
51
-0
0
ARC
8
BLACK
10
368.148
20
-89.086
40
0.5
50
-0
51
90
0
LINE
8
BLACK
6
CONTINUOUS
10
73.1422
20
-107.549
11
83.9047
21
-107.549
0
ARC
8
BLACK
10
125.499
20
-68.949
40
0.5
50
-0
51
90
0
LINE
8
BLACK
6
CONTINUOUS
10
318.048
20
-16.536
11
331.048
21
-16.536
0
ARC
8
BLACK
10
126.786
20
-3.036
40
0.5
50
90
51
180
0
LINE
8
BLACK
6
CONTINUOUS
10
368.148
20
-88.586
11
354.148
21
-88.586
0
ARC
8
BLACK
10
19.2723
20
-129.328
40
0.501251
50
-90.1432
51
-0.143225
0
LINE
8
BLACK
6
CONTINUOUS
10
68.8485
20
-68.949
11
68.8485
21
-81.949
0
LINE
8
BLACK
6
CONTINUOUS
10
188.199
20
-68.949
11
188.199
21
-81.949
0
LINE
8
BLACK
6
CONTINUOUS
10
222.036
20
-63.399
11
235.036
21
-63.399
0
ARC
8
BLACK
10
255.564
20
-112.288
40
0.5
50
90
51
180
0
ARC
8
BLACK
10
249.317
20
-69.949
40
0.5
50
90
51
180
0
ARC
8
BLACK
10
331.048
20
-87.999
40
0.5
50
-0
51
90
0
LINE
8
BLACK
6
CONTINUOUS
10
317.548
20
-3.036
11
317.548
21
-16.036
0
ARC
8
BLACK
10
187.411
20
-30.849
40
0.5
50
-0
51
90
0
LINE
8
BLACK
6
CONTINUOUS
10
6.42925
20
-103.499
11
12.4292
21
-103.499
0
ARC
8
BLACK
10
31.536
20
-62.899
40
0.5
50
180
51
270
0
LINE
8
BLACK
6
CONTINUOUS
10
183.437
20
-3.036
11
183.437
21
-16.036
0
ARC
8
BLACK
10
281.574
20
-45.849
40
0.5
50
-90
51
-0
0
ARC
8
BLACK
10
183.937
20
-16.036
40
0.5
50
180
51
270
0
LINE
8
BLACK
6
CONTINUOUS
10
207.749
20
-120.549
11
220.749
21
-120.549
0
ARC
8
BLACK
10
54.061
20
-3.036
40
0.5
50
-0
51
90
0
LINE
8
BLACK
6
CONTINUOUS
10
353.648
20
-89.086
11
353.648
21
-95.086
0
ARC
8
BLACK
10
256.468
20
-100.999
40
0.5
50
-90
51
-0
0
LINE
8
BLACK
6
CONTINUOUS
10
178.386
20
-3.036
11
178.386
21
-16.036
0
LINE
8
BLACK
6
CONTINUOUS
10
317.548
20
-30.849
11
317.548
21
-43.849
0
LINE
8
BLACK
6
CONTINUOUS
10
336.598
20
-68.949
11
336.598
21
-81.949
0
ARC
8
BLACK
10
92.161
20
-3.036
40
0.5
50
-0
51
90
0
ARC
8
BLACK
10
244.561
20
-16.036
40
0.5
50
-90
51
-0
0
ARC
8
BLACK
10
274.614
20
-106.238
40
0.5
50
180
51
270
0
ARC
8
BLACK
10
337.098
20
-62.899
40
0.5
50
180
51
270
0
ARC
8
BLACK
10
337.098
20
-43.849
40
0.5
50
180
51
270
0
LINE
8
BLACK
6
CONTINUOUS
10
337.098
20
-106.549
11
350.098
21
-106.549
0
ARC
8
BLACK
10
49.2985
20
-81.949
40
0.5
50
-90
51
-0
0
ARC
8
BLACK
10
30.3052
20
-88.999
40
0.5
50
90
51
180
0
ARC
8
BLACK
10
274.614
20
-93.2378
40
0.5
50
90
51
180
0
ARC
8
BLACK
10
337.098
20
-16.036
40
0.5
50
180
51
270
0
LINE
8
BLACK
6
CONTINUOUS
10
355.648
20
-97.524
11
355.648
21
-110.524
0
ARC
8
BLACK
10
5.34225
20
-107.049
40
0.5
50
90
51
180
0
ARC
8
BLACK
10
337.098
20
-3.036
40
0.5
50
90
51
180
0
LINE
8
BLACK
6
CONTINUOUS
10
45.8235
20
-87.499
11
58.8235
21
-87.499
0
ARC
8
BLACK
10
3.021
20
-21.429
40
0.499999
50
-0.000343775
51
89.9997
0
LINE
8
BLACK
6
CONTINUOUS
10
154.861
20
-30.849
11
154.861
21
-43.849
0
LINE
8
BLACK
6
CONTINUOUS
10
10.1047
20
-82.449
11
23.1047
21
-82.449
0
LINE
8
BLACK
6
CONTINUOUS
10
35.511
20
-30.849
11
35.511
21
-43.849
0
ARC
8
BLACK
10
54.061
20
-43.849
40
0.5
50
-90
51
-0
0
ARC
8
BLACK
10
331.048
20
-43.849
40
0.5
50
-90
51
-0
0
ARC
8
BLACK
10
160.124
20
-100.999
40
0.5
50
180
51
270
0
LINE
8
BLACK
6
CONTINUOUS
10
145.337
20
-3.036
11
145.337
21
-16.036
0
LINE
8
BLACK
6
CONTINUOUS
10
126.286
20
-49.899
11
126.286
21
-62.899
0
LINE
8
BLACK
6
CONTINUOUS
10
26.7735
20
-106.549
11
52.9673
21
-106.549
0
ARC
8
BLACK
10
287.614
20
-93.2378
40
0.5
50
-0
51
90
0
ARC
8
BLACK
10
306.665
20
-112.288
40
0.5
50
-0
51
90
0
LINE
8
BLACK
6
CONTINUOUS
10
298.999
20
-82.449
11
311.999
21
-82.449
0
LINE
8
BLACK
6
CONTINUOUS
10
172.643
20
-108.049
11
172.643
21
-122.049
0
LINE
8
BLACK
6
CONTINUOUS
10
211.724
20
-87.999
11
211.724
21
-100.999
0
LINE
8
BLACK
6
CONTINUOUS
10
337.098
20
-2.536
11
350.098
21
-2.536
0
LINE
8
BLACK
6
CONTINUOUS
10
131.049
20
-68.949
11
131.049
21
-81.949
0
ARC
8
BLACK
10
60.111
20
-3.036
40
0.5
50
90
51
180
0
LINE
8
BLACK
6
CONTINUOUS
10
356.148
20
-2.536
11
369.148
21
-2.536
0
ARC
8
BLACK
10
274.614
20
-125.288
40
0.5
50
180
51
270
0
LINE
8
BLACK
6
CONTINUOUS
10
271.255
20
-68.949
11
271.255
21
-81.949
0
ARC
8
BLACK
10
25.7746
20
-129.325
40
0.5
50
180
51
270
0
LINE
8
BLACK
6
CONTINUOUS
10
145.837
20
-63.399
11
158.837
21
-63.399
0
LINE
8
BLACK
6
CONTINUOUS
10
66.9646
20
-107.549
11
69.611
21
-107.549
0
ARC
8
BLACK
10
98.211
20
-3.036
40
0.5
50
90
51
180
0
ARC
8
BLACK
10
275.574
20
-31.849
40
0.5
50
90
51
180
0
LINE
8
BLACK
6
CONTINUOUS
10
54.561
20
-3.036
11
54.561
21
-16.036
0
ARC
8
BLACK
10
356.148
20
-72.424
40
0.5
50
180
51
270
0
ARC
8
BLACK
10
206.461
20
-30.849
40
0.5
50
-0
51
90
0
ARC
8
BLACK
10
273.193
20
-69.949
40
0.5
50
90
51
180
0
LINE
8
BLACK
6
CONTINUOUS
10
49.7985
20
-68.949
11
49.7985
21
-81.949
0
ARC
8
BLACK
10
212.511
20
-3.036
40
0.5
50
90
51
180
0
LINE
8
BLACK
6
CONTINUOUS
10
183.937
20
-16.536
11
196.937
21
-16.536
0
ARC
8
BLACK
10
331.048
20
-16.036
40
0.5
50
-90
51
-0
0
ARC
8
BLACK
10
183.911
20
-108.049
40
0.5
50
-0
51
90
0
ARC
8
BLACK
10
337.098
20
-81.949
40
0.5
50
180
51
270
0
LINE
8
BLACK
6
CONTINUOUS
10
169.649
20
-82.449
11
182.649
21
-82.449
0
ARC
8
BLACK
10
66.9646
20
-107.049
40
0.5
50
180
51
270
0
LINE
8
BLACK
6
CONTINUOUS
10
369.148
20
-72.924
11
356.148
21
-72.924
0
LINE
8
BLACK
6
CONTINUOUS
10
241.086
20
-49.399
11
254.086
21
-49.399
0
ARC
8
BLACK
10
68.3485
20
-68.949
40
0.5
50
-0
51
90
0
LINE
8
BLACK
6
CONTINUOUS
10
21.2235
20
-107.049
11
21.2235
21
-120.049
0
LINE
8
BLACK
6
CONTINUOUS
10
122.024
20
-101.499
11
135.024
21
-101.499
0
ARC
8
BLACK
10
188.699
20
-68.949
40
0.5
50
90
51
180
0
ARC
8
BLACK
10
93.4485
20
-81.949
40
0.5
50
180
51
270
0
ARC
8
BLACK
10
55.3485
20
-68.949
40
0.5
50
90
51
180
0
LINE
8
BLACK
6
CONTINUOUS
10
226.799
20
-120.549
11
242.18
21
-120.549
0
LINE
8
BLACK
6
CONTINUOUS
10
183.937
20
-63.399
11
196.937
21
-63.399
0
ARC
8
BLACK
10
73.111
20
-30.849
40
0.5
50
-0
51
90
0
ARC
8
BLACK
10
273.136
20
-30.849
40
0.5
50
-0
51
90
0
LINE
8
BLACK
6
CONTINUOUS
10
255.817
20
-69.949
11
255.817
21
-83.949
0
ARC
8
BLACK
10
131.549
20
-68.949
40
0.5
50
90
51
180
0
LINE
8
BLACK
6
CONTINUOUS
10
318.048
20
-106.549
11
331.048
21
-106.549
0
ARC
8
BLACK
10
20.7235
20
-62.899
40
0.5
50
-90
51
-0
0
LINE
8
BLACK
6
CONTINUOUS
10
178.386
20
-49.899
11
178.386
21
-62.899
0
ARC
8
BLACK
10
183.911
20
-122.049
40
0.5
50
-90
51
-0
0
LINE
8
BLACK
6
CONTINUOUS
10
97.711
20
-3.036
11
97.711
21
-16.036
0
ARC
8
BLACK
10
368.148
20
-50.986
40
0.5
50
-0
51
90
0
ARC
8
BLACK
10
287.614
20
-106.238
40
0.5
50
-90
51
-0
0
ARC
8
BLACK
10
164.886
20
-3.036
40
0.5
50
90
51
180
0
ARC
8
BLACK
10
15.961
20
-16.036
40
0.5
50
-90
51
-0
0
ARC
8
BLACK
10
160.124
20
-87.999
40
0.5
50
90
51
180
0
LINE
8
BLACK
6
CONTINUOUS
10
79.161
20
-16.536
11
92.161
21
-16.536
0
LINE
8
BLACK
6
CONTINUOUS
10
25.2746
20
-126.333
11
25.2746
21
-129.325
0
LINE
8
BLACK
6
CONTINUOUS
10
150.599
20
-68.449
11
163.599
21
-68.449
0
LINE
8
BLACK
6
CONTINUOUS
10
79.161
20
-30.349
11
92.161
21
-30.349
0
ARC
8
BLACK
10
177.886
20
-49.899
40
0.5
50
-0
51
90
0
LINE
8
BLACK
6
CONTINUOUS
10
188.699
20
-82.449
11
201.699
21
-82.449
0
LINE
8
BLACK
6
CONTINUOUS
10
106.949
20
-68.949
11
106.949
21
-81.949
0
ARC
8
BLACK
10
270.755
20
-81.949
40
0.5
50
-90
51
-0
0
ARC
8
BLACK
10
102.974
20
-87.999
40
0.5
50
90
51
180
0
ARC
8
BLACK
10
264.899
20
-49.899
40
0.5
50
90
51
180
0
LINE
8
BLACK
6
CONTINUOUS
10
21.511
20
-30.849
11
21.511
21
-43.849
0
LINE
8
BLACK
6
CONTINUOUS
10
350.598
20
-87.999
11
350.598
21
-100.999
0
LINE
8
BLACK
6
CONTINUOUS
10
31.036
20
-49.899
11
31.036
21
-62.899
0
LINE
8
BLACK
6
CONTINUOUS
10
240.586
20
-49.899
11
240.586
21
-62.899
0
ARC
8
BLACK
10
239.799
20
-81.949
40
0.5
50
-90
51
-0
0
LINE
8
BLACK
6
CONTINUOUS
10
117.261
20
-106.549
11
137.405
21
-106.549
0
ARC
8
BLACK
10
22.011
20
-43.849
40
0.5
50
180
51
270
0
ARC
8
BLACK
10
68.3485
20
-81.949
40
0.5
50
-90
51
-0
0
ARC
8
BLACK
10
73.1422
20
-108.049
40
0.5
50
90
51
180
0
LINE
8
BLACK
6
CONTINUOUS
10
297.173
20
-26.179
11
305.17
21
-26.179
0
ARC
8
BLACK
10
74.3985
20
-68.949
40
0.5
50
90
51
180
0
LINE
8
BLACK
6
CONTINUOUS
10
88.686
20
-49.399
11
101.687
21
-49.399
0
ARC
8
BLACK
10
144.549
20
-81.949
40
0.5
50
-90
51
-0
0
ARC
8
BLACK
10
212.511
20
-43.849
40
0.5
50
180
51
270
0
ARC
8
BLACK
10
293.665
20
-112.288
40
0.5
50
90
51
180
0
ARC
8
BLACK
10
77.8735
20
-100.999
40
0.5
50
-90
51
-0
0
LINE
8
BLACK
6
CONTINUOUS
10
31.536
20
-63.399
11
44.536
21
-63.399
0
LINE
8
BLACK
6
CONTINUOUS
10
212.011
20
-30.849
11
212.011
21
-43.849
0
LINE
8
BLACK
6
CONTINUOUS
10
55.3485
20
-68.449
11
68.3485
21
-68.449
0
LINE
8
BLACK
6
CONTINUOUS
10
250.611
20
-16.536
11
263.612
21
-16.536
0
ARC
8
BLACK
10
297.173
20
-21.179
40
0.5
50
89.9998
51
180
0
LINE
8
BLACK
6
CONTINUOUS
10
168.861
20
-30.849
11
168.861
21
-43.849
0
LINE
8
BLACK
6
CONTINUOUS
10
-1.31295
20
-25.929
11
3.021
21
-25.929
0
LINE
8
BLACK
6
CONTINUOUS
10
318.048
20
-82.449
11
331.048
21
-82.449
0
ARC
8
BLACK
10
318.048
20
-62.899
40
0.5
50
180
51
270
0
LINE
8
BLACK
6
CONTINUOUS
10
73.611
20
-3.036
11
73.611
21
-16.036
0
ARC
8
BLACK
10
63.586
20
-49.899
40
0.5
50
-0
51
90
0
ARC
8
BLACK
10
337.098
20
-49.899
40
0.5
50
90
51
180
0
LINE
8
BLACK
6
CONTINUOUS
10
107.736
20
-63.399
11
120.736
21
-63.399
0
ARC
8
BLACK
10
187.411
20
-43.849
40
0.5
50
-90
51
-0
0
ARC
8
BLACK
10
220.749
20
-107.049
40
0.5
50
-0
51
90
0
LINE
8
BLACK
6
CONTINUOUS
10
116.761
20
-30.849
11
116.761
21
-43.849
0
LINE
8
BLACK
6
CONTINUOUS
10
102.474
20
-87.999
11
102.474
21
-100.999
0
ARC
8
BLACK
10
255.564
20
-125.288
40
0.5
50
180
51
270
0
LINE
8
BLACK
6
CONTINUOUS
10
188.199
20
-107.049
11
188.199
21
-120.049
0
ARC
8
BLACK
10
226.799
20
-107.049
40
0.5
50
90
51
180
0
LINE
8
BLACK
6
CONTINUOUS
10
353.648
20
-50.986
11
353.648
21
-56.986
0
LINE
8
BLACK
6
CONTINUOUS
10
255.564
20
-111.788
11
268.564
21
-111.788
0
LINE
8
BLACK
6
CONTINUOUS
10
318.048
20
-2.536
11
331.048
21
-2.536
0
ARC
8
BLACK
10
368.148
20
-112.962
40
0.5
50
-0
51
90
0
LINE
8
BLACK
6
CONTINUOUS
10
202.986
20
-63.399
11
215.986
21
-63.399
0
ARC
8
BLACK
10
273.193
20
-83.949
40
0.5
50
180
51
270
0
ARC
8
BLACK
10
354.148
20
-118.962
40
0.5
50
180
51
270
0
ARC
8
BLACK
10
356.148
20
-3.036
40
0.5
50
90
51
180
0
LINE
8
BLACK
6
CONTINUOUS
10
355.648
20
-3.036
11
355.648
21
-16.036
0
ARC
8
BLACK
10
141.074
20
-87.999
40
0.5
50
90
51
180
0
ARC
8
BLACK
10
369.148
20
-72.424
40
0.5
50
-90
51
-0
0
LINE
8
BLACK
6
CONTINUOUS
10
230.774
20
-87.999
11
230.774
21
-100.999
0
ARC
8
BLACK
10
230.274
20
-100.999
40
0.5
50
-90
51
-0
0
LINE
8
BLACK
6
CONTINUOUS
10
272.693
20
-69.949
11
272.693
21
-83.949
0
LINE
8
BLACK
6
CONTINUOUS
10
126.286
20
-3.036
11
126.286
21
-16.036
0
ARC
8
BLACK
10
222.036
20
-62.899
40
0.5
50
180
51
270
0
LINE
8
BLACK
6
CONTINUOUS
10
84.4047
20
-108.049
11
84.4047
21
-122.049
0
ARC
8
BLACK
10
347.171
20
-25.669
40
0.5
50
180
51
270
0
ARC
8
BLACK
10
-1.31295
20
-26.429
40
0.500002
50
89.9998
51
180
0
LINE
8
BLACK
6
CONTINUOUS
10
368.148
20
-119.462
11
354.148
21
-119.462
0
ARC
8
BLACK
10
250.611
20
-16.036
40
0.5
50
180
51
270
0
LINE
8
BLACK
6
CONTINUOUS
10
98.211
20
-44.349
11
111.211
21
-44.349
0
LINE
8
BLACK
6
CONTINUOUS
10
26.7735
20
-120.549
11
62.6074
21
-120.549
0
LINE
8
BLACK
6
CONTINUOUS
10
40.561
20
-30.849
11
40.561
21
-43.849
0
LINE
8
BLACK
6
CONTINUOUS
10
350.598
20
-30.849
11
350.598
21
-43.849
0
LINE
8
BLACK
6
CONTINUOUS
10
88.186
20
-49.899
11
88.186
21
-62.899
0
ARC
8
BLACK
10
2.961
20
-30.849
40
0.5
50
90
51
180
0
ARC
8
BLACK
10
82.636
20
-62.899
40
0.5
50
-90
51
-0
0
LINE
8
BLACK
6
CONTINUOUS
10
135.524
20
-87.999
11
135.524
21
-100.999
0
ARC
8
BLACK
10
350.098
20
-62.899
40
0.5
50
-90
51
-0
0
LINE
8
BLACK
6
CONTINUOUS
10
92.661
20
-30.849
11
92.661
21
-43.849
0
LINE
8
BLACK
6
CONTINUOUS
10
145.337
20
-49.899
11
145.337
21
-62.899
0
ARC
8
BLACK
10
369.148
20
-43.849
40
0.5
50
-90
51
-0
0
LINE
8
BLACK
6
CONTINUOUS
10
305.67
20
-21.179
11
305.67
21
-25.679
0
ARC
8
BLACK
10
369.175
20
-21.429
40
0.5
50
89.9998
51
180
0
ARC
8
BLACK
10
311.999
20
-43.849
40
0.5
50
-90
51
-0
0
LINE
8
BLACK
6
CONTINUOUS
10
350.925
20
-125.833
11
355.428
21
-125.833
0
ARC
8
BLACK
10
257.699
20
-45.849
40
0.5
50
-90
51
-0
0
LINE
8
BLACK
6
CONTINUOUS
10
222.036
20
-49.399
11
235.036
21
-49.399
0
ARC
8
BLACK
10
131.549
20
-81.949
40
0.5
50
180
51
270
0
ARC
8
BLACK
10
251.699
20
-45.849
40
0.5
50
180
51
270
0
ARC
8
BLACK
10
135.024
20
-87.999
40
0.5
50
-0
51
90
0
LINE
8
BLACK
6
CONTINUOUS
10
356.148
20
-44.349
11
369.148
21
-44.349
0
ARC
8
BLACK
10
318.048
20
-68.949
40
0.5
50
90
51
180
0
LINE
8
BLACK
6
CONTINUOUS
10
322.174
20
-26.1654
11
330.171
21
-26.1654
0
LINE
8
BLACK
6
CONTINUOUS
10
350.421
20
-126.333
11
350.421
21
-129.329
0
ARC
8
BLACK
10
369.148
20
-110.524
40
0.5
50
-90
51
-0
0
LINE
8
BLACK
6
CONTINUOUS
10
28.3672
20
-87.999
11
28.3672
21
-100.999
0
LINE
8
BLACK
6
CONTINUOUS
10
173.143
20
-122.549
11
183.905
21
-122.549
0
LINE
8
BLACK
6
CONTINUOUS
10
92.9485
20
-68.949
11
92.9485
21
-81.949
0
ARC
8
BLACK
10
17.931
20
-23.429
40
3
50
-90
51
90
0
ARC
8
BLACK
10
60.111
20
-16.036
40
0.5
50
180
51
270
0
ARC
8
BLACK
10
273.136
20
-43.849
40
0.5
50
-90
51
-0
0
LINE
8
BLACK
6
CONTINUOUS
10
102.187
20
-49.899
11
102.187
21
-62.899
0
LINE
8
BLACK
6
CONTINUOUS
10
273.193
20
-84.449
11
279.193
21
-84.449
0
LINE
8
BLACK
6
CONTINUOUS
10
231.061
20
-30.849
11
231.061
21
-43.849
0
ARC
8
BLACK
10
145.837
20
-62.899
40
0.5
50
180
51
270
0
ARC
8
BLACK
10
287.614
20
-125.288
40
0.5
50
-90
51
-0
0
LINE
8
BLACK
6
CONTINUOUS
10
164.886
20
-2.536
11
177.886
21
-2.536
0
ARC
8
BLACK
10
373.248
20
-26.429
40
0.499999
50
-0.000343775
51
89.9997
0
LINE
8
BLACK
6
CONTINUOUS
10
126.786
20
-2.536
11
139.786
21
-2.536
0
ARC
8
BLACK
10
350.098
20
-43.849
40
0.5
50
-90
51
-0
0
LINE
8
BLACK
6
CONTINUOUS
10
36.2985
20
-68.449
11
49.2985
21
-68.449
0
LINE
8
BLACK
6
CONTINUOUS
10
298.999
20
-2.536
11
311.999
21
-2.536
0
LINE
8
BLACK
6
CONTINUOUS
10
16.461
20
-3.036
11
16.461
21
-16.036
0
LINE
8
BLACK
6
CONTINUOUS
10
242.68
20
-107.049
11
242.68
21
-120.049
0
LINE
8
BLACK
6
CONTINUOUS
10
50.586
20
-63.399
11
63.586
21
-63.399
0
LINE
8
BLACK
6
CONTINUOUS
10
293.665
20
-125.788
11
306.665
21
-125.788
0
ARC
8
BLACK
10
372.751
20
2.971
40
0.999999
50
-0.000286479
51
89.9997
0
LINE
8
BLACK
6
CONTINUOUS
10
373.748
20
2.971
11
373.748
21
-20.429
0
ARC
8
BLACK
10
331.048
20
-120.049
40
0.5
50
-90
51
-0
0
LINE
8
BLACK
6
CONTINUOUS
10
135.811
20
-30.849
11
135.811
21
-43.849
0
LINE
8
BLACK
6
CONTINUOUS
10
159.337
20
-49.899
11
159.337
21
-62.899
0
ARC
8
BLACK
10
41.061
20
-30.849
40
0.5
50
90
51
180
0
ARC
8
BLACK
10
306.665
20
-125.288
40
0.5
50
-90
51
-0
0
LINE
8
BLACK
6
CONTINUOUS
10
368.148
20
-112.462
11
354.148
21
-112.462
0
LINE
8
BLACK
6
CONTINUOUS
10
297.173
20
-20.679
11
305.17
21
-20.679
0
LINE
8
BLACK
6
CONTINUOUS
10
87.8985
20
-68.949
11
87.8985
21
-81.949
0
LINE
8
BLACK
6
CONTINUOUS
10
337.098
20
-120.549
11
350.098
21
-120.549
0
ARC
8
BLACK
10
318.048
20
-30.849
40
0.5
50
90
51
180
0
ARC
8
BLACK
10
356.148
20
-110.524
40
0.5
50
180
51
270
0
LINE
8
BLACK
6
CONTINUOUS
10
117.261
20
-30.349
11
130.261
21
-30.349
0
LINE
8
BLACK
6
CONTINUOUS
10
149.811
20
-30.849
11
149.811
21
-43.849
0
ARC
8
BLACK
10
111.211
20
-16.036
40
0.5
50
-90
51
-0
0
LINE
8
BLACK
6
CONTINUOUS
10
368.148
20
-81.362
11
354.148
21
-81.362
0
ARC
8
BLACK
10
355.169
20
-21.169
40
0.499999
50
-0.000343775
51
89.9997
0
LINE
8
BLACK
6
CONTINUOUS
10
337.098
20
-87.499
11
350.098
21
-87.499
0
ARC
8
BLACK
10
311.999
20
-87.999
40
0.5
50
-0
51
90
0
LINE
8
BLACK
6
CONTINUOUS
10
202.199
20
-68.949
11
202.199
21
-81.949
0
ARC
8
BLACK
10
125.499
20
-81.949
40
0.5
50
-90
51
-0
0
LINE
8
BLACK
6
CONTINUOUS
10
16.461
20
-30.849
11
16.461
21
-43.849
0
LINE
8
BLACK
6
CONTINUOUS
10
41.061
20
-2.536
11
54.061
21
-2.536
0
ARC
8
BLACK
10
139.786
20
-16.036
40
0.5
50
-90
51
-0
0
LINE
8
BLACK
6
CONTINUOUS
10
121.236
20
-49.899
11
121.236
21
-62.899
0
LINE
8
BLACK
6
CONTINUOUS
10
226.799
20
-82.449
11
239.799
21
-82.449
0
ARC
8
BLACK
10
164.886
20
-62.899
40
0.5
50
180
51
270
0
ARC
8
BLACK
10
241.086
20
-62.899
40
0.5
50
180
51
270
0
LINE
8
BLACK
6
CONTINUOUS
10
231.561
20
-30.349
11
244.561
21
-30.349
0
ARC
8
BLACK
10
220.749
20
-68.949
40
0.5
50
-0
51
90
0
ARC
8
BLACK
10
281.574
20
-31.849
40
0.5
50
-0
51
90
0
LINE
8
BLACK
6
CONTINUOUS
10
212.511
20
-44.349
11
225.511
21
-44.349
0
ARC
8
BLACK
10
287.614
20
-112.288
40
0.5
50
-0
51
90
0
LINE
8
BLACK
6
CONTINUOUS
10
117.261
20
-120.549
11
137.405
21
-120.549
0
LINE
8
BLACK
6
CONTINUOUS
10
278.399
20
-49.899
11
278.399
21
-62.899
0
LINE
8
BLACK
6
CONTINUOUS
10
83.9235
20
-87.499
11
96.9235
21
-87.499
0
ARC
8
BLACK
10
169.649
20
-68.949
40
0.5
50
90
51
180
0
ARC
8
BLACK
10
41.061
20
-16.036
40
0.5
50
180
51
270
0
ARC
8
BLACK
10
257.699
20
-31.849
40
0.5
50
-0
51
90
0
LINE
8
BLACK
6
CONTINUOUS
10
178.674
20
-87.999
11
178.674
21
-100.999
0
LINE
8
BLACK
6
CONTINUOUS
10
368.671
20
-21.429
11
368.671
21
-25.429
0
ARC
8
BLACK
10
318.048
20
-3.036
40
0.5
50
90
51
180
0
LINE
8
BLACK
6
CONTINUOUS
10
97.711
20
-30.849
11
97.711
21
-43.849
0
LINE
8
BLACK
6
CONTINUOUS
10
212.011
20
-3.036
11
212.011
21
-16.036
0
ARC
8
BLACK
10
155.361
20
-30.849
40
0.5
50
90
51
180
0
ARC
8
BLACK
10
14.8672
20
-100.999
40
0.5
50
180
51
270
0
LINE
8
BLACK
6
CONTINUOUS
10
298.499
20
-68.949
11
298.499
21
-81.949
0
LINE
8
BLACK
6
CONTINUOUS
10
69.636
20
-49.399
11
82.636
21
-49.399
0
LINE
8
BLACK
6
CONTINUOUS
10
64.3735
20
-87.999
11
64.3735
21
-100.999
0
ARC
8
BLACK
10
318.048
20
-49.899
40
0.5
50
90
51
180
0
ARC
8
BLACK
10
244.561
20
-3.036
40
0.5
50
-0
51
90
0
ARC
8
BLACK
10
87.3985
20
-68.949
40
0.5
50
-0
51
90
0
LINE
8
BLACK
6
CONTINUOUS
10
322.174
20
-20.6654
11
330.172
21
-20.6654
0
ARC
8
BLACK
10
235.036
20
-62.899
40
0.5
50
-90
51
-0
0
LINE
8
BLACK
6
CONTINUOUS
10
121.524
20
-87.999
11
121.524
21
-100.999
0
ARC
8
BLACK
10
92.161
20
-30.849
40
0.5
50
-0
51
90
0
LINE
8
BLACK
6
CONTINUOUS
10
298.499
20
-30.849
11
298.499
21
-43.849
0
LINE
8
BLACK
6
CONTINUOUS
10
150.099
20
-68.949
11
150.099
21
-81.949
0
LINE
8
BLACK
6
CONTINUOUS
10
257.755
20
-82.449
11
270.755
21
-82.449
0
ARC
8
BLACK
10
215.986
20
-49.899
40
0.5
50
-0
51
90
0
LINE
8
BLACK
6
CONTINUOUS
10
2.961
20
-44.349
11
15.961
21
-44.349
0
ARC
8
BLACK
10
331.048
20
-107.049
40
0.5
50
-0
51
90
0
LINE
8
BLACK
6
CONTINUOUS
10
275.574
20
-31.349
11
281.574
21
-31.349
0
ARC
8
BLACK
10
256.468
20
-87.999
40
0.5
50
-0
51
90
0
ARC
8
BLACK
10
226.799
20
-68.949
40
0.5
50
90
51
180
0
ARC
8
BLACK
10
354.148
20
-95.086
40
0.5
50
180
51
270
0
ARC
8
BLACK
10
318.048
20
-87.999
40
0.5
50
90
51
180
0
ARC
8
BLACK
10
192.174
20
-87.999
40
0.5
50
-0
51
90
0
LINE
8
BLACK
6
CONTINUOUS
10
14.931
20
-26.429
11
17.931
21
-26.429
0
ARC
8
BLACK
10
337.098
20
-120.049
40
0.5
50
180
51
270
0
LINE
8
BLACK
6
CONTINUOUS
10
136.311
20
-30.349
11
149.311
21
-30.349
0
LINE
8
BLACK
6
CONTINUOUS
10
59.3235
20
-87.999
11
59.3235
21
-100.999
0
LINE
8
BLACK
6
CONTINUOUS
10
296.673
20
-21.179
11
296.673
21
-25.679
0
LINE
8
BLACK
6
CONTINUOUS
10
3.521
20
-21.429
11
3.521
21
-25.429
0
LINE
8
BLACK
6
CONTINUOUS
10
318.048
20
-87.499
11
331.048
21
-87.499
0
ARC
8
BLACK
10
251.699
20
-31.849
40
0.5
50
90
51
180
0
ARC
8
BLACK
10
298.999
20
-3.036
40
0.5
50
90
51
180
0
LINE
8
BLACK
6
CONTINUOUS
10
288.114
20
-93.2378
11
288.114
21
-106.238
0
LINE
8
BLACK
6
CONTINUOUS
10
337.098
20
-30.349
11
350.098
21
-30.349
0
ARC
8
BLACK
10
331.048
20
-49.899
40
0.5
50
-0
51
90
0
ARC
8
BLACK
10
318.048
20
-107.049
40
0.5
50
90
51
180
0
ARC
8
BLACK
10
164.886
20
-49.899
40
0.5
50
90
51
180
0
LINE
8
BLACK
6
CONTINUOUS
10
145.049
20
-68.949
11
145.049
21
-81.949
0
ARC
8
BLACK
10
350.098
20
-107.049
40
0.5
50
-0
51
90
0
ARC
8
BLACK
10
188.699
20
-120.049
40
0.5
50
180
51
270
0
ARC
8
BLACK
10
79.161
20
-16.036
40
0.5
50
180
51
270
0
LINE
8
BLACK
6
CONTINUOUS
10
116.761
20
-107.049
11
116.761
21
-120.049
0
ARC
8
BLACK
10
217.274
20
-87.999
40
0.5
50
90
51
180
0
ARC
8
BLACK
10
369.171
20
-25.429
40
0.5
50
180
51
270
0
ARC
8
BLACK
10
350.098
20
-87.999
40
0.5
50
-0
51
90
0
LINE
8
BLACK
6
CONTINUOUS
10
198.224
20
-87.499
11
211.224
21
-87.499
0
LINE
8
BLACK
6
CONTINUOUS
10
22.011
20
-44.349
11
35.011
21
-44.349
0
ARC
8
BLACK
10
354.148
20
-80.862
40
0.5
50
180
51
270
0
LINE
8
BLACK
6
CONTINUOUS
10
269.661
20
-16.536
11
282.661
21
-16.536
0
LINE
8
BLACK
6
CONTINUOUS
10
255.064
20
-112.288
11
255.064
21
-125.288
0
ARC
8
BLACK
10
331.048
20
-100.999
40
0.5
50
-90
51
-0
0
ARC
8
BLACK
10
77.8735
20
-87.999
40
0.5
50
-0
51
90
0
LINE
8
BLACK
6
CONTINUOUS
10
264.899
20
-63.399
11
277.899
21
-63.399
0
ARC
8
BLACK
10
173.124
20
-87.999
40
0.5
50
-0
51
90
0
ARC
8
BLACK
10
220.749
20
-81.949
40
0.5
50
-90
51
-0
0
LINE
8
BLACK
6
CONTINUOUS
10
140.286
20
-3.036
11
140.286
21
-16.036
0
ARC
8
BLACK
10
136.311
20
-43.849
40
0.5
50
180
51
270
0
ARC
8
BLACK
10
174.411
20
-43.849
40
0.5
50
180
51
270
0
LINE
8
BLACK
6
CONTINUOUS
10
368.148
20
-95.586
11
354.148
21
-95.586
0
LINE
8
BLACK
6
CONTINUOUS
10
55.3485
20
-82.449
11
68.3485
21
-82.449
0
LINE
8
BLACK
6
CONTINUOUS
10
59.611
20
-3.036
11
59.611
21
-16.036
0
ARC
8
BLACK
10
158.837
20
-62.899
40
0.5
50
-90
51
-0
0
ARC
8
BLACK
10
5.34225
20
-120.049
40
0.5
50
180
51
270
0
LINE
8
BLACK
6
CONTINUOUS
10
372.75
20
-129.829
11
356.425
21
-129.829
0
ARC
8
BLACK
10
183.937
20
-62.899
40
0.5
50
180
51
270
0
LINE
8
BLACK
6
CONTINUOUS
10
251.199
20
-31.849
11
251.199
21
-45.849
0
LINE
8
BLACK
6
CONTINUOUS
10
40.561
20
-3.036
11
40.561
21
-16.036
0
ARC
8
BLACK
10
98.211
20
-30.849
40
0.5
50
90
51
180
0
LINE
8
BLACK
6
CONTINUOUS
10
257.755
20
-68.449
11
270.755
21
-68.449
0
ARC
8
BLACK
10
101.687
20
-49.899
40
0.5
50
-0
51
90
0
ARC
8
BLACK
10
337.098
20
-100.999
40
0.5
50
180
51
270
0
LINE
8
BLACK
6
CONTINUOUS
10
79.161
20
-2.536
11
92.161
21
-2.536
0
LINE
8
BLACK
6
CONTINUOUS
10
336.598
20
-49.899
11
336.598
21
-62.899
0
ARC
8
BLACK
10
2.961
20
-3.036
40
0.5
50
90
51
180
0
ARC
8
BLACK
10
145.837
20
-3.036
40
0.5
50
90
51
180
0
LINE
8
BLACK
6
CONTINUOUS
10
188.699
20
-120.549
11
207.749
21
-120.549
0
ARC
8
BLACK
10
36.2985
20
-68.949
40
0.5
50
90
51
180
0
ARC
8
BLACK
10
63.586
20
-62.899
40
0.5
50
-90
51
-0
0
ARC
8
BLACK
10
275.574
20
-45.849
40
0.5
50
180
51
270
0
ARC
8
BLACK
10
311.999
20
-62.899
40
0.5
50
-90
51
-0
0
LINE
8
BLACK
6
CONTINUOUS
10
20.2746
20
-125.833
11
24.7774
21
-125.833
0
ARC
8
BLACK
10
305.17
20
-21.179
40
0.499999
50
-0.000343775
51
89.9997
0
ARC
8
BLACK
10
244.561
20
-43.849
40
0.5
50
-90
51
-0
0
ARC
8
BLACK
10
12.4292
20
-88.999
40
0.5
50
-0
51
90
0
LINE
8
BLACK
6
CONTINUOUS
10
145.837
20
-2.536
11
158.837
21
-2.536
0
LINE
8
BLACK
6
CONTINUOUS
10
337.098
20
-44.349
11
350.098
21
-44.349
0
ARC
8
BLACK
10
231.561
20
-30.849
40
0.5
50
90
51
180
0
ARC
8
BLACK
10
369.148
20
-30.849
40
0.5
50
-0
51
90
0
ARC
8
BLACK
10
355.428
20
-126.328
40
0.495845
50
-0.480354
51
90.0196
0
LINE
8
BLACK
6
CONTINUOUS
10
164.099
20
-68.949
11
164.099
21
-81.949
0
LINE
8
BLACK
6
CONTINUOUS
10
164.386
20
-3.036
11
164.386
21
-16.036
0
ARC
8
BLACK
10
12.4292
20
-102.999
40
0.5
50
-90
51
-0
0
ARC
8
BLACK
10
263.612
20
-16.036
40
0.5
50
-90
51
-0
0
ARC
8
BLACK
10
115.974
20
-100.999
40
0.5
50
-90
51
-0
0
ARC
8
BLACK
10
49.2985
20
-68.949
40
0.5
50
-0
51
90
0
LINE
8
BLACK
6
CONTINUOUS
10
331.548
20
-87.999
11
331.548
21
-100.999
0
LINE
8
BLACK
6
CONTINUOUS
10
347.171
20
-20.669
11
355.169
21
-20.669
0
LINE
8
BLACK
6
CONTINUOUS
10
258.199
20
-31.849
11
258.199
21
-45.849
0
ARC
8
BLACK
10
117.261
20
-120.049
40
0.5
50
180
51
270
0
ARC
8
BLACK
10
173.143
20
-108.049
40
0.5
50
90
51
180
0
ARC
8
BLACK
10
149.311
20
-30.849
40
0.5
50
-0
51
90
0
LINE
8
BLACK
6
CONTINUOUS
10
41.061
20
-16.536
11
54.061
21
-16.536
0
LINE
8
BLACK
6
CONTINUOUS
10
155.361
20
-44.349
11
168.361
21
-44.349
0
ARC
8
BLACK
10
356.148
20
-97.524
40
0.5
50
90
51
180
0
ARC
8
BLACK
10
330.172
20
-25.6654
40
0.499999
50
-90.0002
51
-0.000258364
0
LINE
8
BLACK
6
CONTINUOUS
10
131.549
20
-82.449
11
144.549
21
-82.449
0
ARC
8
BLACK
10
356.148
20
-59.424
40
0.5
50
90
51
180
0
ARC
8
BLACK
10
36.3053
20
-88.999
40
0.5
50
-0
51
90
0
LINE
8
BLACK
6
CONTINUOUS
10
250.611
20
-2.536
11
263.612
21
-2.536
0
ARC
8
BLACK
10
155.361
20
-43.849
40
0.5
50
180
51
270
0
LINE
8
BLACK
6
CONTINUOUS
10
264.399
20
-49.899
11
264.399
21
-62.899
0
ARC
8
BLACK
10
20.7235
20
-49.899
40
0.5
50
-0
51
90
0
LINE
8
BLACK
6
CONTINUOUS
10
337.098
20
-68.449
11
350.098
21
-68.449
0
LINE
8
BLACK
6
CONTINUOUS
10
116.474
20
-87.999
11
116.474
21
-100.999
0
ARC
8
BLACK
10
92.161
20
-16.036
40
0.5
50
-90
51
-0
0
ARC
8
BLACK
10
226.799
20
-120.049
40
0.5
50
180
51
270
0
LINE
8
BLACK
6
CONTINUOUS
10
221.249
20
-68.949
11
221.249
21
-81.949
0
LINE
8
BLACK
6
CONTINUOUS
10
41.061
20
-44.349
11
54.061
21
-44.349
0
ARC
8
BLACK
10
298.999
20
-81.949
40
0.5
50
180
51
270
0
LINE
8
BLACK
6
CONTINUOUS
10
6.42925
20
-88.499
11
12.4292
21
-88.499
0
LINE
8
BLACK
6
CONTINUOUS
10
256.968
20
-87.999
11
256.968
21
-100.999
0
ARC
8
BLACK
10
225.511
20
-3.036
40
0.5
50
-0
51
90
0
ARC
8
BLACK
10
83.9235
20
-87.999
40
0.5
50
90
51
180
0
LINE
8
BLACK
6
CONTINUOUS
10
179.174
20
-101.499
11
192.174
21
-101.499
0
LINE
8
BLACK
6
CONTINUOUS
10
50.086
20
-49.899
11
50.086
21
-62.899
0
ARC
8
BLACK
10
69.636
20
-49.899
40
0.5
50
90
51
180
0
LINE
8
BLACK
6
CONTINUOUS
10
347.171
20
-26.169
11
355.169
21
-26.169
0
LINE
8
BLACK
6
CONTINUOUS
10
54.8485
20
-68.949
11
54.8485
21
-81.949
0
ARC
8
BLACK
10
60.111
20
-43.849
40
0.5
50
180
51
270
0
LINE
8
BLACK
6
CONTINUOUS
10
5.34225
20
-106.549
11
20.7235
21
-106.549
0
LINE
8
BLACK
6
CONTINUOUS
10
350.598
20
-68.949
11
350.598
21
-81.949
0
ARC
8
BLACK
10
350.098
20
-30.849
40
0.5
50
-0
51
90
0
LINE
8
BLACK
6
CONTINUOUS
10
141.074
20
-101.499
11
154.074
21
-101.499
0
ARC
8
BLACK
10
211.224
20
-87.999
40
0.5
50
-0
51
90
0
LINE
8
BLACK
6
CONTINUOUS
10
14.8672
20
-87.499
11
27.8672
21
-87.499
0
LINE
8
BLACK
6
CONTINUOUS
10
72.6422
20
-108.049
11
72.6422
21
-122.049
0
ARC
8
BLACK
10
212.511
20
-30.849
40
0.5
50
90
51
180
0
ARC
8
BLACK
10
206.461
20
-43.849
40
0.5
50
-90
51
-0
0
ARC
8
BLACK
10
144.549
20
-68.949
40
0.5
50
-0
51
90
0
LINE
8
BLACK
6
CONTINUOUS
10
317.548
20
-87.999
11
317.548
21
-100.999
0
ARC
8
BLACK
10
257.755
20
-68.949
40
0.5
50
90
51
180
0
ARC
8
BLACK
10
349.928
20
-129.335
40
0.49378
50
-89.9784
51
0.721566
0
LINE
8
BLACK
6
CONTINUOUS
10
331.548
20
-107.049
11
331.548
21
-120.049
0
LINE
8
BLACK
6
CONTINUOUS
10
207.749
20
-68.449
11
220.749
21
-68.449
0
ARC
8
BLACK
10
111.211
20
-3.036
40
0.5
50
-0
51
90
0
ARC
8
BLACK
10
356.424
20
-129.325
40
0.5005
50
-179.943
51
-89.9429
0
LINE
8
BLACK
6
CONTINUOUS
10
154.574
20
-87.999
11
154.574
21
-100.999
0
ARC
8
BLACK
10
64.8735
20
-100.999
40
0.5
50
180
51
270
0
ARC
8
BLACK
10
20.2741
20
-126.334
40
0.50055
50
89.9369
51
179.937
0
LINE
8
BLACK
6
CONTINUOUS
10
126.786
20
-63.399
11
139.786
21
-63.399
0
ARC
8
BLACK
10
64.8735
20
-87.999
40
0.5
50
90
51
180
0
LINE
8
BLACK
6
CONTINUOUS
10
312.499
20
-68.949
11
312.499
21
-81.949
0
ARC
8
BLACK
10
337.098
20
-107.049
40
0.5
50
90
51
180
0
ARC
8
BLACK
10
282.661
20
-16.036
40
0.5
50
-90
51
-0
0
ARC
8
BLACK
10
24.7774
20
-126.333
40
0.499999
50
-0.000343775
51
89.9997
0
LINE
8
BLACK
6
CONTINUOUS
10
140.574
20
-87.999
11
140.574
21
-100.999
0
LINE
8
BLACK
6
CONTINUOUS
10
298.999
20
-101.499
11
311.999
21
-101.499
0
ARC
8
BLACK
10
158.837
20
-16.036
40
0.5
50
-90
51
-0
0
ARC
8
BLACK
10
15.961
20
-43.849
40
0.5
50
-90
51
-0
0
ARC
8
BLACK
10
5.34225
20
-120.049
40
0.5
50
180
51
270
0
ARC
8
BLACK
10
69.611
20
-108.049
40
0.5
50
-0
51
90
0
ARC
8
BLACK
10
115.974
20
-87.999
40
0.5
50
-0
51
90
0
LINE
8
BLACK
6
CONTINUOUS
10
231.561
20
-44.349
11
244.561
21
-44.349
0
LINE
8
BLACK
6
CONTINUOUS
10
243.468
20
-87.499
11
256.468
21
-87.499
0
ARC
8
BLACK
10
243.468
20
-100.999
40
0.5
50
180
51
270
0
ARC
8
BLACK
10
212.511
20
-16.036
40
0.5
50
180
51
270
0
LINE
8
BLACK
6
CONTINUOUS
10
269.661
20
-2.536
11
282.661
21
-2.536
0
LINE
8
BLACK
6
CONTINUOUS
10
188.699
20
-106.549
11
207.749
21
-106.549
0
ARC
8
BLACK
10
179.174
20
-100.999
40
0.5
50
180
51
270
0
ARC
8
BLACK
10
354.148
20
-112.962
40
0.5
50
90
51
180
0
ARC
8
BLACK
10
350.098
20
-68.949
40
0.5
50
-0
51
90
0
ARC
8
BLACK
10
120.736
20
-49.899
40
0.5
50
-0
51
90
0
ARC
8
BLACK
10
179.174
20
-87.999
40
0.5
50
90
51
180
0
ARC
8
BLACK
10
88.686
20
-62.899
40
0.5
50
180
51
270
0
ARC
8
BLACK
10
354.148
20
-89.086
40
0.5
50
90
51
180
0
LINE
8
BLACK
6
CONTINUOUS
10
74.3985
20
-82.449
11
87.3985
21
-82.449
0
LINE
8
BLACK
6
CONTINUOUS
10
111.711
20
-30.849
11
111.711
21
-43.849
0
ARC
8
BLACK
10
277.899
20
-62.899
40
0.5
50
-90
51
-0
0
ARC
8
BLACK
10
268.564
20
-125.288
40
0.5
50
-90
51
-0
0
LINE
8
BLACK
6
CONTINUOUS
10
45.3235
20
-87.999
11
45.3235
21
-100.999
0
LINE
8
BLACK
6
CONTINUOUS
10
202.486
20
-49.899
11
202.486
21
-62.899
0
ARC
8
BLACK
10
298.999
20
-30.849
40
0.5
50
90
51
180
0
LINE
8
BLACK
6
CONTINUOUS
10
250.111
20
-3.036
11
250.111
21
-16.036
0
ARC
8
BLACK
10
150.599
20
-81.949
40
0.5
50
180
51
270
0
LINE
8
BLACK
6
CONTINUOUS
10
5.92925
20
-88.999
11
5.92925
21
-102.999
0
LINE
8
BLACK
6
CONTINUOUS
10
231.561
20
-16.536
11
244.561
21
-16.536
0
ARC
8
BLACK
10
318.048
20
-43.849
40
0.5
50
180
51
270
0
ARC
8
BLACK
10
111.211
20
-30.849
40
0.5
50
-0
51
90
0
ARC
8
BLACK
10
201.699
20
-68.949
40
0.5
50
-0
51
90
0
ARC
8
BLACK
10
20.7235
20
-120.049
40
0.5
50
-90
51
-0
0
LINE
8
BLACK
6
CONTINUOUS
10
192.961
20
-30.849
11
192.961
21
-43.849
0
ARC
8
BLACK
10
102.974
20
-100.999
40
0.5
50
180
51
270
0
LINE
8
BLACK
6
CONTINUOUS
10
318.048
20
-63.399
11
331.048
21
-63.399
0
LINE
8
BLACK
6
CONTINUOUS
10
131.549
20
-68.449
11
144.549
21
-68.449
0
LINE
8
BLACK
6
CONTINUOUS
10
197.437
20
-49.899
11
197.437
21
-62.899
0
LINE
8
BLACK
6
CONTINUOUS
10
350.598
20
-3.036
11
350.598
21
-16.036
0
ARC
8
BLACK
10
106.449
20
-68.949
40
0.5
50
-0
51
90
0
LINE
8
BLACK
6
CONTINUOUS
10
274.614
20
-106.738
11
287.614
21
-106.738
0
LINE
8
BLACK
6
CONTINUOUS
10
83.4235
20
-87.999
11
83.4235
21
-100.999
0
LINE
8
BLACK
6
CONTINUOUS
10
275.574
20
-46.349
11
281.574
21
-46.349
0
ARC
8
BLACK
10
279.193
20
-83.949
40
0.5
50
-90
51
-0
0
LINE
8
BLACK
6
CONTINUOUS
10
317.548
20
-49.899
11
317.548
21
-62.899
0
LINE
8
BLACK
6
CONTINUOUS
10
164.386
20
-49.899
11
164.386
21
-62.899
0
LINE
8
BLACK
6
CONTINUOUS
10
264.899
20
-49.399
11
277.899
21
-49.399
0
LINE
8
BLACK
6
CONTINUOUS
10
35.7985
20
-68.949
11
35.7985
21
-81.949
0
LINE
8
BLACK
6
CONTINUOUS
10
64.086
20
-49.899
11
64.086
21
-62.899
0
LINE
8
BLACK
6
CONTINUOUS
10
369.148
20
-111.024
11
356.148
21
-111.024
0
ARC
8
BLACK
10
163.599
20
-81.949
40
0.5
50
-90
51
-0
0
LINE
8
BLACK
6
CONTINUOUS
10
137.905
20
-107.049
11
137.905
21
-120.049
0
ARC
8
BLACK
10
58.8235
20
-87.999
40
0.5
50
-0
51
90
0
LINE
8
BLACK
6
CONTINUOUS
10
321.674
20
-21.1654
11
321.674
21
-25.6654
0
ARC
8
BLACK
10
193.461
20
-30.849
40
0.5
50
90
51
180
0
LINE
8
BLACK
6
CONTINUOUS
10
160.124
20
-87.499
11
173.124
21
-87.499
0
LINE
8
BLACK
6
CONTINUOUS
10
78.661
20
-3.036
11
78.661
21
-16.036
0
ARC
8
BLACK
10
139.786
20
-3.036
40
0.5
50
-0
51
90
0
ARC
8
BLACK
10
83.9047
20
-122.049
40
0.5
50
-90
51
-0
0
ARC
8
BLACK
10
-0.814001
20
2.971
40
1
50
89.9999
51
180
0
ARC
8
BLACK
10
322.174
20
-25.6654
40
0.5
50
180
51
270
0
LINE
8
BLACK
6
CONTINUOUS
10
245.061
20
-3.036
11
245.061
21
-16.036
0
LINE
8
BLACK
6
CONTINUOUS
10
242.968
20
-87.999
11
242.968
21
-100.999
0
ARC
8
BLACK
10
207.749
20
-81.949
40
0.5
50
180
51
270
0
LINE
8
BLACK
6
CONTINUOUS
10
249.317
20
-84.449
11
255.317
21
-84.449
0
LINE
8
BLACK
6
CONTINUOUS
10
202.986
20
-49.399
11
215.986
21
-49.399
0
ARC
8
BLACK
10
347.171
20
-21.169
40
0.5
50
89.9998
51
180
0
ARC
8
BLACK
10
93.4485
20
-68.949
40
0.5
50
90
51
180
0
LINE
8
BLACK
6
CONTINUOUS
10
136.311
20
-44.349
11
149.311
21
-44.349
0
LINE
8
BLACK
6
CONTINUOUS
10
63.611
20
-122.549
11
69.611
21
-122.549
0
LINE
8
BLACK
6
CONTINUOUS
10
312.499
20
-49.899
11
312.499
21
-62.899
0
LINE
8
BLACK
6
CONTINUOUS
10
70.111
20
-108.049
11
70.111
21
-122.049
0
ARC
8
BLACK
10
318.048
20
-120.049
40
0.5
50
180
51
270
0
LINE
8
BLACK
6
CONTINUOUS
10
159.624
20
-87.999
11
159.624
21
-100.999
0
LINE
8
BLACK
6
CONTINUOUS
10
22.011
20
-30.349
11
35.011
21
-30.349
0
LINE
8
BLACK
6
CONTINUOUS
10
293.165
20
-112.288
11
293.165
21
-125.288
0
LINE
8
BLACK
6
CONTINUOUS
10
274.614
20
-111.788
11
287.614
21
-111.788
0
ARC
8
BLACK
10
354.148
20
-50.986
40
0.5
50
90
51
180
0
ARC
8
BLACK
10
268.564
20
-112.288
40
0.5
50
-0
51
90
0
ARC
8
BLACK
10
241.086
20
-49.899
40
0.5
50
90
51
180
0
LINE
8
BLACK
6
CONTINUOUS
10
73.611
20
-30.849
11
73.611
21
-43.849
0
LINE
8
BLACK
6
CONTINUOUS
10
249.317
20
-69.449
11
255.317
21
-69.449
0
LINE
8
BLACK
6
CONTINUOUS
10
7.7235
20
-63.399
11
20.7235
21
-63.399
0
ARC
8
BLACK
10
69.611
20
-122.049
40
0.5
50
-90
51
-0
0
ARC
8
BLACK
10
73.111
20
-43.849
40
0.5
50
-90
51
-0
0
ARC
8
BLACK
10
55.3485
20
-81.949
40
0.5
50
180
51
270
0
ARC
8
BLACK
10
331.048
20
-3.036
40
0.5
50
-0
51
90
0
LINE
8
BLACK
6
CONTINUOUS
10
312.499
20
-87.999
11
312.499
21
-100.999
0
LINE
8
BLACK
6
CONTINUOUS
10
188.699
20
-68.449
11
201.699
21
-68.449
0
LINE
8
BLACK
6
CONTINUOUS
10
369.648
20
-30.849
11
369.648
21
-43.849
0
LINE
8
BLACK
6
CONTINUOUS
10
102.974
20
-101.499
11
115.974
21
-101.499
0
ARC
8
BLACK
10
20.7235
20
-107.049
40
0.5
50
-0
51
90
0
LINE
8
BLACK
6
CONTINUOUS
10
275.074
20
-31.849
11
275.074
21
-45.849
0
ARC
8
BLACK
10
298.999
20
-68.949
40
0.5
50
90
51
180
0
LINE
8
BLACK
6
CONTINUOUS
10
251.699
20
-46.349
11
257.699
21
-46.349
0
LINE
8
BLACK
6
CONTINUOUS
10
369.648
20
-59.424
11
369.648
21
-72.424
0
ARC
8
BLACK
10
225.511
20
-30.849
40
0.5
50
-0
51
90
0
ARC
8
BLACK
10
79.161
20
-43.849
40
0.5
50
180
51
270
0
ARC
8
BLACK
10
254.086
20
-62.899
40
0.5
50
-90
51
-0
0
LINE
8
BLACK
6
CONTINUOUS
10
212.511
20
-2.536
11
225.511
21
-2.536
0
LINE
8
BLACK
6
CONTINUOUS
10
368.148
20
-50.486
11
354.148
21
-50.486
0
LINE
8
BLACK
6
CONTINUOUS
10
298.499
20
-49.899
11
298.499
21
-62.899
0
LINE
8
BLACK
6
CONTINUOUS
10
92.661
20
-3.036
11
92.661
21
-16.036
0
ARC
8
BLACK
10
293.665
20
-125.288
40
0.5
50
180
51
270
0
ARC
8
BLACK
10
198.224
20
-100.999
40
0.5
50
180
51
270
0
ARC
8
BLACK
10
196.937
20
-62.899
40
0.5
50
-90
51
-0
0
LINE
8
BLACK
6
CONTINUOUS
10
355.924
20
-126.333
11
355.924
21
-129.325
0
LINE
8
BLACK
6
CONTINUOUS
10
369.648
20
-3.036
11
369.648
21
-16.036
0
LINE
8
BLACK
6
CONTINUOUS
10
30.3052
20
-103.499
11
36.3053
21
-103.499
0
ARC
8
BLACK
10
2.961
20
-43.849
40
0.500001
50
180
51
270
  0
ENDSEC
  0
EOF
