  0
SECTION
  2
HEADER
  9
$ANGBASE
  50
0.0
  9
$ANGDIR
  70
1
  9
$MEASUREMENT
  70
1
  0
ENDSEC
  0
SECTION
  2
TABLES
  0
TABLE
  2
LTYPE
  70
4
  0
LTYPE
  5
40F
  2
CONTINUOUS
  70
0
  3
Solid line
  72
65
  73
0
  40
0.0
  0
LTYPE
  5
410
  2
DASHDOT
 70
0
  3
Dash Dot ____ _ ____ _
 72
65
 73
4
 40
2.0
 49
1.25
 49
-0.25
 49
0.25
 49
-0.25
  0
LTYPE
  5
411
  2
DASHED
 70
0
  3
Dashed __ __ __ __ __
 72
65
 73
2
 40
0.75
 49
0.5
 49
-0.25
  0
LTYPE
  5
43B
  2
DOTTED
 70
0
  3
Dotted .  .  .  .
 72
65
 73
2
 40
0.2
 49
0.0
 49
-0.2
  0
ENDTAB
  0
TABLE
  2
STYLE
  70
4
  0
STYLE
  2
KICAD
  70
0
  40
0
  41
1
  42
1
  50
0
  71
0
  3
isocp.shx
  0
STYLE
  2
KICADB
  70
0
  40
0
  41
1
  42
1
  50
0
  71
0
  3
isocp.shx
  0
STYLE
  2
KICADI
  70
0
  40
0
  41
1
  42
1
  50
15
  71
0
  3
isocp.shx
  0
STYLE
  2
KICADBI
  70
0
  40
0
  41
1
  42
1
  50
15
  71
0
  3
isocp.shx
  0
ENDTAB
  0
TABLE
  2
LAYER
  70
1
  0
LAYER
  2
BLACK
  70
0
  62
7
  6
CONTINUOUS
  0
ENDTAB
  0
ENDSEC
  0
SECTION
  2
ENTITIES
0
ARC
8
BLACK
10
337.931
20
-23.403
40
3
50
90
51
270
0
ARC
8
BLACK
10
340.931
20
-23.403
40
3
50
-90
51
90
0
LINE
8
BLACK
6
CONTINUOUS
10
337.931
20
-26.403
11
340.931
21
-26.403
0
LINE
8
BLACK
6
CONTINUOUS
10
337.931
20
-20.403
11
340.931
21
-20.403
0
ARC
8
BLACK
10
184.346
20
-23.414
40
3
50
90
51
270
0
LINE
8
BLACK
6
CONTINUOUS
10
184.346
20
-26.414
11
187.346
21
-26.414
0
ARC
8
BLACK
10
187.346
20
-23.414
40
3
50
-90
51
90
0
LINE
8
BLACK
6
CONTINUOUS
10
184.346
20
-20.414
11
187.346
21
-20.414
0
LINE
8
BLACK
6
CONTINUOUS
10
14.9265
20
-26.424
11
17.9265
21
-26.424
0
ARC
8
BLACK
10
17.9265
20
-23.424
40
3
50
-90
51
90
0
ARC
8
BLACK
10
14.9265
20
-23.424
40
3
50
90
51
270
0
LINE
8
BLACK
6
CONTINUOUS
10
14.9265
20
-20.424
11
17.9265
21
-20.424
0
LINE
8
BLACK
6
CONTINUOUS
10
355.924
20
-126.333
11
355.924
21
-129.325
0
ARC
8
BLACK
10
-0.813756
20
2.971
40
1
50
89.9998
51
180
0
ARC
8
BLACK
10
356.424
20
-129.325
40
0.5005
50
-179.943
51
-89.9429
0
ARC
8
BLACK
10
20.2743
20
-126.334
40
0.50055
50
89.9368
51
179.937
0
ARC
8
BLACK
10
349.928
20
-129.335
40
0.49378
50
-89.9785
51
0.721466
0
ARC
8
BLACK
10
24.7776
20
-126.333
40
0.499999
50
-0.000458367
51
89.9995
0
LINE
8
BLACK
6
CONTINUOUS
10
3.52125
20
-21.429
11
3.52125
21
-25.429
0
LINE
8
BLACK
6
CONTINUOUS
10
372.751
20
-129.829
11
356.425
21
-129.829
0
ARC
8
BLACK
10
369.171
20
-25.429
40
0.5
50
180
51
270
0
ARC
8
BLACK
10
372.751
20
2.971
40
0.999999
50
-0.000343775
51
89.9997
0
LINE
8
BLACK
6
CONTINUOUS
10
373.748
20
2.971
11
373.748
21
-20.429
0
LINE
8
BLACK
6
CONTINUOUS
10
368.671
20
-21.429
11
368.671
21
-25.429
0
ARC
8
BLACK
10
-1.3127
20
-26.429
40
0.500002
50
89.9995
51
180
0
ARC
8
BLACK
10
373.248
20
-26.429
40
0.499999
50
-0.000458367
51
89.9995
0
LINE
8
BLACK
6
CONTINUOUS
10
350.421
20
-126.333
11
350.421
21
-129.329
0
LINE
8
BLACK
6
CONTINUOUS
10
350.925
20
-125.833
11
355.428
21
-125.833
0
ARC
8
BLACK
10
369.175
20
-21.429
40
0.500002
50
89.9998
51
180
0
LINE
8
BLACK
6
CONTINUOUS
10
-1.3127
20
-25.929
11
3.02125
21
-25.929
0
LINE
8
BLACK
6
CONTINUOUS
10
25.2748
20
-126.333
11
25.2748
21
-129.325
0
ARC
8
BLACK
10
25.7748
20
-129.325
40
0.5
50
180
51
270
0
ARC
8
BLACK
10
3.02125
20
-21.429
40
0.499999
50
-0.000458367
51
89.9995
0
LINE
8
BLACK
6
CONTINUOUS
10
20.2748
20
-125.833
11
24.7776
21
-125.833
0
ARC
8
BLACK
10
355.428
20
-126.328
40
0.495845
50
-0.480354
51
90.0196
0
LINE
8
BLACK
6
CONTINUOUS
10
-1.81375
20
-26.429
11
-1.81375
21
-128.829
0
LINE
8
BLACK
6
CONTINUOUS
10
-0.813752
20
3.971
11
372.751
21
3.971
0
ARC
8
BLACK
10
19.2725
20
-129.328
40
0.501251
50
-90.1435
51
-0.143454
0
ARC
8
BLACK
10
373.249
20
-20.429
40
0.499999
50
-90.0006
51
-0.000572959
0
ARC
8
BLACK
10
3.02125
20
-25.429
40
0.499998
50
-90.0003
51
-0.000343776
0
LINE
8
BLACK
6
CONTINUOUS
10
19.7737
20
-126.333
11
19.7737
21
-129.329
0
LINE
8
BLACK
6
CONTINUOUS
10
-0.813752
20
-129.829
11
19.2712
21
-129.829
0
ARC
8
BLACK
10
350.925
20
-126.333
40
0.500002
50
89.9998
51
180
0
LINE
8
BLACK
6
CONTINUOUS
10
-1.3127
20
-20.929
11
3.02125
21
-20.929
0
LINE
8
BLACK
6
CONTINUOUS
10
-1.81375
20
2.971
11
-1.81375
21
-20.429
0
ARC
8
BLACK
10
-1.3127
20
-20.429
40
0.5
50
180
51
270
0
LINE
8
BLACK
6
CONTINUOUS
10
369.171
20
-25.929
11
373.248
21
-25.929
0
LINE
8
BLACK
6
CONTINUOUS
10
373.748
20
-128.829
11
373.748
21
-26.429
0
LINE
8
BLACK
6
CONTINUOUS
10
369.175
20
-20.929
11
373.249
21
-20.929
0
LINE
8
BLACK
6
CONTINUOUS
10
25.7748
20
-129.825
11
349.928
21
-129.829
0
ARC
8
BLACK
10
-0.813752
20
-128.829
40
0.999999
50
180
51
270
0
ARC
8
BLACK
10
372.751
20
-128.832
40
0.996766
50
-90.0141
51
0.18586
0
LINE
8
BLACK
6
CONTINUOUS
10
173.91
20
-30.849
11
173.91
21
-43.849
0
LINE
8
BLACK
6
CONTINUOUS
10
331.548
20
-30.849
11
331.548
21
-43.849
0
ARC
8
BLACK
10
179.173
20
-100.999
40
0.5
50
180
51
270
0
ARC
8
BLACK
10
270.755
20
-81.949
40
0.5
50
-90
51
-0
0
ARC
8
BLACK
10
5.34225
20
-107.049
40
0.5
50
90
51
180
0
LINE
8
BLACK
6
CONTINUOUS
10
197.724
20
-87.999
11
197.724
21
-100.999
0
ARC
8
BLACK
10
36.2985
20
-81.949
40
0.5
50
180
51
270
0
ARC
8
BLACK
10
318.048
20
-3.036
40
0.5
50
90
51
180
0
LINE
8
BLACK
6
CONTINUOUS
10
5.92925
20
-88.999
11
5.92925
21
-102.999
0
LINE
8
BLACK
6
CONTINUOUS
10
274.613
20
-111.731
11
287.613
21
-111.731
0
ARC
8
BLACK
10
318.048
20
-100.999
40
0.5
50
180
51
270
0
LINE
8
BLACK
6
CONTINUOUS
10
135.81
20
-30.849
11
135.81
21
-43.849
0
LINE
8
BLACK
6
CONTINUOUS
10
78.661
20
-3.036
11
78.661
21
-16.036
0
LINE
8
BLACK
6
CONTINUOUS
10
337.097
20
-82.449
11
350.097
21
-82.449
0
ARC
8
BLACK
10
188.698
20
-68.949
40
0.5
50
90
51
180
0
LINE
8
BLACK
6
CONTINUOUS
10
275.573
20
-46.349
11
281.573
21
-46.349
0
LINE
8
BLACK
6
CONTINUOUS
10
136.31
20
-30.349
11
149.31
21
-30.349
0
LINE
8
BLACK
6
CONTINUOUS
10
318.048
20
-49.399
11
331.048
21
-49.399
0
LINE
8
BLACK
6
CONTINUOUS
10
269.161
20
-3.036
11
269.161
21
-16.036
0
LINE
8
BLACK
6
CONTINUOUS
10
269.661
20
-2.536
11
282.661
21
-2.536
0
LINE
8
BLACK
6
CONTINUOUS
10
48.2047
20
-106.549
11
61.2047
21
-106.549
0
ARC
8
BLACK
10
311.998
20
-100.999
40
0.5
50
-90
51
-0
0
ARC
8
BLACK
10
135.023
20
-100.999
40
0.5
50
-90
51
-0
0
ARC
8
BLACK
10
35.011
20
-30.849
40
0.5
50
-0
51
90
0
ARC
8
BLACK
10
130.261
20
-30.849
40
0.5
50
-0
51
90
0
ARC
8
BLACK
10
174.41
20
-30.849
40
0.5
50
90
51
180
0
LINE
8
BLACK
6
CONTINUOUS
10
273.635
20
-30.849
11
273.635
21
-43.849
0
ARC
8
BLACK
10
158.835
20
-3.036
40
0.5
50
-0
51
90
0
LINE
8
BLACK
6
CONTINUOUS
10
231.56
20
-2.536
11
244.56
21
-2.536
0
LINE
8
BLACK
6
CONTINUOUS
10
164.886
20
-49.399
11
177.886
21
-49.399
0
LINE
8
BLACK
6
CONTINUOUS
10
369.147
20
-97.024
11
356.147
21
-97.024
0
LINE
8
BLACK
6
CONTINUOUS
10
183.935
20
-16.536
11
196.935
21
-16.536
0
LINE
8
BLACK
6
CONTINUOUS
10
282.073
20
-31.849
11
282.073
21
-45.849
0
ARC
8
BLACK
10
88.686
20
-49.899
40
0.5
50
90
51
180
0
LINE
8
BLACK
6
CONTINUOUS
10
98.211
20
-44.349
11
111.21
21
-44.349
0
LINE
8
BLACK
6
CONTINUOUS
10
64.8735
20
-87.499
11
77.8735
21
-87.499
0
ARC
8
BLACK
10
54.061
20
-16.036
40
0.5
50
-90
51
-0
0
ARC
8
BLACK
10
337.097
20
-81.949
40
0.5
50
180
51
270
0
ARC
8
BLACK
10
264.899
20
-62.899
40
0.5
50
180
51
270
0
LINE
8
BLACK
6
CONTINUOUS
10
275.573
20
-31.349
11
281.573
21
-31.349
0
ARC
8
BLACK
10
55.3485
20
-68.949
40
0.5
50
90
51
180
0
ARC
8
BLACK
10
206.46
20
-30.849
40
0.5
50
-0
51
90
0
ARC
8
BLACK
10
101.686
20
-49.899
40
0.5
50
-0
51
90
0
ARC
8
BLACK
10
117.26
20
-30.849
40
0.5
50
90
51
180
0
LINE
8
BLACK
6
CONTINUOUS
10
356.147
20
-44.349
11
369.147
21
-44.349
0
ARC
8
BLACK
10
318.048
20
-30.849
40
0.5
50
90
51
180
0
LINE
8
BLACK
6
CONTINUOUS
10
212.511
20
-2.536
11
225.511
21
-2.536
0
LINE
8
BLACK
6
CONTINUOUS
10
221.248
20
-68.949
11
221.248
21
-81.949
0
LINE
8
BLACK
6
CONTINUOUS
10
69.636
20
-63.399
11
82.636
21
-63.399
0
ARC
8
BLACK
10
255.316
20
-69.949
40
0.5
50
-0
51
90
0
ARC
8
BLACK
10
169.648
20
-81.949
40
0.5
50
180
51
270
0
LINE
8
BLACK
6
CONTINUOUS
10
336.597
20
-49.899
11
336.597
21
-62.899
0
ARC
8
BLACK
10
331.048
20
-68.949
40
0.5
50
-0
51
90
0
ARC
8
BLACK
10
58.8235
20
-87.999
40
0.5
50
-0
51
90
0
ARC
8
BLACK
10
30.3052
20
-88.999
40
0.5
50
90
51
180
0
ARC
8
BLACK
10
96.9235
20
-87.999
40
0.5
50
-0
51
90
0
ARC
8
BLACK
10
154.073
20
-87.999
40
0.5
50
-0
51
90
0
LINE
8
BLACK
6
CONTINUOUS
10
336.597
20
-68.949
11
336.597
21
-81.949
0
ARC
8
BLACK
10
139.785
20
-62.899
40
0.5
50
-90
51
-0
0
LINE
8
BLACK
6
CONTINUOUS
10
41.061
20
-30.349
11
54.061
21
-30.349
0
ARC
8
BLACK
10
311.998
20
-16.036
40
0.5
50
-90
51
-0
0
ARC
8
BLACK
10
139.785
20
-3.036
40
0.5
50
-0
51
90
0
LINE
8
BLACK
6
CONTINUOUS
10
318.048
20
-63.399
11
331.048
21
-63.399
0
ARC
8
BLACK
10
61.2047
20
-107.049
40
0.5
50
-0
51
90
0
LINE
8
BLACK
6
CONTINUOUS
10
257.755
20
-68.449
11
270.755
21
-68.449
0
ARC
8
BLACK
10
155.361
20
-43.849
40
0.5
50
180
51
270
0
LINE
8
BLACK
6
CONTINUOUS
10
169.648
20
-82.449
11
182.648
21
-82.449
0
ARC
8
BLACK
10
145.835
20
-16.036
40
0.5
50
180
51
270
0
LINE
8
BLACK
6
CONTINUOUS
10
312.498
20
-87.999
11
312.498
21
-100.999
0
LINE
8
BLACK
6
CONTINUOUS
10
298.498
20
-68.949
11
298.498
21
-81.949
0
ARC
8
BLACK
10
44.536
20
-49.899
40
0.5
50
-0
51
90
0
ARC
8
BLACK
10
173.142
20
-108.049
40
0.5
50
90
51
180
0
ARC
8
BLACK
10
173.123
20
-87.999
40
0.5
50
-0
51
90
0
ARC
8
BLACK
10
22.011
20
-43.849
40
0.5
50
180
51
270
0
LINE
8
BLACK
6
CONTINUOUS
10
251.197
20
-31.849
11
251.197
21
-45.849
0
LINE
8
BLACK
6
CONTINUOUS
10
297.169
20
-26.182
11
305.166
21
-26.182
0
LINE
8
BLACK
6
CONTINUOUS
10
36.8053
20
-88.999
11
36.8053
21
-102.999
0
ARC
8
BLACK
10
331.048
20
-16.036
40
0.5
50
-90
51
-0
0
LINE
8
BLACK
6
CONTINUOUS
10
257.255
20
-68.949
11
257.255
21
-81.949
0
LINE
8
BLACK
6
CONTINUOUS
10
26.7735
20
-120.549
11
39.7735
21
-120.549
0
ARC
8
BLACK
10
150.599
20
-68.949
40
0.5
50
90
51
180
0
ARC
8
BLACK
10
5.34225
20
-120.049
40
0.5
50
180
51
270
0
ARC
8
BLACK
10
356.147
20
-59.424
40
0.5
50
90
51
180
0
ARC
8
BLACK
10
274.613
20
-93.1806
40
0.5
50
90
51
180
0
ARC
8
BLACK
10
211.224
20
-100.999
40
0.5
50
-90
51
-0
0
LINE
8
BLACK
6
CONTINUOUS
10
172.642
20
-108.049
11
172.642
21
-122.049
0
LINE
8
BLACK
6
CONTINUOUS
10
47.7047
20
-107.049
11
47.7047
21
-120.049
0
LINE
8
BLACK
6
CONTINUOUS
10
159.335
20
-3.036
11
159.335
21
-16.036
0
ARC
8
BLACK
10
369.147
20
-30.849
40
0.5
50
-0
51
90
0
LINE
8
BLACK
6
CONTINUOUS
10
98.211
20
-30.349
11
111.21
21
-30.349
0
LINE
8
BLACK
6
CONTINUOUS
10
298.998
20
-2.536
11
311.998
21
-2.536
0
ARC
8
BLACK
10
311.998
20
-68.949
40
0.5
50
-0
51
90
0
ARC
8
BLACK
10
281.573
20
-45.849
40
0.5
50
-90
51
-0
0
LINE
8
BLACK
6
CONTINUOUS
10
202.486
20
-49.899
11
202.486
21
-62.899
0
LINE
8
BLACK
6
CONTINUOUS
10
298.998
20
-44.349
11
311.998
21
-44.349
0
ARC
8
BLACK
10
106.448
20
-81.949
40
0.5
50
-90
51
-0
0
ARC
8
BLACK
10
144.548
20
-68.949
40
0.5
50
-0
51
90
0
ARC
8
BLACK
10
239.798
20
-68.949
40
0.5
50
-0
51
90
0
ARC
8
BLACK
10
217.273
20
-100.999
40
0.5
50
180
51
270
0
LINE
8
BLACK
6
CONTINUOUS
10
321.671
20
-21.182
11
321.671
21
-25.682
0
LINE
8
BLACK
6
CONTINUOUS
10
369.647
20
-97.524
11
369.647
21
-110.524
0
LINE
8
BLACK
6
CONTINUOUS
10
183.148
20
-68.949
11
183.148
21
-81.949
0
ARC
8
BLACK
10
27.8672
20
-87.999
40
0.5
50
-0
51
90
0
ARC
8
BLACK
10
311.998
20
-30.849
40
0.5
50
-0
51
90
0
ARC
8
BLACK
10
241.085
20
-49.899
40
0.5
50
90
51
180
0
ARC
8
BLACK
10
354.147
20
-74.862
40
0.5
50
90
51
180
0
ARC
8
BLACK
10
207.748
20
-68.949
40
0.5
50
90
51
180
0
ARC
8
BLACK
10
330.167
20
-25.682
40
0.499999
50
-90.0001
51
-0.000129184
0
LINE
8
BLACK
6
CONTINUOUS
10
275.073
20
-31.849
11
275.073
21
-45.849
0
ARC
8
BLACK
10
98.211
20
-16.036
40
0.5
50
180
51
270
0
LINE
8
BLACK
6
CONTINUOUS
10
192.96
20
-30.849
11
192.96
21
-43.849
0
ARC
8
BLACK
10
79.1422
20
-108.049
40
0.5
50
-0
51
90
0
LINE
8
BLACK
6
CONTINUOUS
10
145.048
20
-68.949
11
145.048
21
-81.949
0
ARC
8
BLACK
10
41.061
20
-16.036
40
0.5
50
180
51
270
0
ARC
8
BLACK
10
158.835
20
-62.899
40
0.5
50
-90
51
-0
0
LINE
8
BLACK
6
CONTINUOUS
10
368.647
20
-89.086
11
368.647
21
-95.086
0
LINE
8
BLACK
6
CONTINUOUS
10
121.523
20
-87.999
11
121.523
21
-100.999
0
ARC
8
BLACK
10
212.511
20
-16.036
40
0.5
50
180
51
270
0
ARC
8
BLACK
10
350.097
20
-49.899
40
0.5
50
-0
51
90
0
LINE
8
BLACK
6
CONTINUOUS
10
269.063
20
-112.231
11
269.063
21
-125.231
0
ARC
8
BLACK
10
106.448
20
-68.949
40
0.5
50
-0
51
90
0
ARC
8
BLACK
10
298.998
20
-30.849
40
0.5
50
90
51
180
0
LINE
8
BLACK
6
CONTINUOUS
10
250.611
20
-2.536
11
263.611
21
-2.536
0
ARC
8
BLACK
10
354.147
20
-89.086
40
0.5
50
90
51
180
0
LINE
8
BLACK
6
CONTINUOUS
10
240.585
20
-49.899
11
240.585
21
-62.899
0
ARC
8
BLACK
10
220.748
20
-81.949
40
0.5
50
-90
51
-0
0
LINE
8
BLACK
6
CONTINUOUS
10
22.011
20
-30.349
11
35.011
21
-30.349
0
ARC
8
BLACK
10
305.166
20
-25.682
40
0.499999
50
-90.0001
51
-0.000129184
0
ARC
8
BLACK
10
279.192
20
-69.949
40
0.5
50
-0
51
90
0
LINE
8
BLACK
6
CONTINUOUS
10
30.3052
20
-103.499
11
36.3053
21
-103.499
0
ARC
8
BLACK
10
202.986
20
-62.899
40
0.5
50
180
51
270
0
ARC
8
BLACK
10
257.755
20
-68.949
40
0.5
50
90
51
180
0
LINE
8
BLACK
6
CONTINUOUS
10
369.647
20
-3.036
11
369.647
21
-16.036
0
LINE
8
BLACK
6
CONTINUOUS
10
55.3485
20
-68.449
11
68.3485
21
-68.449
0
LINE
8
BLACK
6
CONTINUOUS
10
368.147
20
-50.486
11
354.147
21
-50.486
0
LINE
8
BLACK
6
CONTINUOUS
10
78.661
20
-30.849
11
78.661
21
-43.849
0
LINE
8
BLACK
6
CONTINUOUS
10
79.6422
20
-108.049
11
79.6422
21
-122.049
0
LINE
8
BLACK
6
CONTINUOUS
10
14.3672
20
-87.999
11
14.3672
21
-100.999
0
LINE
8
BLACK
6
CONTINUOUS
10
298.998
20
-16.536
11
311.998
21
-16.536
0
LINE
8
BLACK
6
CONTINUOUS
10
93.4485
20
-82.449
11
106.448
21
-82.449
0
ARC
8
BLACK
10
356.147
20
-3.036
40
0.5
50
90
51
180
0
LINE
8
BLACK
6
CONTINUOUS
10
217.273
20
-87.499
11
230.273
21
-87.499
0
LINE
8
BLACK
6
CONTINUOUS
10
140.285
20
-49.899
11
140.285
21
-62.899
0
ARC
8
BLACK
10
112.498
20
-81.949
40
0.5
50
180
51
270
0
ARC
8
BLACK
10
136.31
20
-43.849
40
0.5
50
180
51
270
0
LINE
8
BLACK
6
CONTINUOUS
10
26.2735
20
-107.049
11
26.2735
21
-120.049
0
LINE
8
BLACK
6
CONTINUOUS
10
350.597
20
-49.899
11
350.597
21
-62.899
0
ARC
8
BLACK
10
125.498
20
-81.949
40
0.5
50
-90
51
-0
0
LINE
8
BLACK
6
CONTINUOUS
10
298.998
20
-82.449
11
311.998
21
-82.449
0
ARC
8
BLACK
10
270.755
20
-68.949
40
0.5
50
-0
51
90
0
LINE
8
BLACK
6
CONTINUOUS
10
59.611
20
-30.849
11
59.611
21
-43.849
0
ARC
8
BLACK
10
98.211
20
-30.849
40
0.5
50
90
51
180
0
LINE
8
BLACK
6
CONTINUOUS
10
145.335
20
-3.036
11
145.335
21
-16.036
0
LINE
8
BLACK
6
CONTINUOUS
10
353.647
20
-50.986
11
353.647
21
-56.986
0
ARC
8
BLACK
10
277.899
20
-62.899
40
0.5
50
-90
51
-0
0
ARC
8
BLACK
10
337.097
20
-68.949
40
0.5
50
90
51
180
0
ARC
8
BLACK
10
145.835
20
-49.899
40
0.5
50
90
51
180
0
LINE
8
BLACK
6
CONTINUOUS
10
298.998
20
-87.499
11
311.998
21
-87.499
0
ARC
8
BLACK
10
368.147
20
-50.986
40
0.5
50
-0
51
90
0
ARC
8
BLACK
10
318.048
20
-68.949
40
0.5
50
90
51
180
0
LINE
8
BLACK
6
CONTINUOUS
10
192.673
20
-87.999
11
192.673
21
-100.999
0
LINE
8
BLACK
6
CONTINUOUS
10
368.147
20
-95.586
11
354.147
21
-95.586
0
LINE
8
BLACK
6
CONTINUOUS
10
188.698
20
-106.549
11
201.698
21
-106.549
0
ARC
8
BLACK
10
318.048
20
-43.849
40
0.5
50
180
51
270
0
ARC
8
BLACK
10
293.663
20
-112.231
40
0.5
50
90
51
180
0
LINE
8
BLACK
6
CONTINUOUS
10
312.498
20
-3.036
11
312.498
21
-16.036
0
ARC
8
BLACK
10
141.073
20
-87.999
40
0.5
50
90
51
180
0
LINE
8
BLACK
6
CONTINUOUS
10
35.511
20
-30.849
11
35.511
21
-43.849
0
LINE
8
BLACK
6
CONTINUOUS
10
271.255
20
-68.949
11
271.255
21
-81.949
0
LINE
8
BLACK
6
CONTINUOUS
10
154.861
20
-30.849
11
154.861
21
-43.849
0
ARC
8
BLACK
10
93.4485
20
-68.949
40
0.5
50
90
51
180
0
LINE
8
BLACK
6
CONTINUOUS
10
264.399
20
-49.899
11
264.399
21
-62.899
0
LINE
8
BLACK
6
CONTINUOUS
10
40.2735
20
-107.049
11
40.2735
21
-120.049
0
LINE
8
BLACK
6
CONTINUOUS
10
317.548
20
-68.949
11
317.548
21
-81.949
0
ARC
8
BLACK
10
155.361
20
-30.849
40
0.5
50
90
51
180
0
ARC
8
BLACK
10
82.636
20
-49.899
40
0.5
50
-0
51
90
0
LINE
8
BLACK
6
CONTINUOUS
10
231.06
20
-3.036
11
231.06
21
-16.036
0
LINE
8
BLACK
6
CONTINUOUS
10
274.613
20
-106.681
11
287.613
21
-106.681
0
ARC
8
BLACK
10
60.111
20
-16.036
40
0.5
50
180
51
270
0
LINE
8
BLACK
6
CONTINUOUS
10
121.235
20
-49.899
11
121.235
21
-62.899
0
LINE
8
BLACK
6
CONTINUOUS
10
140.285
20
-3.036
11
140.285
21
-16.036
0
LINE
8
BLACK
6
CONTINUOUS
10
368.147
20
-57.486
11
354.147
21
-57.486
0
ARC
8
BLACK
10
48.2047
20
-120.049
40
0.5
50
180
51
270
0
ARC
8
BLACK
10
15.961
20
-3.036
40
0.499999
50
-0
51
90
0
ARC
8
BLACK
10
126.785
20
-62.899
40
0.5
50
180
51
270
0
ARC
8
BLACK
10
211.224
20
-87.999
40
0.5
50
-0
51
90
0
ARC
8
BLACK
10
222.035
20
-49.899
40
0.5
50
90
51
180
0
ARC
8
BLACK
10
2.961
20
-16.036
40
0.500001
50
180
51
270
0
LINE
8
BLACK
6
CONTINUOUS
10
122.023
20
-87.499
11
135.023
21
-87.499
0
LINE
8
BLACK
6
CONTINUOUS
10
228.679
20
-107.049
11
228.679
21
-120.049
0
ARC
8
BLACK
10
196.935
20
-62.899
40
0.5
50
-90
51
-0
0
ARC
8
BLACK
10
243.468
20
-100.999
40
0.5
50
180
51
270
0
ARC
8
BLACK
10
60.111
20
-43.849
40
0.5
50
180
51
270
0
LINE
8
BLACK
6
CONTINUOUS
10
350.597
20
-107.049
11
350.597
21
-120.049
0
ARC
8
BLACK
10
115.974
20
-87.999
40
0.5
50
-0
51
90
0
ARC
8
BLACK
10
69.636
20
-62.899
40
0.5
50
180
51
270
0
ARC
8
BLACK
10
322.171
20
-25.682
40
0.5
50
180
51
270
0
ARC
8
BLACK
10
77.8735
20
-87.999
40
0.5
50
-0
51
90
0
ARC
8
BLACK
10
182.648
20
-81.949
40
0.5
50
-90
51
-0
0
LINE
8
BLACK
6
CONTINUOUS
10
88.686
20
-49.399
11
101.686
21
-49.399
0
ARC
8
BLACK
10
347.167
20
-25.672
40
0.5
50
180
51
270
0
ARC
8
BLACK
10
331.048
20
-107.049
40
0.5
50
-0
51
90
0
LINE
8
BLACK
6
CONTINUOUS
10
29.8052
20
-88.999
11
29.8052
21
-102.999
0
LINE
8
BLACK
6
CONTINUOUS
10
231.56
20
-30.349
11
244.56
21
-30.349
0
ARC
8
BLACK
10
222.035
20
-62.899
40
0.5
50
180
51
270
0
ARC
8
BLACK
10
249.316
20
-83.949
40
0.5
50
180
51
270
0
ARC
8
BLACK
10
311.998
20
-62.899
40
0.5
50
-90
51
-0
0
LINE
8
BLACK
6
CONTINUOUS
10
274.113
20
-93.1806
11
274.113
21
-106.181
0
LINE
8
BLACK
6
CONTINUOUS
10
88.186
20
-49.899
11
88.186
21
-62.899
0
LINE
8
BLACK
6
CONTINUOUS
10
7.7235
20
-49.399
11
20.7235
21
-49.399
0
ARC
8
BLACK
10
241.085
20
-62.899
40
0.5
50
180
51
270
0
ARC
8
BLACK
10
255.564
20
-125.231
40
0.5
50
180
51
270
0
ARC
8
BLACK
10
368.147
20
-80.862
40
0.5
50
-90
51
-0
0
LINE
8
BLACK
6
CONTINUOUS
10
83.9235
20
-101.499
11
96.9235
21
-101.499
0
ARC
8
BLACK
10
331.048
20
-49.899
40
0.5
50
-0
51
90
0
ARC
8
BLACK
10
244.56
20
-3.036
40
0.5
50
-0
51
90
0
LINE
8
BLACK
6
CONTINUOUS
10
5.34225
20
-106.549
11
18.3423
21
-106.549
0
LINE
8
BLACK
6
CONTINUOUS
10
178.673
20
-87.999
11
178.673
21
-100.999
0
ARC
8
BLACK
10
354.147
20
-95.086
40
0.5
50
180
51
270
0
ARC
8
BLACK
10
26.7735
20
-107.049
40
0.5
50
90
51
180
0
ARC
8
BLACK
10
132.642
20
-107.049
40
0.5
50
-0
51
90
0
ARC
8
BLACK
10
337.097
20
-49.899
40
0.5
50
90
51
180
0
ARC
8
BLACK
10
74.3985
20
-81.949
40
0.5
50
180
51
270
0
ARC
8
BLACK
10
318.048
20
-16.036
40
0.5
50
180
51
270
0
LINE
8
BLACK
6
CONTINUOUS
10
2.961
20
-30.349
11
15.961
21
-30.349
0
ARC
8
BLACK
10
369.147
20
-3.036
40
0.5
50
-0
51
90
0
LINE
8
BLACK
6
CONTINUOUS
10
355.647
20
-97.524
11
355.647
21
-110.524
0
ARC
8
BLACK
10
173.142
20
-122.049
40
0.5
50
180
51
270
0
LINE
8
BLACK
6
CONTINUOUS
10
222.035
20
-49.399
11
235.035
21
-49.399
0
ARC
8
BLACK
10
368.147
20
-112.962
40
0.5
50
-0
51
90
0
ARC
8
BLACK
10
144.548
20
-81.949
40
0.5
50
-90
51
-0
0
LINE
8
BLACK
6
CONTINUOUS
10
5.34225
20
-120.549
11
18.3423
21
-120.549
0
ARC
8
BLACK
10
187.41
20
-30.849
40
0.5
50
-0
51
90
0
LINE
8
BLACK
6
CONTINUOUS
10
12.9292
20
-88.999
11
12.9292
21
-102.999
0
ARC
8
BLACK
10
6.42925
20
-102.999
40
0.5
50
180
51
270
0
ARC
8
BLACK
10
298.998
20
-16.036
40
0.5
50
180
51
270
0
ARC
8
BLACK
10
274.613
20
-125.231
40
0.5
50
180
51
270
0
ARC
8
BLACK
10
68.3485
20
-81.949
40
0.5
50
-90
51
-0
0
LINE
8
BLACK
6
CONTINUOUS
10
160.123
20
-87.499
11
173.123
21
-87.499
0
LINE
8
BLACK
6
CONTINUOUS
10
183.435
20
-49.899
11
183.435
21
-62.899
0
LINE
8
BLACK
6
CONTINUOUS
10
45.036
20
-49.899
11
45.036
21
-62.899
0
ARC
8
BLACK
10
196.935
20
-16.036
40
0.5
50
-90
51
-0
0
LINE
8
BLACK
6
CONTINUOUS
10
92.9485
20
-68.949
11
92.9485
21
-81.949
0
ARC
8
BLACK
10
192.173
20
-87.999
40
0.5
50
-0
51
90
0
ARC
8
BLACK
10
350.097
20
-30.849
40
0.5
50
-0
51
90
0
LINE
8
BLACK
6
CONTINUOUS
10
36.2985
20
-68.449
11
49.2985
21
-68.449
0
LINE
8
BLACK
6
CONTINUOUS
10
159.335
20
-49.899
11
159.335
21
-62.899
0
ARC
8
BLACK
10
39.7735
20
-120.049
40
0.5
50
-90
51
-0
0
ARC
8
BLACK
10
350.097
20
-62.899
40
0.5
50
-90
51
-0
0
ARC
8
BLACK
10
158.835
20
-49.899
40
0.5
50
-0
51
90
0
ARC
8
BLACK
10
131.548
20
-68.949
40
0.5
50
90
51
180
0
ARC
8
BLACK
10
311.998
20
-87.999
40
0.5
50
-0
51
90
0
ARC
8
BLACK
10
126.785
20
-16.036
40
0.5
50
180
51
270
0
LINE
8
BLACK
6
CONTINUOUS
10
164.886
20
-16.536
11
177.886
21
-16.536
0
LINE
8
BLACK
6
CONTINUOUS
10
258.197
20
-31.849
11
258.197
21
-45.849
0
LINE
8
BLACK
6
CONTINUOUS
10
368.647
20
-112.962
11
368.647
21
-118.962
0
LINE
8
BLACK
6
CONTINUOUS
10
312.498
20
-30.849
11
312.498
21
-43.849
0
LINE
8
BLACK
6
CONTINUOUS
10
337.097
20
-101.499
11
350.097
21
-101.499
0
ARC
8
BLACK
10
331.048
20
-3.036
40
0.5
50
-0
51
90
0
LINE
8
BLACK
6
CONTINUOUS
10
211.724
20
-87.999
11
211.724
21
-100.999
0
LINE
8
BLACK
6
CONTINUOUS
10
307.163
20
-112.231
11
307.163
21
-125.231
0
LINE
8
BLACK
6
CONTINUOUS
10
26.7735
20
-106.549
11
39.7735
21
-106.549
0
LINE
8
BLACK
6
CONTINUOUS
10
136.31
20
-44.349
11
149.31
21
-44.349
0
LINE
8
BLACK
6
CONTINUOUS
10
45.3235
20
-87.999
11
45.3235
21
-100.999
0
LINE
8
BLACK
6
CONTINUOUS
10
216.486
20
-49.899
11
216.486
21
-62.899
0
LINE
8
BLACK
6
CONTINUOUS
10
256.967
20
-87.999
11
256.967
21
-100.999
0
LINE
8
BLACK
6
CONTINUOUS
10
336.597
20
-30.849
11
336.597
21
-43.849
0
LINE
8
BLACK
6
CONTINUOUS
10
337.097
20
-16.536
11
350.097
21
-16.536
0
LINE
8
BLACK
6
CONTINUOUS
10
317.548
20
-30.849
11
317.548
21
-43.849
0
LINE
8
BLACK
6
CONTINUOUS
10
336.597
20
-87.999
11
336.597
21
-100.999
0
ARC
8
BLACK
10
132.642
20
-120.049
40
0.5
50
-90
51
-0
0
LINE
8
BLACK
6
CONTINUOUS
10
288.113
20
-93.1806
11
288.113
21
-106.181
0
ARC
8
BLACK
10
298.998
20
-62.899
40
0.5
50
180
51
270
0
ARC
8
BLACK
10
318.048
20
-107.049
40
0.5
50
90
51
180
0
LINE
8
BLACK
6
CONTINUOUS
10
10.1047
20
-82.449
11
23.1047
21
-82.449
0
LINE
8
BLACK
6
CONTINUOUS
10
251.697
20
-46.349
11
257.697
21
-46.349
0
ARC
8
BLACK
10
183.935
20
-3.036
40
0.5
50
90
51
180
0
LINE
8
BLACK
6
CONTINUOUS
10
150.599
20
-82.449
11
163.599
21
-82.449
0
LINE
8
BLACK
6
CONTINUOUS
10
255.064
20
-112.231
11
255.064
21
-125.231
0
LINE
8
BLACK
6
CONTINUOUS
10
116.76
20
-30.849
11
116.76
21
-43.849
0
LINE
8
BLACK
6
CONTINUOUS
10
347.167
20
-26.172
11
355.166
21
-26.172
0
ARC
8
BLACK
10
337.097
20
-62.899
40
0.5
50
180
51
270
0
LINE
8
BLACK
6
CONTINUOUS
10
169.148
20
-68.949
11
169.148
21
-81.949
0
ARC
8
BLACK
10
251.697
20
-45.849
40
0.5
50
180
51
270
0
LINE
8
BLACK
6
CONTINUOUS
10
45.8235
20
-87.499
11
58.8235
21
-87.499
0
ARC
8
BLACK
10
257.697
20
-31.849
40
0.5
50
-0
51
90
0
LINE
8
BLACK
6
CONTINUOUS
10
173.142
20
-122.549
11
179.142
21
-122.549
0
LINE
8
BLACK
6
CONTINUOUS
10
207.248
20
-107.049
11
207.248
21
-120.049
0
LINE
8
BLACK
6
CONTINUOUS
10
274.113
20
-112.231
11
274.113
21
-125.231
0
LINE
8
BLACK
6
CONTINUOUS
10
353.647
20
-89.086
11
353.647
21
-95.086
0
ARC
8
BLACK
10
50.586
20
-49.899
40
0.5
50
90
51
180
0
ARC
8
BLACK
10
45.8235
20
-100.999
40
0.5
50
180
51
270
0
ARC
8
BLACK
10
356.147
20
-30.849
40
0.5
50
90
51
180
0
ARC
8
BLACK
10
36.3053
20
-88.999
40
0.5
50
-0
51
90
0
LINE
8
BLACK
6
CONTINUOUS
10
183.935
20
-49.399
11
196.935
21
-49.399
0
LINE
8
BLACK
6
CONTINUOUS
10
79.161
20
-16.536
11
92.161
21
-16.536
0
LINE
8
BLACK
6
CONTINUOUS
10
331.548
20
-87.999
11
331.548
21
-100.999
0
ARC
8
BLACK
10
98.211
20
-43.849
40
0.5
50
180
51
270
0
LINE
8
BLACK
6
CONTINUOUS
10
243.468
20
-87.499
11
256.467
21
-87.499
0
ARC
8
BLACK
10
54.061
20
-3.036
40
0.5
50
-0
51
90
0
ARC
8
BLACK
10
7.7235
20
-62.899
40
0.5
50
180
51
270
0
ARC
8
BLACK
10
98.211
20
-3.036
40
0.5
50
90
51
180
0
ARC
8
BLACK
10
119.642
20
-120.049
40
0.5
50
180
51
270
0
ARC
8
BLACK
10
93.4485
20
-81.949
40
0.5
50
180
51
270
0
ARC
8
BLACK
10
79.161
20
-3.036
40
0.5
50
90
51
180
0
LINE
8
BLACK
6
CONTINUOUS
10
183.935
20
-63.399
11
196.935
21
-63.399
0
ARC
8
BLACK
10
298.998
20
-43.849
40
0.5
50
180
51
270
0
ARC
8
BLACK
10
179.142
20
-108.049
40
0.5
50
-0
51
90
0
LINE
8
BLACK
6
CONTINUOUS
10
260.135
20
-44.349
11
273.135
21
-44.349
0
ARC
8
BLACK
10
198.224
20
-87.999
40
0.5
50
90
51
180
0
LINE
8
BLACK
6
CONTINUOUS
10
273.192
20
-84.449
11
279.192
21
-84.449
0
LINE
8
BLACK
6
CONTINUOUS
10
318.048
20
-87.499
11
331.048
21
-87.499
0
ARC
8
BLACK
10
26.7735
20
-120.049
40
0.5
50
180
51
270
0
LINE
8
BLACK
6
CONTINUOUS
10
126.785
20
-16.536
11
139.785
21
-16.536
0
LINE
8
BLACK
6
CONTINUOUS
10
102.974
20
-101.499
11
115.974
21
-101.499
0
ARC
8
BLACK
10
331.048
20
-30.849
40
0.5
50
-0
51
90
0
LINE
8
BLACK
6
CONTINUOUS
10
178.386
20
-3.036
11
178.386
21
-16.036
0
LINE
8
BLACK
6
CONTINUOUS
10
73.1422
20
-107.549
11
79.1422
21
-107.549
0
LINE
8
BLACK
6
CONTINUOUS
10
31.536
20
-49.399
11
44.536
21
-49.399
0
LINE
8
BLACK
6
CONTINUOUS
10
40.561
20
-3.036
11
40.561
21
-16.036
0
LINE
8
BLACK
6
CONTINUOUS
10
254.585
20
-49.899
11
254.585
21
-62.899
0
LINE
8
BLACK
6
CONTINUOUS
10
73.8985
20
-68.949
11
73.8985
21
-81.949
0
LINE
8
BLACK
6
CONTINUOUS
10
72.6422
20
-108.049
11
72.6422
21
-122.049
0
LINE
8
BLACK
6
CONTINUOUS
10
264.899
20
-63.399
11
277.899
21
-63.399
0
LINE
8
BLACK
6
CONTINUOUS
10
2.961
20
-16.536
11
15.961
21
-16.536
0
LINE
8
BLACK
6
CONTINUOUS
10
257.755
20
-82.449
11
270.755
21
-82.449
0
ARC
8
BLACK
10
206.46
20
-43.849
40
0.5
50
-90
51
-0
0
ARC
8
BLACK
10
201.698
20
-107.049
40
0.5
50
-0
51
90
0
ARC
8
BLACK
10
337.097
20
-3.036
40
0.5
50
90
51
180
0
ARC
8
BLACK
10
73.111
20
-30.849
40
0.5
50
-0
51
90
0
ARC
8
BLACK
10
39.7735
20
-107.049
40
0.5
50
-0
51
90
0
ARC
8
BLACK
10
230.273
20
-100.999
40
0.5
50
-90
51
-0
0
LINE
8
BLACK
6
CONTINUOUS
10
16.461
20
-3.036
11
16.461
21
-16.036
0
LINE
8
BLACK
6
CONTINUOUS
10
188.698
20
-82.449
11
201.698
21
-82.449
0
ARC
8
BLACK
10
183.935
20
-62.899
40
0.5
50
180
51
270
0
ARC
8
BLACK
10
305.166
20
-21.182
40
0.499999
50
-0.000114592
51
89.9999
0
LINE
8
BLACK
6
CONTINUOUS
10
64.8735
20
-101.499
11
77.8735
21
-101.499
0
LINE
8
BLACK
6
CONTINUOUS
10
230.773
20
-87.999
11
230.773
21
-100.999
0
ARC
8
BLACK
10
14.8672
20
-87.999
40
0.5
50
90
51
180
0
ARC
8
BLACK
10
141.073
20
-100.999
40
0.5
50
180
51
270
0
ARC
8
BLACK
10
281.573
20
-31.849
40
0.5
50
-0
51
90
0
ARC
8
BLACK
10
298.998
20
-100.999
40
0.5
50
180
51
270
0
ARC
8
BLACK
10
115.974
20
-100.999
40
0.5
50
-90
51
-0
0
ARC
8
BLACK
10
169.648
20
-68.949
40
0.5
50
90
51
180
0
LINE
8
BLACK
6
CONTINUOUS
10
279.692
20
-69.949
11
279.692
21
-83.949
0
ARC
8
BLACK
10
331.048
20
-120.049
40
0.5
50
-90
51
-0
0
LINE
8
BLACK
6
CONTINUOUS
10
235.535
20
-49.899
11
235.535
21
-62.899
0
LINE
8
BLACK
6
CONTINUOUS
10
193.46
20
-30.349
11
206.46
21
-30.349
0
LINE
8
BLACK
6
CONTINUOUS
10
245.06
20
-30.849
11
245.06
21
-43.849
0
ARC
8
BLACK
10
369.147
20
-72.424
40
0.5
50
-90
51
-0
0
ARC
8
BLACK
10
179.173
20
-87.999
40
0.5
50
90
51
180
0
ARC
8
BLACK
10
193.46
20
-30.849
40
0.5
50
90
51
180
0
ARC
8
BLACK
10
231.56
20
-16.036
40
0.5
50
180
51
270
0
ARC
8
BLACK
10
174.41
20
-43.849
40
0.5
50
180
51
270
0
ARC
8
BLACK
10
18.3423
20
-107.049
40
0.5
50
-0
51
90
0
LINE
8
BLACK
6
CONTINUOUS
10
355.647
20
-30.849
11
355.647
21
-43.849
0
ARC
8
BLACK
10
122.023
20
-87.999
40
0.5
50
90
51
180
0
ARC
8
BLACK
10
337.097
20
-100.999
40
0.5
50
180
51
270
0
LINE
8
BLACK
6
CONTINUOUS
10
160.123
20
-101.499
11
173.123
21
-101.499
0
ARC
8
BLACK
10
311.998
20
-43.849
40
0.5
50
-90
51
-0
0
LINE
8
BLACK
6
CONTINUOUS
10
264.111
20
-3.036
11
264.111
21
-16.036
0
ARC
8
BLACK
10
101.686
20
-62.899
40
0.5
50
-90
51
-0
0
ARC
8
BLACK
10
31.536
20
-62.899
40
0.5
50
180
51
270
0
LINE
8
BLACK
6
CONTINUOUS
10
188.698
20
-68.449
11
201.698
21
-68.449
0
ARC
8
BLACK
10
130.261
20
-43.849
40
0.5
50
-90
51
-0
0
ARC
8
BLACK
10
145.835
20
-62.899
40
0.5
50
180
51
270
0
LINE
8
BLACK
6
CONTINUOUS
10
173.623
20
-87.999
11
173.623
21
-100.999
0
LINE
8
BLACK
6
CONTINUOUS
10
337.097
20
-106.549
11
350.097
21
-106.549
0
LINE
8
BLACK
6
CONTINUOUS
10
298.998
20
-63.399
11
311.998
21
-63.399
0
LINE
8
BLACK
6
CONTINUOUS
10
107.736
20
-63.399
11
120.735
21
-63.399
0
ARC
8
BLACK
10
82.636
20
-62.899
40
0.5
50
-90
51
-0
0
LINE
8
BLACK
6
CONTINUOUS
10
149.81
20
-30.849
11
149.81
21
-43.849
0
LINE
8
BLACK
6
CONTINUOUS
10
169.648
20
-68.449
11
182.648
21
-68.449
0
ARC
8
BLACK
10
126.785
20
-3.036
40
0.5
50
90
51
180
0
LINE
8
BLACK
6
CONTINUOUS
10
346.667
20
-21.172
11
346.667
21
-25.672
0
LINE
8
BLACK
6
CONTINUOUS
10
368.647
20
-50.986
11
368.647
21
-56.986
0
LINE
8
BLACK
6
CONTINUOUS
10
207.748
20
-68.449
11
220.748
21
-68.449
0
ARC
8
BLACK
10
30.3052
20
-102.999
40
0.5
50
180
51
270
0
ARC
8
BLACK
10
79.161
20
-30.849
40
0.5
50
90
51
180
0
ARC
8
BLACK
10
50.586
20
-62.899
40
0.5
50
180
51
270
0
LINE
8
BLACK
6
CONTINUOUS
10
337.097
20
-30.349
11
350.097
21
-30.349
0
LINE
8
BLACK
6
CONTINUOUS
10
168.861
20
-30.849
11
168.861
21
-43.849
0
ARC
8
BLACK
10
60.111
20
-3.036
40
0.5
50
90
51
180
0
ARC
8
BLACK
10
311.998
20
-3.036
40
0.5
50
-0
51
90
0
ARC
8
BLACK
10
337.097
20
-43.849
40
0.5
50
180
51
270
0
LINE
8
BLACK
6
CONTINUOUS
10
337.097
20
-68.449
11
350.097
21
-68.449
0
ARC
8
BLACK
10
92.161
20
-30.849
40
0.5
50
-0
51
90
0
LINE
8
BLACK
6
CONTINUOUS
10
174.41
20
-44.349
11
187.41
21
-44.349
0
LINE
8
BLACK
6
CONTINUOUS
10
350.597
20
-30.849
11
350.597
21
-43.849
0
ARC
8
BLACK
10
331.048
20
-62.899
40
0.5
50
-90
51
-0
0
LINE
8
BLACK
6
CONTINUOUS
10
318.048
20
-106.549
11
331.048
21
-106.549
0
ARC
8
BLACK
10
27.8672
20
-100.999
40
0.5
50
-90
51
-0
0
ARC
8
BLACK
10
318.048
20
-81.949
40
0.5
50
180
51
270
0
LINE
8
BLACK
6
CONTINUOUS
10
337.097
20
-49.399
11
350.097
21
-49.399
0
ARC
8
BLACK
10
350.097
20
-100.999
40
0.5
50
-90
51
-0
0
LINE
8
BLACK
6
CONTINUOUS
10
255.816
20
-69.949
11
255.816
21
-83.949
0
LINE
8
BLACK
6
CONTINUOUS
10
74.3985
20
-82.449
11
87.3985
21
-82.449
0
LINE
8
BLACK
6
CONTINUOUS
10
78.3735
20
-87.999
11
78.3735
21
-100.999
0
ARC
8
BLACK
10
282.661
20
-3.036
40
0.5
50
-0
51
90
0
LINE
8
BLACK
6
CONTINUOUS
10
60.111
20
-30.349
11
73.111
21
-30.349
0
LINE
8
BLACK
6
CONTINUOUS
10
212.511
20
-30.349
11
225.511
21
-30.349
0
LINE
8
BLACK
6
CONTINUOUS
10
28.3672
20
-87.999
11
28.3672
21
-100.999
0
ARC
8
BLACK
10
120.735
20
-49.899
40
0.5
50
-0
51
90
0
LINE
8
BLACK
6
CONTINUOUS
10
318.048
20
-30.349
11
331.048
21
-30.349
0
LINE
8
BLACK
6
CONTINUOUS
10
356.147
20
-16.536
11
369.147
21
-16.536
0
ARC
8
BLACK
10
41.061
20
-43.849
40
0.5
50
180
51
270
0
LINE
8
BLACK
6
CONTINUOUS
10
6.42925
20
-103.499
11
12.4292
21
-103.499
0
ARC
8
BLACK
10
242.179
20
-120.049
40
0.5
50
-90
51
-0
0
ARC
8
BLACK
10
350.097
20
-3.036
40
0.5
50
-0
51
90
0
LINE
8
BLACK
6
CONTINUOUS
10
248.816
20
-69.949
11
248.816
21
-83.949
0
ARC
8
BLACK
10
244.56
20
-30.849
40
0.5
50
-0
51
90
0
ARC
8
BLACK
10
354.147
20
-50.986
40
0.5
50
90
51
180
0
ARC
8
BLACK
10
111.21
20
-3.036
40
0.5
50
-0
51
90
0
LINE
8
BLACK
6
CONTINUOUS
10
350.597
20
-68.949
11
350.597
21
-81.949
0
ARC
8
BLACK
10
311.998
20
-49.899
40
0.5
50
-0
51
90
0
LINE
8
BLACK
6
CONTINUOUS
10
131.548
20
-82.449
11
144.548
21
-82.449
0
ARC
8
BLACK
10
7.7235
20
-49.899
40
0.5
50
90
51
180
0
LINE
8
BLACK
6
CONTINUOUS
10
188.198
20
-68.949
11
188.198
21
-81.949
0
LINE
8
BLACK
6
CONTINUOUS
10
83.9235
20
-87.499
11
96.9235
21
-87.499
0
ARC
8
BLACK
10
10.1047
20
-68.949
40
0.5
50
90
51
180
0
LINE
8
BLACK
6
CONTINUOUS
10
22.011
20
-44.349
11
35.011
21
-44.349
0
ARC
8
BLACK
10
369.147
20
-97.524
40
0.5
50
-0
51
90
0
ARC
8
BLACK
10
122.023
20
-100.999
40
0.5
50
180
51
270
0
ARC
8
BLACK
10
274.613
20
-112.231
40
0.5
50
90
51
180
0
ARC
8
BLACK
10
92.161
20
-16.036
40
0.5
50
-90
51
-0
0
LINE
8
BLACK
6
CONTINUOUS
10
212.011
20
-3.036
11
212.011
21
-16.036
0
LINE
8
BLACK
6
CONTINUOUS
10
164.386
20
-3.036
11
164.386
21
-16.036
0
ARC
8
BLACK
10
83.9235
20
-100.999
40
0.5
50
180
51
270
0
LINE
8
BLACK
6
CONTINUOUS
10
242.968
20
-87.999
11
242.968
21
-100.999
0
ARC
8
BLACK
10
263.611
20
-3.036
40
0.5
50
-0
51
90
0
ARC
8
BLACK
10
215.986
20
-62.899
40
0.5
50
-90
51
-0
0
ARC
8
BLACK
10
318.048
20
-87.999
40
0.5
50
90
51
180
0
LINE
8
BLACK
6
CONTINUOUS
10
368.147
20
-119.462
11
354.147
21
-119.462
0
LINE
8
BLACK
6
CONTINUOUS
10
202.198
20
-107.049
11
202.198
21
-120.049
0
LINE
8
BLACK
6
CONTINUOUS
10
317.548
20
-3.036
11
317.548
21
-16.036
0
LINE
8
BLACK
6
CONTINUOUS
10
126.285
20
-3.036
11
126.285
21
-16.036
0
ARC
8
BLACK
10
220.748
20
-107.049
40
0.5
50
-0
51
90
0
ARC
8
BLACK
10
354.147
20
-118.962
40
0.5
50
180
51
270
0
ARC
8
BLACK
10
15.961
20
-43.849
40
0.5
50
-90
51
-0
0
LINE
8
BLACK
6
CONTINUOUS
10
64.3735
20
-87.999
11
64.3735
21
-100.999
0
LINE
8
BLACK
6
CONTINUOUS
10
283.161
20
-3.036
11
283.161
21
-16.036
0
LINE
8
BLACK
6
CONTINUOUS
10
183.435
20
-3.036
11
183.435
21
-16.036
0
ARC
8
BLACK
10
6.42925
20
-88.999
40
0.5
50
90
51
180
0
LINE
8
BLACK
6
CONTINUOUS
10
119.642
20
-106.549
11
132.642
21
-106.549
0
ARC
8
BLACK
10
249.316
20
-69.949
40
0.5
50
90
51
180
0
LINE
8
BLACK
6
CONTINUOUS
10
337.097
20
-44.349
11
350.097
21
-44.349
0
ARC
8
BLACK
10
23.1047
20
-81.949
40
0.5
50
-90
51
-0
0
LINE
8
BLACK
6
CONTINUOUS
10
226.011
20
-3.036
11
226.011
21
-16.036
0
ARC
8
BLACK
10
36.3053
20
-102.999
40
0.5
50
-90
51
-0
0
ARC
8
BLACK
10
49.2985
20
-81.949
40
0.5
50
-90
51
-0
0
ARC
8
BLACK
10
212.511
20
-30.849
40
0.5
50
90
51
180
0
ARC
8
BLACK
10
347.167
20
-21.172
40
0.5
50
89.9999
51
180
0
ARC
8
BLACK
10
160.123
20
-87.999
40
0.5
50
90
51
180
0
ARC
8
BLACK
10
350.097
20
-120.049
40
0.5
50
-90
51
-0
0
LINE
8
BLACK
6
CONTINUOUS
10
50.586
20
-63.399
11
63.586
21
-63.399
0
ARC
8
BLACK
10
49.2985
20
-68.949
40
0.5
50
-0
51
90
0
ARC
8
BLACK
10
150.599
20
-81.949
40
0.5
50
180
51
270
0
ARC
8
BLACK
10
368.147
20
-118.962
40
0.5
50
-90
51
-0
0
ARC
8
BLACK
10
226.798
20
-81.949
40
0.5
50
180
51
270
0
LINE
8
BLACK
6
CONTINUOUS
10
317.548
20
-107.049
11
317.548
21
-120.049
0
ARC
8
BLACK
10
274.613
20
-106.181
40
0.5
50
180
51
270
0
ARC
8
BLACK
10
198.224
20
-100.999
40
0.5
50
180
51
270
0
ARC
8
BLACK
10
149.31
20
-30.849
40
0.5
50
-0
51
90
0
ARC
8
BLACK
10
226.798
20
-68.949
40
0.5
50
90
51
180
0
ARC
8
BLACK
10
88.686
20
-62.899
40
0.5
50
180
51
270
0
LINE
8
BLACK
6
CONTINUOUS
10
298.498
20
-3.036
11
298.498
21
-16.036
0
ARC
8
BLACK
10
183.935
20
-16.036
40
0.5
50
180
51
270
0
LINE
8
BLACK
6
CONTINUOUS
10
272.692
20
-69.949
11
272.692
21
-83.949
0
LINE
8
BLACK
6
CONTINUOUS
10
350.597
20
-87.999
11
350.597
21
-100.999
0
ARC
8
BLACK
10
298.998
20
-3.036
40
0.5
50
90
51
180
0
ARC
8
BLACK
10
355.166
20
-25.672
40
0.499999
50
-90.0001
51
-0.000129184
0
LINE
8
BLACK
6
CONTINUOUS
10
97.4235
20
-87.999
11
97.4235
21
-100.999
0
LINE
8
BLACK
6
CONTINUOUS
10
216.773
20
-87.999
11
216.773
21
-100.999
0
LINE
8
BLACK
6
CONTINUOUS
10
73.611
20
-3.036
11
73.611
21
-16.036
0
LINE
8
BLACK
6
CONTINUOUS
10
368.147
20
-81.362
11
354.147
21
-81.362
0
LINE
8
BLACK
6
CONTINUOUS
10
154.573
20
-87.999
11
154.573
21
-100.999
0
LINE
8
BLACK
6
CONTINUOUS
10
69.136
20
-49.899
11
69.136
21
-62.899
0
LINE
8
BLACK
6
CONTINUOUS
10
97.711
20
-3.036
11
97.711
21
-16.036
0
LINE
8
BLACK
6
CONTINUOUS
10
293.163
20
-112.231
11
293.163
21
-125.231
0
ARC
8
BLACK
10
10.1047
20
-81.949
40
0.5
50
180
51
270
0
LINE
8
BLACK
6
CONTINUOUS
10
318.048
20
-16.536
11
331.048
21
-16.536
0
ARC
8
BLACK
10
212.511
20
-3.036
40
0.5
50
90
51
180
0
ARC
8
BLACK
10
20.7235
20
-62.899
40
0.5
50
-90
51
-0
0
LINE
8
BLACK
6
CONTINUOUS
10
21.511
20
-30.849
11
21.511
21
-43.849
0
ARC
8
BLACK
10
369.147
20
-43.849
40
0.5
50
-90
51
-0
0
ARC
8
BLACK
10
254.085
20
-49.899
40
0.499999
50
-0
51
90
0
LINE
8
BLACK
6
CONTINUOUS
10
337.097
20
-63.399
11
350.097
21
-63.399
0
ARC
8
BLACK
10
58.8235
20
-100.999
40
0.5
50
-90
51
-0
0
LINE
8
BLACK
6
CONTINUOUS
10
107.236
20
-49.899
11
107.236
21
-62.899
0
ARC
8
BLACK
10
356.147
20
-72.424
40
0.5
50
180
51
270
0
LINE
8
BLACK
6
CONTINUOUS
10
125.998
20
-68.949
11
125.998
21
-81.949
0
LINE
8
BLACK
6
CONTINUOUS
10
173.142
20
-107.549
11
179.142
21
-107.549
0
ARC
8
BLACK
10
229.179
20
-120.049
40
0.5
50
180
51
270
0
LINE
8
BLACK
6
CONTINUOUS
10
164.386
20
-49.899
11
164.386
21
-62.899
0
ARC
8
BLACK
10
318.048
20
-120.049
40
0.5
50
180
51
270
0
LINE
8
BLACK
6
CONTINUOUS
10
14.8672
20
-87.499
11
27.8672
21
-87.499
0
ARC
8
BLACK
10
264.899
20
-49.899
40
0.5
50
90
51
180
0
ARC
8
BLACK
10
225.511
20
-43.849
40
0.5
50
-90
51
-0
0
LINE
8
BLACK
6
CONTINUOUS
10
131.048
20
-68.949
11
131.048
21
-81.949
0
LINE
8
BLACK
6
CONTINUOUS
10
135.523
20
-87.999
11
135.523
21
-100.999
0
LINE
8
BLACK
6
CONTINUOUS
10
59.611
20
-3.036
11
59.611
21
-16.036
0
ARC
8
BLACK
10
139.785
20
-49.899
40
0.5
50
-0
51
90
0
LINE
8
BLACK
6
CONTINUOUS
10
79.161
20
-44.349
11
92.161
21
-44.349
0
ARC
8
BLACK
10
225.511
20
-30.849
40
0.5
50
-0
51
90
0
ARC
8
BLACK
10
350.097
20
-68.949
40
0.5
50
-0
51
90
0
ARC
8
BLACK
10
257.697
20
-45.849
40
0.5
50
-90
51
-0
0
ARC
8
BLACK
10
196.935
20
-3.036
40
0.5
50
-0
51
90
0
LINE
8
BLACK
6
CONTINUOUS
10
368.147
20
-74.362
11
354.147
21
-74.362
0
LINE
8
BLACK
6
CONTINUOUS
10
18.8423
20
-107.049
11
18.8423
21
-120.049
0
ARC
8
BLACK
10
235.035
20
-49.899
40
0.5
50
-0
51
90
0
ARC
8
BLACK
10
356.147
20
-97.524
40
0.5
50
90
51
180
0
ARC
8
BLACK
10
297.169
20
-21.182
40
0.5
50
89.9999
51
180
0
ARC
8
BLACK
10
260.135
20
-43.849
40
0.5
50
180
51
270
0
ARC
8
BLACK
10
277.899
20
-49.899
40
0.5
50
-0
51
90
0
LINE
8
BLACK
6
CONTINUOUS
10
337.097
20
-87.499
11
350.097
21
-87.499
0
ARC
8
BLACK
10
254.085
20
-62.899
40
0.5
50
-90
51
-0
0
LINE
8
BLACK
6
CONTINUOUS
10
274.613
20
-92.6806
11
287.613
21
-92.6806
0
ARC
8
BLACK
10
229.179
20
-107.049
40
0.5
50
90
51
180
0
ARC
8
BLACK
10
48.2047
20
-107.049
40
0.5
50
90
51
180
0
LINE
8
BLACK
6
CONTINUOUS
10
133.142
20
-107.049
11
133.142
21
-120.049
0
LINE
8
BLACK
6
CONTINUOUS
10
60.111
20
-44.349
11
73.111
21
-44.349
0
LINE
8
BLACK
6
CONTINUOUS
10
318.048
20
-120.549
11
331.048
21
-120.549
0
ARC
8
BLACK
10
149.31
20
-43.849
40
0.5
50
-90
51
-0
0
ARC
8
BLACK
10
92.161
20
-43.849
40
0.5
50
-90
51
-0
0
ARC
8
BLACK
10
268.563
20
-125.231
40
0.5
50
-90
51
-0
0
LINE
8
BLACK
6
CONTINUOUS
10
318.048
20
-101.499
11
331.048
21
-101.499
0
LINE
8
BLACK
6
CONTINUOUS
10
93.4485
20
-68.449
11
106.448
21
-68.449
0
LINE
8
BLACK
6
CONTINUOUS
10
353.647
20
-74.862
11
353.647
21
-80.862
0
ARC
8
BLACK
10
145.835
20
-3.036
40
0.5
50
90
51
180
0
LINE
8
BLACK
6
CONTINUOUS
10
150.099
20
-68.949
11
150.099
21
-81.949
0
LINE
8
BLACK
6
CONTINUOUS
10
322.171
20
-26.182
11
330.167
21
-26.182
0
ARC
8
BLACK
10
163.599
20
-68.949
40
0.5
50
-0
51
90
0
ARC
8
BLACK
10
201.698
20
-120.049
40
0.5
50
-90
51
-0
0
ARC
8
BLACK
10
163.599
20
-81.949
40
0.5
50
-90
51
-0
0
LINE
8
BLACK
6
CONTINUOUS
10
331.548
20
-3.036
11
331.548
21
-16.036
0
LINE
8
BLACK
6
CONTINUOUS
10
369.147
20
-72.924
11
356.147
21
-72.924
0
ARC
8
BLACK
10
298.998
20
-68.949
40
0.5
50
90
51
180
0
ARC
8
BLACK
10
230.273
20
-87.999
40
0.5
50
-0
51
90
0
LINE
8
BLACK
6
CONTINUOUS
10
145.835
20
-16.536
11
158.835
21
-16.536
0
ARC
8
BLACK
10
268.563
20
-112.231
40
0.5
50
-0
51
90
0
LINE
8
BLACK
6
CONTINUOUS
10
259.635
20
-30.849
11
259.635
21
-43.849
0
ARC
8
BLACK
10
12.4292
20
-88.999
40
0.5
50
-0
51
90
0
LINE
8
BLACK
6
CONTINUOUS
10
69.636
20
-49.399
11
82.636
21
-49.399
0
ARC
8
BLACK
10
54.061
20
-30.849
40
0.5
50
-0
51
90
0
LINE
8
BLACK
6
CONTINUOUS
10
318.048
20
-2.536
11
331.048
21
-2.536
0
LINE
8
BLACK
6
CONTINUOUS
10
140.573
20
-87.999
11
140.573
21
-100.999
0
LINE
8
BLACK
6
CONTINUOUS
10
274.613
20
-125.731
11
287.613
21
-125.731
0
ARC
8
BLACK
10
164.886
20
-3.036
40
0.5
50
90
51
180
0
ARC
8
BLACK
10
96.9235
20
-100.999
40
0.5
50
-90
51
-0
0
ARC
8
BLACK
10
131.548
20
-81.949
40
0.5
50
180
51
270
0
ARC
8
BLACK
10
177.886
20
-16.036
40
0.5
50
-90
51
-0
0
LINE
8
BLACK
6
CONTINUOUS
10
337.097
20
-120.549
11
350.097
21
-120.549
0
LINE
8
BLACK
6
CONTINUOUS
10
131.548
20
-68.449
11
144.548
21
-68.449
0
ARC
8
BLACK
10
73.111
20
-43.849
40
0.5
50
-90
51
-0
0
LINE
8
BLACK
6
CONTINUOUS
10
243.468
20
-101.499
11
256.467
21
-101.499
0
LINE
8
BLACK
6
CONTINUOUS
10
178.386
20
-49.899
11
178.386
21
-62.899
0
LINE
8
BLACK
6
CONTINUOUS
10
179.173
20
-101.499
11
192.173
21
-101.499
0
LINE
8
BLACK
6
CONTINUOUS
10
317.548
20
-87.999
11
317.548
21
-100.999
0
ARC
8
BLACK
10
73.1422
20
-108.049
40
0.5
50
90
51
180
0
ARC
8
BLACK
10
231.56
20
-30.849
40
0.5
50
90
51
180
0
ARC
8
BLACK
10
322.171
20
-21.182
40
0.5
50
89.9999
51
180
0
LINE
8
BLACK
6
CONTINUOUS
10
355.647
20
-3.036
11
355.647
21
-16.036
0
LINE
8
BLACK
6
CONTINUOUS
10
36.2985
20
-82.449
11
49.2985
21
-82.449
0
ARC
8
BLACK
10
22.011
20
-30.849
40
0.5
50
90
51
180
0
LINE
8
BLACK
6
CONTINUOUS
10
298.498
20
-30.849
11
298.498
21
-43.849
0
LINE
8
BLACK
6
CONTINUOUS
10
111.71
20
-30.849
11
111.71
21
-43.849
0
ARC
8
BLACK
10
220.748
20
-120.049
40
0.5
50
-90
51
-0
0
LINE
8
BLACK
6
CONTINUOUS
10
73.1422
20
-122.549
11
79.1422
21
-122.549
0
LINE
8
BLACK
6
CONTINUOUS
10
298.498
20
-49.899
11
298.498
21
-62.899
0
LINE
8
BLACK
6
CONTINUOUS
10
355.647
20
-59.424
11
355.647
21
-72.424
0
LINE
8
BLACK
6
CONTINUOUS
10
106.948
20
-68.949
11
106.948
21
-81.949
0
LINE
8
BLACK
6
CONTINUOUS
10
83.4235
20
-87.999
11
83.4235
21
-100.999
0
LINE
8
BLACK
6
CONTINUOUS
10
188.198
20
-107.049
11
188.198
21
-120.049
0
LINE
8
BLACK
6
CONTINUOUS
10
2.961
20
-2.536
11
15.961
21
-2.536
0
LINE
8
BLACK
6
CONTINUOUS
10
7.7235
20
-63.399
11
20.7235
21
-63.399
0
LINE
8
BLACK
6
CONTINUOUS
10
7.2235
20
-49.899
11
7.2235
21
-62.899
0
ARC
8
BLACK
10
256.467
20
-87.999
40
0.5
50
-0
51
90
0
ARC
8
BLACK
10
368.147
20
-89.086
40
0.5
50
-0
51
90
0
ARC
8
BLACK
10
369.147
20
-16.036
40
0.5
50
-90
51
-0
0
LINE
8
BLACK
6
CONTINUOUS
10
83.136
20
-49.899
11
83.136
21
-62.899
0
ARC
8
BLACK
10
111.21
20
-30.849
40
0.5
50
-0
51
90
0
LINE
8
BLACK
6
CONTINUOUS
10
122.023
20
-101.499
11
135.023
21
-101.499
0
LINE
8
BLACK
6
CONTINUOUS
10
50.086
20
-49.899
11
50.086
21
-62.899
0
LINE
8
BLACK
6
CONTINUOUS
10
141.073
20
-101.499
11
154.073
21
-101.499
0
ARC
8
BLACK
10
242.179
20
-107.049
40
0.5
50
-0
51
90
0
ARC
8
BLACK
10
15.961
20
-16.036
40
0.5
50
-90
51
-0
0
ARC
8
BLACK
10
337.097
20
-87.999
40
0.5
50
90
51
180
0
LINE
8
BLACK
6
CONTINUOUS
10
116.474
20
-87.999
11
116.474
21
-100.999
0
LINE
8
BLACK
6
CONTINUOUS
10
273.192
20
-69.449
11
279.192
21
-69.449
0
LINE
8
BLACK
6
CONTINUOUS
10
145.835
20
-2.536
11
158.835
21
-2.536
0
LINE
8
BLACK
6
CONTINUOUS
10
40.561
20
-30.849
11
40.561
21
-43.849
0
LINE
8
BLACK
6
CONTINUOUS
10
50.586
20
-49.399
11
63.586
21
-49.399
0
LINE
8
BLACK
6
CONTINUOUS
10
79.161
20
-30.349
11
92.161
21
-30.349
0
LINE
8
BLACK
6
CONTINUOUS
10
193.46
20
-44.349
11
206.46
21
-44.349
0
LINE
8
BLACK
6
CONTINUOUS
10
2.961
20
-44.349
11
15.961
21
-44.349
0
LINE
8
BLACK
6
CONTINUOUS
10
145.335
20
-49.899
11
145.335
21
-62.899
0
LINE
8
BLACK
6
CONTINUOUS
10
317.548
20
-49.899
11
317.548
21
-62.899
0
ARC
8
BLACK
10
31.536
20
-49.899
40
0.5
50
90
51
180
0
ARC
8
BLACK
10
263.611
20
-16.036
40
0.5
50
-90
51
-0
0
ARC
8
BLACK
10
269.661
20
-16.036
40
0.5
50
180
51
270
0
LINE
8
BLACK
6
CONTINUOUS
10
250.611
20
-16.536
11
263.611
21
-16.536
0
ARC
8
BLACK
10
354.147
20
-56.986
40
0.5
50
180
51
270
0
ARC
8
BLACK
10
269.661
20
-3.036
40
0.5
50
90
51
180
0
LINE
8
BLACK
6
CONTINUOUS
10
241.085
20
-49.399
11
254.085
21
-49.399
0
ARC
8
BLACK
10
231.56
20
-3.036
40
0.5
50
90
51
180
0
ARC
8
BLACK
10
287.613
20
-106.181
40
0.5
50
-90
51
-0
0
ARC
8
BLACK
10
20.7235
20
-49.899
40
0.5
50
-0
51
90
0
ARC
8
BLACK
10
350.097
20
-43.849
40
0.5
50
-90
51
-0
0
LINE
8
BLACK
6
CONTINUOUS
10
111.71
20
-3.036
11
111.71
21
-16.036
0
ARC
8
BLACK
10
177.886
20
-49.899
40
0.5
50
-0
51
90
0
ARC
8
BLACK
10
250.611
20
-16.036
40
0.5
50
180
51
270
0
LINE
8
BLACK
6
CONTINUOUS
10
41.061
20
-16.536
11
54.061
21
-16.536
0
LINE
8
BLACK
6
CONTINUOUS
10
312.498
20
-49.899
11
312.498
21
-62.899
0
LINE
8
BLACK
6
CONTINUOUS
10
60.111
20
-2.536
11
73.111
21
-2.536
0
ARC
8
BLACK
10
168.361
20
-30.849
40
0.5
50
-0
51
90
0
LINE
8
BLACK
6
CONTINUOUS
10
305.666
20
-21.182
11
305.666
21
-25.682
0
ARC
8
BLACK
10
188.698
20
-107.049
40
0.5
50
90
51
180
0
ARC
8
BLACK
10
293.663
20
-125.231
40
0.5
50
180
51
270
0
ARC
8
BLACK
10
355.166
20
-21.172
40
0.499999
50
-0.000114592
51
89.9999
0
ARC
8
BLACK
10
2.961
20
-3.036
40
0.5
50
90
51
180
0
ARC
8
BLACK
10
331.048
20
-81.949
40
0.5
50
-90
51
-0
0
LINE
8
BLACK
6
CONTINUOUS
10
337.097
20
-2.536
11
350.097
21
-2.536
0
LINE
8
BLACK
6
CONTINUOUS
10
229.179
20
-106.549
11
242.179
21
-106.549
0
ARC
8
BLACK
10
35.011
20
-43.849
40
0.5
50
-90
51
-0
0
ARC
8
BLACK
10
55.3485
20
-81.949
40
0.5
50
180
51
270
0
LINE
8
BLACK
6
CONTINUOUS
10
331.548
20
-68.949
11
331.548
21
-81.949
0
LINE
8
BLACK
6
CONTINUOUS
10
54.561
20
-30.849
11
54.561
21
-43.849
0
LINE
8
BLACK
6
CONTINUOUS
10
6.42925
20
-88.499
11
12.4292
21
-88.499
0
LINE
8
BLACK
6
CONTINUOUS
10
368.647
20
-74.862
11
368.647
21
-80.862
0
ARC
8
BLACK
10
318.048
20
-49.899
40
0.5
50
90
51
180
0
ARC
8
BLACK
10
337.097
20
-120.049
40
0.5
50
180
51
270
0
ARC
8
BLACK
10
297.169
20
-25.682
40
0.5
50
180
51
270
0
LINE
8
BLACK
6
CONTINUOUS
10
269.661
20
-16.536
11
282.661
21
-16.536
0
ARC
8
BLACK
10
260.135
20
-30.849
40
0.5
50
90
51
180
0
ARC
8
BLACK
10
201.698
20
-68.949
40
0.5
50
-0
51
90
0
ARC
8
BLACK
10
120.735
20
-62.899
40
0.5
50
-90
51
-0
0
LINE
8
BLACK
6
CONTINUOUS
10
21.2235
20
-49.899
11
21.2235
21
-62.899
0
ARC
8
BLACK
10
74.3985
20
-68.949
40
0.5
50
90
51
180
0
LINE
8
BLACK
6
CONTINUOUS
10
255.564
20
-125.731
11
268.563
21
-125.731
0
ARC
8
BLACK
10
45.8235
20
-87.999
40
0.5
50
90
51
180
0
ARC
8
BLACK
10
255.564
20
-112.231
40
0.5
50
90
51
180
0
ARC
8
BLACK
10
243.468
20
-87.999
40
0.5
50
90
51
180
0
ARC
8
BLACK
10
250.611
20
-3.036
40
0.5
50
90
51
180
0
LINE
8
BLACK
6
CONTINUOUS
10
174.41
20
-30.349
11
187.41
21
-30.349
0
ARC
8
BLACK
10
87.3985
20
-68.949
40
0.5
50
-0
51
90
0
ARC
8
BLACK
10
41.061
20
-3.036
40
0.5
50
90
51
180
0
LINE
8
BLACK
6
CONTINUOUS
10
73.611
20
-30.849
11
73.611
21
-43.849
0
ARC
8
BLACK
10
111.21
20
-43.849
40
0.5
50
-90
51
-0
0
LINE
8
BLACK
6
CONTINUOUS
10
226.011
20
-30.849
11
226.011
21
-43.849
0
ARC
8
BLACK
10
77.8735
20
-100.999
40
0.5
50
-90
51
-0
0
LINE
8
BLACK
6
CONTINUOUS
10
164.886
20
-2.536
11
177.886
21
-2.536
0
LINE
8
BLACK
6
CONTINUOUS
10
48.2047
20
-120.549
11
61.2047
21
-120.549
0
ARC
8
BLACK
10
79.1422
20
-122.049
40
0.5
50
-90
51
-0
0
LINE
8
BLACK
6
CONTINUOUS
10
2.461
20
-30.849
11
2.461
21
-43.849
0
ARC
8
BLACK
10
220.748
20
-68.949
40
0.5
50
-0
51
90
0
ARC
8
BLACK
10
273.192
20
-83.949
40
0.5
50
180
51
270
0
ARC
8
BLACK
10
193.46
20
-43.849
40
0.5
50
180
51
270
0
ARC
8
BLACK
10
179.142
20
-122.049
40
0.5
50
-90
51
-0
0
ARC
8
BLACK
10
356.147
20
-43.849
40
0.5
50
180
51
270
0
LINE
8
BLACK
6
CONTINUOUS
10
141.073
20
-87.499
11
154.073
21
-87.499
0
ARC
8
BLACK
10
154.073
20
-100.999
40
0.5
50
-90
51
-0
0
ARC
8
BLACK
10
188.698
20
-120.049
40
0.5
50
180
51
270
0
LINE
8
BLACK
6
CONTINUOUS
10
242.679
20
-107.049
11
242.679
21
-120.049
0
ARC
8
BLACK
10
68.3485
20
-68.949
40
0.5
50
-0
51
90
0
LINE
8
BLACK
6
CONTINUOUS
10
112.498
20
-82.449
11
125.498
21
-82.449
0
LINE
8
BLACK
6
CONTINUOUS
10
293.663
20
-125.731
11
306.663
21
-125.731
0
ARC
8
BLACK
10
201.698
20
-81.949
40
0.5
50
-90
51
-0
0
LINE
8
BLACK
6
CONTINUOUS
10
41.061
20
-44.349
11
54.061
21
-44.349
0
ARC
8
BLACK
10
15.961
20
-30.849
40
0.499999
50
-0
51
90
0
ARC
8
BLACK
10
177.886
20
-62.899
40
0.5
50
-90
51
-0
0
LINE
8
BLACK
6
CONTINUOUS
10
126.785
20
-49.399
11
139.785
21
-49.399
0
ARC
8
BLACK
10
196.935
20
-49.899
40
0.5
50
-0
51
90
0
LINE
8
BLACK
6
CONTINUOUS
10
369.147
20
-111.024
11
356.147
21
-111.024
0
LINE
8
BLACK
6
CONTINUOUS
10
59.3235
20
-87.999
11
59.3235
21
-100.999
0
LINE
8
BLACK
6
CONTINUOUS
10
150.599
20
-68.449
11
163.599
21
-68.449
0
ARC
8
BLACK
10
87.3985
20
-81.949
40
0.5
50
-90
51
-0
0
ARC
8
BLACK
10
173.123
20
-100.999
40
0.5
50
-90
51
-0
0
LINE
8
BLACK
6
CONTINUOUS
10
188.698
20
-120.549
11
201.698
21
-120.549
0
LINE
8
BLACK
6
CONTINUOUS
10
322.171
20
-20.682
11
330.168
21
-20.682
0
LINE
8
BLACK
6
CONTINUOUS
10
102.474
20
-87.999
11
102.474
21
-100.999
0
ARC
8
BLACK
10
369.147
20
-110.524
40
0.5
50
-90
51
-0
0
ARC
8
BLACK
10
12.4292
20
-102.999
40
0.5
50
-90
51
-0
0
ARC
8
BLACK
10
41.061
20
-30.849
40
0.5
50
90
51
180
0
LINE
8
BLACK
6
CONTINUOUS
10
260.135
20
-30.349
11
273.135
21
-30.349
0
LINE
8
BLACK
6
CONTINUOUS
10
331.548
20
-107.049
11
331.548
21
-120.049
0
LINE
8
BLACK
6
CONTINUOUS
10
126.785
20
-2.536
11
139.785
21
-2.536
0
LINE
8
BLACK
6
CONTINUOUS
10
55.3485
20
-82.449
11
68.3485
21
-82.449
0
LINE
8
BLACK
6
CONTINUOUS
10
245.06
20
-3.036
11
245.06
21
-16.036
0
ARC
8
BLACK
10
350.097
20
-107.049
40
0.5
50
-0
51
90
0
ARC
8
BLACK
10
225.511
20
-16.036
40
0.5
50
-90
51
-0
0
ARC
8
BLACK
10
350.097
20
-16.036
40
0.5
50
-90
51
-0
0
LINE
8
BLACK
6
CONTINUOUS
10
353.647
20
-112.962
11
353.647
21
-118.962
0
LINE
8
BLACK
6
CONTINUOUS
10
164.886
20
-63.399
11
177.886
21
-63.399
0
ARC
8
BLACK
10
158.835
20
-16.036
40
0.5
50
-90
51
-0
0
ARC
8
BLACK
10
64.8735
20
-87.999
40
0.5
50
90
51
180
0
ARC
8
BLACK
10
311.998
20
-81.949
40
0.5
50
-90
51
-0
0
LINE
8
BLACK
6
CONTINUOUS
10
187.91
20
-30.849
11
187.91
21
-43.849
0
LINE
8
BLACK
6
CONTINUOUS
10
250.111
20
-3.036
11
250.111
21
-16.036
0
ARC
8
BLACK
10
14.8672
20
-100.999
40
0.5
50
180
51
270
0
LINE
8
BLACK
6
CONTINUOUS
10
98.211
20
-2.536
11
111.21
21
-2.536
0
LINE
8
BLACK
6
CONTINUOUS
10
155.361
20
-44.349
11
168.361
21
-44.349
0
LINE
8
BLACK
6
CONTINUOUS
10
212.011
20
-30.849
11
212.011
21
-43.849
0
LINE
8
BLACK
6
CONTINUOUS
10
198.224
20
-87.499
11
211.224
21
-87.499
0
LINE
8
BLACK
6
CONTINUOUS
10
221.535
20
-49.899
11
221.535
21
-62.899
0
LINE
8
BLACK
6
CONTINUOUS
10
31.036
20
-49.899
11
31.036
21
-62.899
0
LINE
8
BLACK
6
CONTINUOUS
10
229.179
20
-120.549
11
242.179
21
-120.549
0
LINE
8
BLACK
6
CONTINUOUS
10
251.697
20
-31.349
11
257.697
21
-31.349
0
LINE
8
BLACK
6
CONTINUOUS
10
92.661
20
-30.849
11
92.661
21
-43.849
0
ARC
8
BLACK
10
273.135
20
-30.849
40
0.5
50
-0
51
90
0
LINE
8
BLACK
6
CONTINUOUS
10
222.035
20
-63.399
11
235.035
21
-63.399
0
LINE
8
BLACK
6
CONTINUOUS
10
293.663
20
-111.731
11
306.663
21
-111.731
0
LINE
8
BLACK
6
CONTINUOUS
10
31.536
20
-63.399
11
44.536
21
-63.399
0
LINE
8
BLACK
6
CONTINUOUS
10
330.667
20
-21.182
11
330.667
21
-25.682
0
LINE
8
BLACK
6
CONTINUOUS
10
298.998
20
-101.499
11
311.998
21
-101.499
0
LINE
8
BLACK
6
CONTINUOUS
10
197.435
20
-49.899
11
197.435
21
-62.899
0
ARC
8
BLACK
10
60.111
20
-30.849
40
0.5
50
90
51
180
0
ARC
8
BLACK
10
279.192
20
-83.949
40
0.5
50
-90
51
-0
0
LINE
8
BLACK
6
CONTINUOUS
10
202.198
20
-68.949
11
202.198
21
-81.949
0
ARC
8
BLACK
10
164.886
20
-62.899
40
0.5
50
180
51
270
0
ARC
8
BLACK
10
244.56
20
-43.849
40
0.5
50
-90
51
-0
0
ARC
8
BLACK
10
63.586
20
-49.899
40
0.499999
50
-0
51
90
0
ARC
8
BLACK
10
215.986
20
-49.899
40
0.5
50
-0
51
90
0
ARC
8
BLACK
10
368.147
20
-74.862
40
0.5
50
-0
51
90
0
ARC
8
BLACK
10
192.173
20
-100.999
40
0.5
50
-90
51
-0
0
LINE
8
BLACK
6
CONTINUOUS
10
231.56
20
-16.536
11
244.56
21
-16.536
0
LINE
8
BLACK
6
CONTINUOUS
10
45.8235
20
-101.499
11
58.8235
21
-101.499
0
ARC
8
BLACK
10
177.886
20
-3.036
40
0.5
50
-0
51
90
0
ARC
8
BLACK
10
275.573
20
-31.849
40
0.5
50
90
51
180
0
ARC
8
BLACK
10
287.613
20
-112.231
40
0.5
50
-0
51
90
0
ARC
8
BLACK
10
79.161
20
-43.849
40
0.5
50
180
51
270
0
ARC
8
BLACK
10
119.642
20
-107.049
40
0.5
50
90
51
180
0
LINE
8
BLACK
6
CONTINUOUS
10
207.748
20
-120.549
11
220.748
21
-120.549
0
ARC
8
BLACK
10
92.161
20
-3.036
40
0.5
50
-0
51
90
0
ARC
8
BLACK
10
212.511
20
-43.849
40
0.5
50
180
51
270
0
LINE
8
BLACK
6
CONTINUOUS
10
9.60475
20
-68.949
11
9.60475
21
-81.949
0
ARC
8
BLACK
10
164.886
20
-49.899
40
0.5
50
90
51
180
0
LINE
8
BLACK
6
CONTINUOUS
10
241.085
20
-63.399
11
254.085
21
-63.399
0
ARC
8
BLACK
10
54.061
20
-43.849
40
0.5
50
-90
51
-0
0
LINE
8
BLACK
6
CONTINUOUS
10
119.642
20
-120.549
11
132.642
21
-120.549
0
ARC
8
BLACK
10
273.135
20
-43.849
40
0.5
50
-90
51
-0
0
LINE
8
BLACK
6
CONTINUOUS
10
145.835
20
-63.399
11
158.835
21
-63.399
0
LINE
8
BLACK
6
CONTINUOUS
10
107.736
20
-49.399
11
120.735
21
-49.399
0
ARC
8
BLACK
10
61.2047
20
-120.049
40
0.5
50
-90
51
-0
0
LINE
8
BLACK
6
CONTINUOUS
10
119.142
20
-107.049
11
119.142
21
-120.049
0
ARC
8
BLACK
10
287.613
20
-93.1806
40
0.5
50
-0
51
90
0
ARC
8
BLACK
10
225.511
20
-3.036
40
0.5
50
-0
51
90
0
LINE
8
BLACK
6
CONTINUOUS
10
296.669
20
-21.182
11
296.669
21
-25.682
0
ARC
8
BLACK
10
2.961
20
-43.849
40
0.500001
50
180
51
270
0
ARC
8
BLACK
10
73.111
20
-16.036
40
0.5
50
-90
51
-0
0
ARC
8
BLACK
10
168.361
20
-43.849
40
0.5
50
-90
51
-0
0
ARC
8
BLACK
10
306.663
20
-125.231
40
0.5
50
-90
51
-0
0
ARC
8
BLACK
10
160.123
20
-100.999
40
0.5
50
180
51
270
0
LINE
8
BLACK
6
CONTINUOUS
10
111.998
20
-68.949
11
111.998
21
-81.949
0
LINE
8
BLACK
6
CONTINUOUS
10
288.113
20
-112.231
11
288.113
21
-125.231
0
LINE
8
BLACK
6
CONTINUOUS
10
102.974
20
-87.499
11
115.974
21
-87.499
0
ARC
8
BLACK
10
183.935
20
-49.899
40
0.5
50
90
51
180
0
LINE
8
BLACK
6
CONTINUOUS
10
356.147
20
-30.349
11
369.147
21
-30.349
0
ARC
8
BLACK
10
44.536
20
-62.899
40
0.5
50
-90
51
-0
0
LINE
8
BLACK
6
CONTINUOUS
10
159.623
20
-87.999
11
159.623
21
-100.999
0
LINE
8
BLACK
6
CONTINUOUS
10
179.173
20
-87.499
11
192.173
21
-87.499
0
ARC
8
BLACK
10
368.147
20
-56.986
40
0.5
50
-90
51
-0
0
LINE
8
BLACK
6
CONTINUOUS
10
318.048
20
-82.449
11
331.048
21
-82.449
0
LINE
8
BLACK
6
CONTINUOUS
10
49.7985
20
-68.949
11
49.7985
21
-81.949
0
ARC
8
BLACK
10
73.1422
20
-122.049
40
0.5
50
180
51
270
0
LINE
8
BLACK
6
CONTINUOUS
10
117.26
20
-30.349
11
130.261
21
-30.349
0
LINE
8
BLACK
6
CONTINUOUS
10
198.224
20
-101.499
11
211.224
21
-101.499
0
LINE
8
BLACK
6
CONTINUOUS
10
10.1047
20
-68.449
11
23.1047
21
-68.449
0
ARC
8
BLACK
10
331.048
20
-100.999
40
0.5
50
-90
51
-0
0
LINE
8
BLACK
6
CONTINUOUS
10
202.986
20
-49.399
11
215.986
21
-49.399
0
LINE
8
BLACK
6
CONTINUOUS
10
369.147
20
-58.924
11
356.147
21
-58.924
0
LINE
8
BLACK
6
CONTINUOUS
10
207.748
20
-82.449
11
220.748
21
-82.449
0
ARC
8
BLACK
10
354.147
20
-80.862
40
0.5
50
180
51
270
0
LINE
8
BLACK
6
CONTINUOUS
10
226.298
20
-68.949
11
226.298
21
-81.949
0
ARC
8
BLACK
10
107.736
20
-49.899
40
0.5
50
90
51
180
0
LINE
8
BLACK
6
CONTINUOUS
10
226.798
20
-82.449
11
239.798
21
-82.449
0
ARC
8
BLACK
10
255.316
20
-83.949
40
0.5
50
-90
51
-0
0
LINE
8
BLACK
6
CONTINUOUS
10
64.086
20
-49.899
11
64.086
21
-62.899
0
ARC
8
BLACK
10
354.147
20
-112.962
40
0.5
50
90
51
180
0
ARC
8
BLACK
10
125.498
20
-68.949
40
0.5
50
-0
51
90
0
ARC
8
BLACK
10
112.498
20
-68.949
40
0.5
50
90
51
180
0
LINE
8
BLACK
6
CONTINUOUS
10
197.435
20
-3.036
11
197.435
21
-16.036
0
ARC
8
BLACK
10
202.986
20
-49.899
40
0.5
50
90
51
180
0
LINE
8
BLACK
6
CONTINUOUS
10
14.8672
20
-101.499
11
27.8672
21
-101.499
0
LINE
8
BLACK
6
CONTINUOUS
10
87.8985
20
-68.949
11
87.8985
21
-81.949
0
LINE
8
BLACK
6
CONTINUOUS
10
117.26
20
-44.349
11
130.261
21
-44.349
0
ARC
8
BLACK
10
257.755
20
-81.949
40
0.5
50
180
51
270
0
ARC
8
BLACK
10
239.798
20
-81.949
40
0.5
50
-90
51
-0
0
ARC
8
BLACK
10
36.2985
20
-68.949
40
0.5
50
90
51
180
0
ARC
8
BLACK
10
207.748
20
-107.049
40
0.5
50
90
51
180
0
LINE
8
BLACK
6
CONTINUOUS
10
88.686
20
-63.399
11
101.686
21
-63.399
0
LINE
8
BLACK
6
CONTINUOUS
10
126.285
20
-49.899
11
126.285
21
-62.899
0
ARC
8
BLACK
10
235.035
20
-62.899
40
0.5
50
-90
51
-0
0
ARC
8
BLACK
10
188.698
20
-81.949
40
0.5
50
180
51
270
0
ARC
8
BLACK
10
117.26
20
-43.849
40
0.5
50
180
51
270
0
LINE
8
BLACK
6
CONTINUOUS
10
35.7985
20
-68.949
11
35.7985
21
-81.949
0
ARC
8
BLACK
10
126.785
20
-49.899
40
0.5
50
90
51
180
0
LINE
8
BLACK
6
CONTINUOUS
10
226.798
20
-68.449
11
239.798
21
-68.449
0
ARC
8
BLACK
10
331.048
20
-43.849
40
0.5
50
-90
51
-0
0
ARC
8
BLACK
10
207.748
20
-81.949
40
0.5
50
180
51
270
0
ARC
8
BLACK
10
273.192
20
-69.949
40
0.5
50
90
51
180
0
LINE
8
BLACK
6
CONTINUOUS
10
164.099
20
-68.949
11
164.099
21
-81.949
0
LINE
8
BLACK
6
CONTINUOUS
10
369.647
20
-30.849
11
369.647
21
-43.849
0
ARC
8
BLACK
10
244.56
20
-16.036
40
0.5
50
-90
51
-0
0
LINE
8
BLACK
6
CONTINUOUS
10
217.273
20
-101.499
11
230.273
21
-101.499
0
ARC
8
BLACK
10
187.41
20
-43.849
40
0.5
50
-90
51
-0
0
LINE
8
BLACK
6
CONTINUOUS
10
155.361
20
-30.349
11
168.361
21
-30.349
0
ARC
8
BLACK
10
298.998
20
-49.899
40
0.5
50
90
51
180
0
ARC
8
BLACK
10
164.886
20
-16.036
40
0.5
50
180
51
270
0
LINE
8
BLACK
6
CONTINUOUS
10
202.986
20
-63.399
11
215.986
21
-63.399
0
ARC
8
BLACK
10
337.097
20
-30.849
40
0.5
50
90
51
180
0
LINE
8
BLACK
6
CONTINUOUS
10
183.935
20
-2.536
11
196.935
21
-2.536
0
ARC
8
BLACK
10
298.998
20
-87.999
40
0.5
50
90
51
180
0
LINE
8
BLACK
6
CONTINUOUS
10
231.06
20
-30.849
11
231.06
21
-43.849
0
ARC
8
BLACK
10
287.613
20
-125.231
40
0.5
50
-90
51
-0
0
LINE
8
BLACK
6
CONTINUOUS
10
298.998
20
-68.449
11
311.998
21
-68.449
0
ARC
8
BLACK
10
350.097
20
-87.999
40
0.5
50
-0
51
90
0
ARC
8
BLACK
10
350.097
20
-81.949
40
0.5
50
-90
51
-0
0
ARC
8
BLACK
10
318.048
20
-62.899
40
0.5
50
180
51
270
0
LINE
8
BLACK
6
CONTINUOUS
10
298.998
20
-49.399
11
311.998
21
-49.399
0
LINE
8
BLACK
6
CONTINUOUS
10
278.399
20
-49.899
11
278.399
21
-62.899
0
LINE
8
BLACK
6
CONTINUOUS
10
112.498
20
-68.449
11
125.498
21
-68.449
0
ARC
8
BLACK
10
139.785
20
-16.036
40
0.5
50
-90
51
-0
0
ARC
8
BLACK
10
83.9235
20
-87.999
40
0.5
50
90
51
180
0
LINE
8
BLACK
6
CONTINUOUS
10
368.147
20
-112.462
11
354.147
21
-112.462
0
LINE
8
BLACK
6
CONTINUOUS
10
212.511
20
-44.349
11
225.511
21
-44.349
0
ARC
8
BLACK
10
231.56
20
-43.849
40
0.5
50
180
51
270
0
LINE
8
BLACK
6
CONTINUOUS
10
347.167
20
-20.672
11
355.166
21
-20.672
0
ARC
8
BLACK
10
63.586
20
-62.899
40
0.5
50
-90
51
-0
0
ARC
8
BLACK
10
256.467
20
-100.999
40
0.5
50
-90
51
-0
0
LINE
8
BLACK
6
CONTINUOUS
10
23.6047
20
-68.949
11
23.6047
21
-81.949
0
LINE
8
BLACK
6
CONTINUOUS
10
4.84225
20
-107.049
11
4.84225
21
-120.049
0
LINE
8
BLACK
6
CONTINUOUS
10
312.498
20
-68.949
11
312.498
21
-81.949
0
LINE
8
BLACK
6
CONTINUOUS
10
264.899
20
-49.399
11
277.899
21
-49.399
0
LINE
8
BLACK
6
CONTINUOUS
10
130.761
20
-30.849
11
130.761
21
-43.849
0
LINE
8
BLACK
6
CONTINUOUS
10
368.147
20
-88.586
11
354.147
21
-88.586
0
LINE
8
BLACK
6
CONTINUOUS
10
331.548
20
-49.899
11
331.548
21
-62.899
0
ARC
8
BLACK
10
298.998
20
-81.949
40
0.5
50
180
51
270
0
LINE
8
BLACK
6
CONTINUOUS
10
179.642
20
-108.049
11
179.642
21
-122.049
0
LINE
8
BLACK
6
CONTINUOUS
10
297.169
20
-20.682
11
305.166
21
-20.682
0
ARC
8
BLACK
10
18.3423
20
-120.049
40
0.5
50
-90
51
-0
0
LINE
8
BLACK
6
CONTINUOUS
10
350.597
20
-3.036
11
350.597
21
-16.036
0
LINE
8
BLACK
6
CONTINUOUS
10
97.711
20
-30.849
11
97.711
21
-43.849
0
ARC
8
BLACK
10
275.573
20
-45.849
40
0.5
50
180
51
270
0
LINE
8
BLACK
6
CONTINUOUS
10
298.498
20
-87.999
11
298.498
21
-100.999
0
LINE
8
BLACK
6
CONTINUOUS
10
54.8485
20
-68.949
11
54.8485
21
-81.949
0
LINE
8
BLACK
6
CONTINUOUS
10
54.561
20
-3.036
11
54.561
21
-16.036
0
LINE
8
BLACK
6
CONTINUOUS
10
221.248
20
-107.049
11
221.248
21
-120.049
0
LINE
8
BLACK
6
CONTINUOUS
10
92.661
20
-3.036
11
92.661
21
-16.036
0
LINE
8
BLACK
6
CONTINUOUS
10
336.597
20
-3.036
11
336.597
21
-16.036
0
LINE
8
BLACK
6
CONTINUOUS
10
102.186
20
-49.899
11
102.186
21
-62.899
0
ARC
8
BLACK
10
356.147
20
-16.036
40
0.5
50
180
51
270
0
LINE
8
BLACK
6
CONTINUOUS
10
41.061
20
-2.536
11
54.061
21
-2.536
0
ARC
8
BLACK
10
135.023
20
-87.999
40
0.5
50
-0
51
90
0
LINE
8
BLACK
6
CONTINUOUS
10
298.998
20
-30.349
11
311.998
21
-30.349
0
ARC
8
BLACK
10
136.31
20
-30.849
40
0.5
50
90
51
180
0
LINE
8
BLACK
6
CONTINUOUS
10
206.96
20
-30.849
11
206.96
21
-43.849
0
LINE
8
BLACK
6
CONTINUOUS
10
60.111
20
-16.536
11
73.111
21
-16.536
0
LINE
8
BLACK
6
CONTINUOUS
10
231.56
20
-44.349
11
244.56
21
-44.349
0
LINE
8
BLACK
6
CONTINUOUS
10
318.048
20
-44.349
11
331.048
21
-44.349
0
LINE
8
BLACK
6
CONTINUOUS
10
2.461
20
-3.036
11
2.461
21
-16.036
0
LINE
8
BLACK
6
CONTINUOUS
10
369.647
20
-59.424
11
369.647
21
-72.424
0
LINE
8
BLACK
6
CONTINUOUS
10
318.048
20
-68.449
11
331.048
21
-68.449
0
ARC
8
BLACK
10
111.21
20
-16.036
40
0.5
50
-90
51
-0
0
ARC
8
BLACK
10
331.048
20
-87.999
40
0.5
50
-0
51
90
0
LINE
8
BLACK
6
CONTINUOUS
10
207.248
20
-68.949
11
207.248
21
-81.949
0
ARC
8
BLACK
10
23.1047
20
-68.949
40
0.5
50
-0
51
90
0
LINE
8
BLACK
6
CONTINUOUS
10
79.161
20
-2.536
11
92.161
21
-2.536
0
LINE
8
BLACK
6
CONTINUOUS
10
249.316
20
-69.449
11
255.316
21
-69.449
0
LINE
8
BLACK
6
CONTINUOUS
10
336.597
20
-107.049
11
336.597
21
-120.049
0
ARC
8
BLACK
10
2.961
20
-30.849
40
0.5
50
90
51
180
0
ARC
8
BLACK
10
107.736
20
-62.899
40
0.5
50
180
51
270
0
LINE
8
BLACK
6
CONTINUOUS
10
68.8485
20
-68.949
11
68.8485
21
-81.949
0
LINE
8
BLACK
6
CONTINUOUS
10
207.748
20
-106.549
11
220.748
21
-106.549
0
ARC
8
BLACK
10
282.661
20
-16.036
40
0.5
50
-90
51
-0
0
ARC
8
BLACK
10
102.974
20
-100.999
40
0.5
50
180
51
270
0
ARC
8
BLACK
10
182.648
20
-68.949
40
0.5
50
-0
51
90
0
LINE
8
BLACK
6
CONTINUOUS
10
355.666
20
-21.172
11
355.666
21
-25.672
0
ARC
8
BLACK
10
337.097
20
-16.036
40
0.5
50
180
51
270
0
ARC
8
BLACK
10
73.111
20
-3.036
40
0.5
50
-0
51
90
0
LINE
8
BLACK
6
CONTINUOUS
10
126.785
20
-63.399
11
139.785
21
-63.399
0
ARC
8
BLACK
10
217.273
20
-87.999
40
0.5
50
90
51
180
0
LINE
8
BLACK
6
CONTINUOUS
10
249.316
20
-84.449
11
255.316
21
-84.449
0
LINE
8
BLACK
6
CONTINUOUS
10
98.211
20
-16.536
11
111.21
21
-16.536
0
ARC
8
BLACK
10
356.147
20
-110.524
40
0.5
50
180
51
270
0
ARC
8
BLACK
10
207.748
20
-120.049
40
0.5
50
180
51
270
0
LINE
8
BLACK
6
CONTINUOUS
10
30.3052
20
-88.499
11
36.3053
21
-88.499
0
ARC
8
BLACK
10
69.636
20
-49.899
40
0.5
50
90
51
180
0
ARC
8
BLACK
10
330.167
20
-21.182
40
0.499999
50
-0.000114592
51
89.9999
0
LINE
8
BLACK
6
CONTINUOUS
10
240.298
20
-68.949
11
240.298
21
-81.949
0
LINE
8
BLACK
6
CONTINUOUS
10
145.835
20
-49.399
11
158.835
21
-49.399
0
LINE
8
BLACK
6
CONTINUOUS
10
212.511
20
-16.536
11
225.511
21
-16.536
0
ARC
8
BLACK
10
79.161
20
-16.036
40
0.5
50
180
51
270
0
LINE
8
BLACK
6
CONTINUOUS
10
16.461
20
-30.849
11
16.461
21
-43.849
0
LINE
8
BLACK
6
CONTINUOUS
10
356.147
20
-2.536
11
369.147
21
-2.536
0
ARC
8
BLACK
10
306.663
20
-112.231
40
0.5
50
-0
51
90
0
LINE
8
BLACK
6
CONTINUOUS
10
74.3985
20
-68.449
11
87.3985
21
-68.449
0
ARC
8
BLACK
10
369.147
20
-59.424
40
0.5
50
-0
51
90
0
ARC
8
BLACK
10
337.097
20
-107.049
40
0.5
50
90
51
180
0
ARC
8
BLACK
10
102.974
20
-87.999
40
0.5
50
90
51
180
0
LINE
8
BLACK
6
CONTINUOUS
10
255.564
20
-111.731
11
268.563
21
-111.731
0
ARC
8
BLACK
10
251.697
20
-31.849
40
0.5
50
90
51
180
0
ARC
8
BLACK
10
368.147
20
-95.086
40
0.5
50
-90
51
-0
0
LINE
8
BLACK
6
CONTINUOUS
10
61.7047
20
-107.049
11
61.7047
21
-120.049
0
ARC
8
BLACK
10
64.8735
20
-100.999
40
0.5
50
180
51
270
  0
ENDSEC
  0
EOF
